<?xml version="1.0" encoding="UTF-8" standalone="no"?>
<!DOCTYPE svg PUBLIC "-//W3C//DTD SVG 1.1//EN" "http://www.w3.org/Graphics/SVG/1.1/DTD/svg11.dtd">
<!-- Created with Vectornator (http://vectornator.io/) -->
<svg height="100%" stroke-miterlimit="10" style="fill-rule:nonzero;clip-rule:evenodd;stroke-linecap:round;stroke-linejoin:round;" version="1.1" viewBox="0 0 1200 1200" width="100%" xml:space="preserve" xmlns="http://www.w3.org/2000/svg" xmlns:vectornator="http://vectornator.io" xmlns:xlink="http://www.w3.org/1999/xlink">
<defs/>
<clipPath id="ArtboardFrame">
<rect height="1200" width="1200" x="0" y="0"/>
</clipPath>
<g clip-path="url(#ArtboardFrame)" id="baseline" vectornator:layerName="baseline">
<g opacity="1" vectornator:layerName="g">
<path d="M-0.72133 792.165L9.27867 792.165" fill="none" opacity="1" stroke="#7f8c8d" stroke-linecap="butt" stroke-linejoin="miter" stroke-width="2.4" vectornator:layerName="line"/>
<path d="M29.2787 792.165L1179.28 792.165" fill="none" opacity="1" stroke="#7f8c8d" stroke-dasharray="20.0" stroke-linecap="butt" stroke-linejoin="miter" stroke-width="2.4" vectornator:layerName="line"/>
<path d="M1189.28 792.165L1199.28 792.165" fill="none" opacity="1" stroke="#7f8c8d" stroke-linecap="butt" stroke-linejoin="miter" stroke-width="2.4" vectornator:layerName="line"/>
</g>
<g opacity="1" vectornator:layerName="g">
<path d="M31.4362 810.345C32.356 951.146 46.8448 1055.16 69.96 1055.16" fill="none" opacity="1" stroke="#95a5a6" stroke-dasharray="15.0" stroke-linecap="butt" stroke-linejoin="miter" stroke-width="4" vectornator:layerName="path"/>
<path d="M21.636 813.387L31.39 795.992L41.58 813.135L21.636 813.387Z" fill="#95a5a6" fill-rule="nonzero" opacity="1" stroke="none" vectornator:layerName="polygon"/>
</g>
<g fill="#95a5a6" opacity="1" stroke="none" vectornator:layerName="text">
<path d="M81.887 1056.38C82.7402 1056.38 83.4037 1056.26 83.8777 1056.03C84.6225 1055.65 84.9949 1054.98 84.9949 1054.01C84.9949 1053.04 84.5988 1052.38 83.8066 1052.04C83.3597 1051.85 82.6962 1051.76 81.816 1051.76L78.2105 1051.76L78.2105 1056.38L81.887 1056.38ZM82.5675 1063.27C83.8066 1063.27 84.6902 1062.91 85.2183 1062.19C85.5501 1061.74 85.716 1061.19 85.716 1060.55C85.716 1059.46 85.2318 1058.72 84.2636 1058.33C83.749 1058.12 83.0686 1058.02 82.2222 1058.02L78.2105 1058.02L78.2105 1063.27L82.5675 1063.27ZM76.23 1050.07L82.6386 1050.07C84.3855 1050.07 85.6279 1050.6 86.366 1051.64C86.7993 1052.25 87.016 1052.97 87.016 1053.77C87.016 1054.71 86.7485 1055.48 86.2136 1056.09C85.936 1056.4 85.5365 1056.7 85.0152 1056.96C85.7803 1057.25 86.3524 1057.58 86.7316 1057.95C87.4019 1058.6 87.737 1059.49 87.737 1060.64C87.737 1061.6 87.4357 1062.47 86.8331 1063.25C85.9326 1064.41 84.5006 1064.99 82.537 1064.99L76.23 1064.99L76.23 1050.07Z"/>
<path d="M91.312 1062.1C91.312 1062.63 91.505 1063.04 91.891 1063.35C92.2769 1063.65 92.7339 1063.81 93.262 1063.81C93.9053 1063.81 94.5282 1063.66 95.1308 1063.36C96.1464 1062.86 96.6542 1062.06 96.6542 1060.93L96.6542 1059.46C96.4308 1059.6 96.143 1059.72 95.791 1059.81C95.4389 1059.91 95.0936 1059.98 94.755 1060.02L93.648 1060.16C92.9844 1060.25 92.4868 1060.39 92.155 1060.58C91.593 1060.89 91.312 1061.4 91.312 1062.1ZM95.7402 1058.4C96.16 1058.35 96.441 1058.17 96.5831 1057.87C96.6644 1057.71 96.705 1057.48 96.705 1057.17C96.705 1056.55 96.4833 1056.1 96.0398 1055.82C95.5963 1055.54 94.9615 1055.4 94.1355 1055.4C93.1808 1055.4 92.5037 1055.65 92.1042 1056.17C91.8808 1056.45 91.7352 1056.88 91.6675 1057.44L89.9613 1057.44C89.9951 1056.1 90.4301 1055.16 91.2663 1054.64C92.1025 1054.11 93.0725 1053.85 94.1761 1053.85C95.4558 1053.85 96.4951 1054.1 97.2941 1054.58C98.0863 1055.07 98.4824 1055.83 98.4824 1056.86L98.4824 1063.12C98.4824 1063.31 98.5213 1063.47 98.5992 1063.58C98.677 1063.7 98.8412 1063.75 99.0917 1063.75C99.173 1063.75 99.2644 1063.75 99.366 1063.74C99.4675 1063.73 99.5758 1063.71 99.691 1063.69L99.691 1065.04C99.4066 1065.13 99.1899 1065.18 99.041 1065.2C98.892 1065.22 98.6889 1065.23 98.4316 1065.23C97.8019 1065.23 97.3449 1065 97.0605 1064.56C96.9115 1064.32 96.8066 1063.98 96.7456 1063.55C96.3732 1064.04 95.8383 1064.46 95.141 1064.82C94.4436 1065.18 93.6751 1065.36 92.8355 1065.36C91.8266 1065.36 91.0023 1065.05 90.3624 1064.44C89.7226 1063.83 89.4027 1063.06 89.4027 1062.14C89.4027 1061.13 89.7175 1060.35 90.3472 1059.79C90.9769 1059.24 91.8029 1058.9 92.8253 1058.77L95.7402 1058.4Z"/>
<path d="M102.565 1061.58C102.619 1062.19 102.772 1062.66 103.022 1062.98C103.483 1063.57 104.282 1063.87 105.419 1063.87C106.096 1063.87 106.692 1063.72 107.207 1063.42C107.721 1063.13 107.978 1062.67 107.978 1062.06C107.978 1061.59 107.772 1061.24 107.359 1060.99C107.095 1060.84 106.574 1060.67 105.795 1060.47L104.343 1060.11C103.415 1059.88 102.731 1059.62 102.291 1059.34C101.506 1058.84 101.113 1058.16 101.113 1057.29C101.113 1056.26 101.484 1055.42 102.225 1054.79C102.966 1054.15 103.963 1053.83 105.216 1053.83C106.854 1053.83 108.036 1054.31 108.76 1055.27C109.214 1055.88 109.434 1056.54 109.421 1057.24L107.694 1057.24C107.66 1056.83 107.515 1056.46 107.257 1056.12C106.838 1055.64 106.11 1055.4 105.074 1055.4C104.383 1055.4 103.86 1055.53 103.505 1055.79C103.149 1056.06 102.971 1056.4 102.971 1056.84C102.971 1057.31 103.205 1057.69 103.672 1057.98C103.943 1058.14 104.343 1058.29 104.871 1058.42L106.079 1058.72C107.393 1059.04 108.273 1059.34 108.72 1059.64C109.431 1060.11 109.786 1060.84 109.786 1061.85C109.786 1062.81 109.419 1063.65 108.684 1064.35C107.95 1065.06 106.831 1065.41 105.328 1065.41C103.709 1065.41 102.563 1065.04 101.89 1064.31C101.216 1063.57 100.856 1062.66 100.808 1061.58L102.565 1061.58Z"/>
<path d="M116.408 1053.87C117.18 1053.87 117.928 1054.05 118.653 1054.42C119.377 1054.78 119.929 1055.25 120.308 1055.82C120.674 1056.37 120.918 1057.01 121.039 1057.74C121.148 1058.24 121.202 1059.04 121.202 1060.14L113.229 1060.14C113.263 1061.24 113.524 1062.13 114.011 1062.79C114.499 1063.46 115.254 1063.8 116.276 1063.8C117.231 1063.8 117.993 1063.48 118.561 1062.85C118.886 1062.49 119.116 1062.06 119.252 1061.58L121.05 1061.58C121.002 1061.98 120.845 1062.43 120.577 1062.92C120.31 1063.41 120.01 1063.81 119.678 1064.12C119.123 1064.66 118.436 1065.03 117.617 1065.22C117.177 1065.33 116.679 1065.38 116.124 1065.38C114.77 1065.38 113.622 1064.89 112.681 1063.9C111.74 1062.92 111.269 1061.54 111.269 1059.76C111.269 1058.02 111.743 1056.6 112.691 1055.51C113.639 1054.42 114.878 1053.87 116.408 1053.87ZM119.323 1058.69C119.249 1057.89 119.076 1057.26 118.805 1056.79C118.304 1055.91 117.468 1055.47 116.296 1055.47C115.457 1055.47 114.753 1055.77 114.184 1056.38C113.615 1056.98 113.314 1057.75 113.28 1058.69L119.323 1058.69Z"/>
<path d="M123.497 1050.07L125.325 1050.07L125.325 1064.99L123.497 1064.99L123.497 1050.07Z"/>
<path d="M128.068 1054.17L129.926 1054.17L129.926 1064.99L128.068 1064.99L128.068 1054.17ZM128.068 1050.07L129.926 1050.07L129.926 1052.15L128.068 1052.15L128.068 1050.07Z"/>
<path d="M132.689 1054.12L134.425 1054.12L134.425 1055.66C134.94 1055.02 135.485 1054.57 136.06 1054.29C136.636 1054.01 137.276 1053.87 137.98 1053.87C139.524 1053.87 140.566 1054.41 141.108 1055.49C141.406 1056.08 141.555 1056.92 141.555 1058.02L141.555 1064.99L139.696 1064.99L139.696 1058.14C139.696 1057.47 139.598 1056.94 139.402 1056.53C139.077 1055.86 138.488 1055.52 137.635 1055.52C137.201 1055.52 136.846 1055.56 136.568 1055.65C136.067 1055.8 135.627 1056.1 135.248 1056.54C134.943 1056.9 134.745 1057.27 134.654 1057.66C134.562 1058.04 134.517 1058.59 134.517 1059.3L134.517 1064.99L132.689 1064.99L132.689 1054.12Z"/>
<path d="M148.786 1053.87C149.558 1053.87 150.306 1054.05 151.031 1054.42C151.755 1054.78 152.307 1055.25 152.686 1055.82C153.052 1056.37 153.296 1057.01 153.418 1057.74C153.526 1058.24 153.58 1059.04 153.58 1060.14L145.607 1060.14C145.641 1061.24 145.902 1062.13 146.389 1062.79C146.877 1063.46 147.632 1063.8 148.654 1063.8C149.609 1063.8 150.371 1063.48 150.939 1062.85C151.264 1062.49 151.495 1062.06 151.63 1061.58L153.428 1061.58C153.38 1061.98 153.223 1062.43 152.955 1062.92C152.688 1063.41 152.388 1063.81 152.057 1064.12C151.501 1064.66 150.814 1065.03 149.995 1065.22C149.555 1065.33 149.057 1065.38 148.502 1065.38C147.148 1065.38 146 1064.89 145.059 1063.9C144.118 1062.92 143.647 1061.54 143.647 1059.76C143.647 1058.02 144.121 1056.6 145.069 1055.51C146.017 1054.42 147.256 1053.87 148.786 1053.87ZM151.701 1058.69C151.627 1057.89 151.454 1057.26 151.183 1056.79C150.682 1055.91 149.846 1055.47 148.675 1055.47C147.835 1055.47 147.131 1055.77 146.562 1056.38C145.993 1056.98 145.692 1057.75 145.658 1058.69L151.701 1058.69Z"/>
</g>
</g>
<g id="ECG-Sinus-rhythm-w-labels" vectornator:layerName="ECG Sinus rhythm w labels">
<g opacity="1" vectornator:layerName="g">
<g opacity="1" vectornator:layerName="segmented wave">
<path d="M556.05 784.259C551.822 849.301 550.215 869.235 549.419 870.449C548.403 871.844 546.965 872.874 545.317 873.387C539.252 874.909 538.449 873.741 519.047 835.228L500.786 798.978L509.173 783.927C511.138 784.674 514.138 789.785 523.294 807.992C534.272 829.822 536.875 833.543 537.567 828.4C537.618 828.025 538.653 811.813 540.397 784.166L556.05 784.259Z" fill="#60cf4d" fill-rule="nonzero" opacity="1" stroke="none" vectornator:layerName="path"/>
<path d="M601.582 783.152C600.017 755.353 598.224 723.213 596.168 686.173C588.301 544.441 581.602 427.401 581.281 426.084C580.87 424.394 580.385 424.002 579.636 424.751C578.982 425.404 573.255 510.88 564.745 646.989C561.014 706.653 558.194 751.261 556.05 784.259L540.397 784.166C543.574 733.823 549.099 645.564 555.305 545.978C564.918 391.703 573.021 264.471 573.312 263.241C574.773 257.054 584.7 256.373 587.296 262.281C588.352 264.686 592.886 341.258 605.589 571.263C610.423 658.783 614.473 730.662 617.499 782.793" fill="#ee4d52" fill-rule="nonzero" opacity="1" stroke="none" vectornator:layerName="path"/>
<path d="M650.859 784.736C652.887 783.094 657.929 782.978 727.301 782.978L801.572 782.978L813.867 768.728C829.007 751.181 857.12 723.093 869.831 712.813C888.885 697.404 905.8 688.978 917.679 688.978C924.119 688.978 932.138 691.468 938.945 695.58C954.831 705.177 974.755 732.62 991.881 768.489L998.798 782.978L1145.9 782.978L1148.35 785.433C1151.33 788.292 1151.57 792.971 1148.9 796.117L1146.99 798.478L1069.65 798.723C986.777 798.986 988.639 799.092 986.174 793.964C972.942 766.435 963.735 748.645 958.752 740.978C946.215 721.686 931.916 707.431 922.58 704.917C914.722 702.801 902.575 708.055 884.923 721.203C873.253 729.896 837.581 765.284 821.8 783.823C815.552 791.163 809.369 797.575 808.059 798.073C806.719 798.583 774.515 798.978 734.366 798.978C678.503 798.978 662.842 799.249 662.078 800.228" fill="#11aad5" fill-rule="nonzero" opacity="1" stroke="none" vectornator:layerName="path"/>
<path d="M662.078 800.228C661.541 800.916 653.099 833.568 643.317 872.789C633.13 913.633 624.843 944.909 623.92 945.996C621.705 948.343 618.307 949.15 615.274 948.048C613.975 947.451 612.812 946.596 611.855 945.534C610.971 944.469 608.534 906.659 601.582 783.152L617.499 782.793C621.039 843.787 623.178 877.748 623.53 878.1C624.267 878.837 624.816 878.776 625.358 877.898C625.785 877.207 631.209 856.359 637.411 831.568C646.639 794.683 649.082 786.175 650.859 784.736" fill="#ce6eff" fill-rule="nonzero" opacity="1" stroke="none" vectornator:layerName="path"/>
<path d="M500.786 798.978L447.047 798.965C417.491 798.957 392.286 798.677 391.037 798.342C389.722 797.99 385.743 793.714 381.591 788.19C366.613 768.261 348.231 751.262 334.119 744.287C327.031 740.785 325.764 740.486 318.36 740.571C312.122 740.642 308.205 741.377 300.97 743.831C282.156 750.214 250.984 767.915 222.001 788.672L208.308 798.478L132.808 798.778C79.8886 798.988 56.1734 798.748 53.5133 797.974C47.5723 796.247 45.9003 789.796 50.263 785.433L52.7175 782.978L203.079 782.978L211.694 776.6C224.11 767.406 242.628 755.23 255.215 747.983C286.87 729.756 311.816 722.205 327.922 725.974C347.811 730.628 367.991 745.693 388.463 771.171L397.941 782.978L452.31 782.978C484.171 782.978 507.711 783.371 509.173 783.927" fill="#11aad5" fill-rule="nonzero" opacity="1" stroke="none" vectornator:layerName="path"/>
</g>
<g opacity="1" vectornator:layerName="qt int">
<g opacity="1" vectornator:layerName="g">
<g opacity="1" vectornator:layerName="g">
<path d="M502.981 1033.34L502.981 1037.84" fill="none" opacity="1" stroke="#828b8c" stroke-linecap="butt" stroke-linejoin="miter" stroke-width="2.07296" vectornator:layerName="line"/>
<path d="M502.981 1045.91L502.981 1106.47" fill="none" opacity="1" stroke="#828b8c" stroke-dasharray="8.074426651000977" stroke-linecap="butt" stroke-linejoin="miter" stroke-width="2.07296" vectornator:layerName="line"/>
<path d="M502.981 1110.51L502.981 1115.01" fill="none" opacity="1" stroke="#828b8c" stroke-linecap="butt" stroke-linejoin="miter" stroke-width="2.07296" vectornator:layerName="line"/>
</g>
<g opacity="1" vectornator:layerName="g">
<path d="M991.266 828.622L991.266 833.122" fill="none" opacity="1" stroke="#828b8c" stroke-linecap="butt" stroke-linejoin="miter" stroke-width="2.07296" vectornator:layerName="line"/>
<path d="M991.266 842.07L991.266 1106.03" fill="none" opacity="1" stroke="#828b8c" stroke-dasharray="8.94787311553955" stroke-linecap="butt" stroke-linejoin="miter" stroke-width="2.07296" vectornator:layerName="line"/>
<path d="M991.266 1110.51L991.266 1115.01" fill="none" opacity="1" stroke="#828b8c" stroke-linecap="butt" stroke-linejoin="miter" stroke-width="2.07296" vectornator:layerName="line"/>
</g>
<g opacity="1" vectornator:layerName="g">
<path d="M520.204 1091.37L974.043 1091.37" fill="none" opacity="1" stroke="#2980b9" stroke-linecap="butt" stroke-linejoin="miter" stroke-width="9.6" vectornator:layerName="line"/>
<path d="M523.705 1103.33L502.981 1091.37L523.705 1079.4L523.705 1103.33Z" fill="#2980b9" fill-rule="nonzero" opacity="1" stroke="none" vectornator:layerName="polygon"/>
<path d="M970.542 1103.33L991.266 1091.37L970.542 1079.4L970.542 1103.33Z" fill="#2980b9" fill-rule="nonzero" opacity="1" stroke="none" vectornator:layerName="polygon"/>
</g>
</g>
<g fill="#2980b9" opacity="1" stroke="none" vectornator:layerName="text">
<path d="M695.95 1066.42L694.935 1067.65L692.629 1065.9C692.074 1066.2 691.473 1066.44 690.826 1066.63C690.18 1066.81 689.474 1066.9 688.709 1066.9C686.393 1066.9 684.579 1066.14 683.265 1064.63C682.107 1063.15 681.528 1061.3 681.528 1059.08C681.528 1057.06 682.029 1055.34 683.032 1053.9C684.318 1052.06 686.221 1051.14 688.739 1051.14C691.373 1051.14 693.323 1051.98 694.589 1053.68C695.578 1055 696.072 1056.69 696.072 1058.75C696.072 1059.71 695.954 1060.63 695.717 1061.52C695.358 1062.87 694.752 1063.98 693.899 1064.83L695.95 1066.42ZM688.953 1065.09C689.372 1065.09 689.765 1065.06 690.131 1065.01C690.496 1064.95 690.815 1064.84 691.085 1064.67L689.45 1063.39L690.466 1062.14L692.416 1063.65C693.032 1062.95 693.45 1062.16 693.67 1061.28C693.89 1060.41 694 1059.58 694 1058.78C694 1057.02 693.542 1055.61 692.624 1054.54C691.707 1053.47 690.452 1052.94 688.861 1052.94C687.25 1052.94 685.973 1053.45 685.032 1054.47C684.091 1055.5 683.621 1057.08 683.621 1059.21C683.621 1061.01 684.073 1062.44 684.976 1063.5C685.88 1064.56 687.206 1065.09 688.953 1065.09Z"/>
<path d="M709.336 1051.54L709.336 1053.32L704.309 1053.32L704.309 1066.46L702.257 1066.46L702.257 1053.32L697.23 1053.32L697.23 1051.54L709.336 1051.54Z"/>
<path d="M717.055 1051.54L719.096 1051.54L719.096 1066.46L717.055 1066.46L717.055 1051.54Z"/>
<path d="M722.133 1055.59L723.87 1055.59L723.87 1057.13C724.384 1056.49 724.929 1056.04 725.505 1055.76C726.08 1055.48 726.72 1055.34 727.424 1055.34C728.968 1055.34 730.011 1055.88 730.553 1056.96C730.851 1057.55 730.999 1058.39 730.999 1059.49L730.999 1066.46L729.141 1066.46L729.141 1059.61C729.141 1058.95 729.043 1058.41 728.846 1058C728.521 1057.33 727.932 1056.99 727.079 1056.99C726.646 1056.99 726.29 1057.03 726.013 1057.12C725.512 1057.27 725.072 1057.57 724.692 1058.01C724.388 1058.37 724.19 1058.74 724.098 1059.13C724.007 1059.51 723.961 1060.06 723.961 1060.77L723.961 1066.46L722.133 1066.46L722.133 1055.59Z"/>
<path d="M734.067 1052.55L735.915 1052.55L735.915 1055.59L737.652 1055.59L737.652 1057.08L735.915 1057.08L735.915 1064.18C735.915 1064.56 736.044 1064.81 736.301 1064.94C736.443 1065.02 736.68 1065.05 737.012 1065.05C737.1 1065.05 737.195 1065.05 737.296 1065.05C737.398 1065.04 737.516 1065.04 737.652 1065.02L737.652 1066.46C737.442 1066.53 737.224 1066.57 736.997 1066.6C736.77 1066.62 736.524 1066.64 736.26 1066.64C735.407 1066.64 734.828 1066.42 734.524 1065.98C734.219 1065.55 734.067 1064.98 734.067 1064.28L734.067 1057.08L732.594 1057.08L732.594 1055.59L734.067 1055.59L734.067 1052.55Z"/>
<path d="M744.01 1055.34C744.782 1055.34 745.53 1055.52 746.254 1055.89C746.979 1056.25 747.53 1056.72 747.91 1057.29C748.275 1057.84 748.519 1058.48 748.641 1059.21C748.749 1059.71 748.803 1060.51 748.803 1061.61L740.831 1061.61C740.865 1062.71 741.125 1063.6 741.613 1064.27C742.1 1064.93 742.855 1065.27 743.878 1065.27C744.832 1065.27 745.594 1064.95 746.163 1064.32C746.488 1063.96 746.718 1063.53 746.853 1063.05L748.651 1063.05C748.604 1063.45 748.446 1063.9 748.179 1064.39C747.911 1064.88 747.612 1065.28 747.28 1065.59C746.725 1066.13 746.037 1066.5 745.218 1066.69C744.778 1066.8 744.28 1066.85 743.725 1066.85C742.371 1066.85 741.223 1066.36 740.282 1065.37C739.341 1064.39 738.871 1063.01 738.871 1061.23C738.871 1059.49 739.345 1058.07 740.292 1056.98C741.24 1055.89 742.479 1055.34 744.01 1055.34ZM746.924 1060.16C746.85 1059.37 746.677 1058.73 746.407 1058.26C745.905 1057.38 745.069 1056.94 743.898 1056.94C743.058 1056.94 742.354 1057.24 741.785 1057.85C741.217 1058.45 740.915 1059.22 740.882 1060.16L746.924 1060.16Z"/>
<path d="M751.099 1055.59L752.835 1055.59L752.835 1057.47C752.978 1057.1 753.326 1056.66 753.882 1056.13C754.437 1055.61 755.077 1055.34 755.801 1055.34C755.835 1055.34 755.892 1055.35 755.974 1055.35C756.055 1055.36 756.194 1055.37 756.39 1055.39L756.39 1057.32C756.282 1057.3 756.182 1057.29 756.09 1057.28C755.999 1057.28 755.899 1057.27 755.791 1057.27C754.87 1057.27 754.162 1057.57 753.668 1058.16C753.174 1058.75 752.927 1059.44 752.927 1060.21L752.927 1066.46L751.099 1066.46L751.099 1055.59Z"/>
<path d="M758.868 1055.59L761.773 1064.44L764.81 1055.59L766.81 1055.59L762.707 1066.46L760.757 1066.46L756.746 1055.59L758.868 1055.59Z"/>
<path d="M769.776 1063.57C769.776 1064.1 769.969 1064.51 770.355 1064.82C770.741 1065.12 771.198 1065.28 771.726 1065.28C772.369 1065.28 772.992 1065.13 773.595 1064.83C774.61 1064.33 775.118 1063.53 775.118 1062.4L775.118 1060.93C774.895 1061.07 774.607 1061.19 774.255 1061.28C773.903 1061.38 773.558 1061.45 773.219 1061.49L772.112 1061.63C771.448 1061.72 770.951 1061.86 770.619 1062.05C770.057 1062.36 769.776 1062.87 769.776 1063.57ZM774.204 1059.87C774.624 1059.82 774.905 1059.64 775.047 1059.34C775.128 1059.18 775.169 1058.95 775.169 1058.64C775.169 1058.02 774.947 1057.57 774.504 1057.29C774.06 1057.01 773.426 1056.87 772.599 1056.87C771.645 1056.87 770.968 1057.12 770.568 1057.64C770.345 1057.92 770.199 1058.35 770.132 1058.91L768.425 1058.91C768.459 1057.57 768.894 1056.63 769.73 1056.11C770.567 1055.59 771.536 1055.32 772.64 1055.32C773.92 1055.32 774.959 1055.57 775.758 1056.05C776.55 1056.54 776.946 1057.3 776.946 1058.33L776.946 1064.6C776.946 1064.79 776.985 1064.94 777.063 1065.05C777.141 1065.17 777.305 1065.23 777.556 1065.23C777.637 1065.23 777.728 1065.22 777.83 1065.21C777.932 1065.2 778.04 1065.18 778.155 1065.16L778.155 1066.52C777.871 1066.6 777.654 1066.65 777.505 1066.67C777.356 1066.69 777.153 1066.7 776.896 1066.7C776.266 1066.7 775.809 1066.47 775.524 1066.03C775.376 1065.79 775.271 1065.46 775.21 1065.02C774.837 1065.51 774.302 1065.93 773.605 1066.29C772.908 1066.65 772.139 1066.83 771.299 1066.83C770.291 1066.83 769.466 1066.52 768.826 1065.91C768.187 1065.3 767.867 1064.53 767.867 1063.61C767.867 1062.6 768.182 1061.82 768.811 1061.26C769.441 1060.71 770.267 1060.37 771.289 1060.24L774.204 1059.87Z"/>
<path d="M779.993 1051.54L781.821 1051.54L781.821 1066.46L779.993 1066.46L779.993 1051.54Z"/>
</g>
</g>
<g opacity="1" vectornator:layerName="print">
<g opacity="1" vectornator:layerName="g">
<path d="M202.666 825.05L202.666 829.55" fill="none" opacity="1" stroke="#828b8c" stroke-linecap="butt" stroke-linejoin="miter" stroke-width="2.07296" vectornator:layerName="line"/>
<path d="M202.666 838.076L202.666 987.283" fill="none" opacity="1" stroke="#828b8c" stroke-dasharray="8.526113510131836" stroke-linecap="butt" stroke-linejoin="miter" stroke-width="2.07296" vectornator:layerName="line"/>
<path d="M202.666 991.546L202.666 996.046" fill="none" opacity="1" stroke="#828b8c" stroke-linecap="butt" stroke-linejoin="miter" stroke-width="2.07296" vectornator:layerName="line"/>
</g>
<g opacity="1" vectornator:layerName="g">
<path d="M503.38 826.335L503.38 830.835" fill="none" opacity="1" stroke="#828b8c" stroke-linecap="butt" stroke-linejoin="miter" stroke-width="2.07296" vectornator:layerName="line"/>
<path d="M503.38 840.289L503.38 986.819" fill="none" opacity="1" stroke="#828b8c" stroke-dasharray="9.453556060791016" stroke-linecap="butt" stroke-linejoin="miter" stroke-width="2.07296" vectornator:layerName="line"/>
<path d="M503.38 991.546L503.38 996.046" fill="none" opacity="1" stroke="#828b8c" stroke-linecap="butt" stroke-linejoin="miter" stroke-width="2.07296" vectornator:layerName="line"/>
</g>
<g fill="#f39c12" opacity="1" stroke="none" vectornator:layerName="text">
<path d="M288.386 937.072L295.1 937.072C296.427 937.072 297.497 937.446 298.309 938.194C299.122 938.942 299.528 939.994 299.528 941.348C299.528 942.512 299.166 943.526 298.441 944.39C297.717 945.253 296.603 945.684 295.1 945.684L290.408 945.684L290.408 951.991L288.386 951.991L288.386 937.072ZM297.486 941.358C297.486 940.261 297.08 939.516 296.268 939.123C295.821 938.914 295.208 938.809 294.429 938.809L290.408 938.809L290.408 943.978L294.429 943.978C295.337 943.978 296.073 943.785 296.638 943.399C297.204 943.013 297.486 942.333 297.486 941.358Z"/>
<path d="M309.004 943.907C309.952 943.907 310.701 943.717 311.253 943.338C311.805 942.959 312.081 942.275 312.081 941.287C312.081 940.224 311.695 939.499 310.923 939.113C310.51 938.91 309.958 938.809 309.268 938.809L304.332 938.809L304.332 943.907L309.004 943.907ZM302.311 937.072L309.217 937.072C310.354 937.072 311.292 937.238 312.03 937.57C313.432 938.206 314.133 939.381 314.133 941.094C314.133 941.988 313.948 942.719 313.579 943.288C313.21 943.856 312.694 944.313 312.03 944.659C312.612 944.896 313.051 945.207 313.345 945.593C313.64 945.979 313.804 946.605 313.838 947.472L313.909 949.473C313.929 950.041 313.977 950.465 314.051 950.742C314.173 951.216 314.39 951.521 314.701 951.656L314.701 951.991L312.223 951.991C312.155 951.863 312.101 951.697 312.061 951.494C312.02 951.291 311.986 950.898 311.959 950.316L311.837 947.827C311.79 946.852 311.428 946.199 310.751 945.867C310.365 945.684 309.759 945.593 308.933 945.593L304.332 945.593L304.332 951.991L302.311 951.991L302.311 937.072Z"/>
<path d="M323.324 937.072L325.365 937.072L325.365 951.991L323.324 951.991L323.324 937.072Z"/>
<path d="M328.402 941.114L330.139 941.114L330.139 942.658C330.653 942.021 331.198 941.564 331.774 941.287C332.349 941.009 332.989 940.87 333.693 940.87C335.237 940.87 336.28 941.409 336.822 942.485C337.12 943.074 337.268 943.917 337.268 945.014L337.268 951.991L335.41 951.991L335.41 945.136C335.41 944.472 335.312 943.938 335.115 943.531C334.79 942.854 334.201 942.516 333.348 942.516C332.915 942.516 332.559 942.56 332.282 942.648C331.781 942.797 331.341 943.095 330.961 943.541C330.657 943.9 330.459 944.271 330.367 944.654C330.276 945.036 330.23 945.583 330.23 946.294L330.23 951.991L328.402 951.991L328.402 941.114Z"/>
<path d="M340.336 938.077L342.184 938.077L342.184 941.114L343.921 941.114L343.921 942.607L342.184 942.607L342.184 949.706C342.184 950.085 342.313 950.339 342.57 950.468C342.712 950.542 342.949 950.58 343.281 950.58C343.369 950.58 343.464 950.578 343.565 950.575C343.667 950.571 343.785 950.563 343.921 950.549L343.921 951.991C343.711 952.052 343.493 952.096 343.266 952.123C343.039 952.151 342.793 952.164 342.529 952.164C341.676 952.164 341.097 951.946 340.793 951.509C340.488 951.072 340.336 950.505 340.336 949.808L340.336 942.607L338.863 942.607L338.863 941.114L340.336 941.114L340.336 938.077Z"/>
<path d="M350.279 940.87C351.051 940.87 351.799 941.051 352.523 941.414C353.248 941.776 353.799 942.245 354.179 942.82C354.544 943.369 354.788 944.009 354.91 944.74C355.018 945.241 355.072 946.04 355.072 947.137L347.1 947.137C347.134 948.24 347.394 949.126 347.882 949.793C348.369 950.46 349.124 950.793 350.147 950.793C351.101 950.793 351.863 950.478 352.432 949.848C352.757 949.483 352.987 949.06 353.122 948.579L354.92 948.579C354.873 948.978 354.715 949.424 354.448 949.915C354.18 950.405 353.881 950.807 353.549 951.118C352.994 951.66 352.306 952.025 351.487 952.215C351.047 952.323 350.549 952.377 349.994 952.377C348.64 952.377 347.492 951.885 346.551 950.9C345.61 949.915 345.14 948.535 345.14 946.761C345.14 945.014 345.614 943.596 346.561 942.506C347.509 941.415 348.748 940.87 350.279 940.87ZM353.193 945.684C353.119 944.892 352.946 944.259 352.676 943.785C352.174 942.905 351.338 942.465 350.167 942.465C349.327 942.465 348.623 942.768 348.054 943.374C347.486 943.98 347.184 944.75 347.151 945.684L353.193 945.684Z"/>
<path d="M357.368 941.114L359.104 941.114L359.104 942.993C359.247 942.627 359.595 942.182 360.151 941.657C360.706 941.133 361.346 940.87 362.07 940.87C362.104 940.87 362.161 940.874 362.243 940.881C362.324 940.887 362.463 940.901 362.659 940.921L362.659 942.851C362.551 942.831 362.451 942.817 362.359 942.81C362.268 942.803 362.168 942.8 362.06 942.8C361.139 942.8 360.432 943.096 359.937 943.689C359.443 944.281 359.196 944.963 359.196 945.735L359.196 951.991L357.368 951.991L357.368 941.114Z"/>
<path d="M365.137 941.114L368.042 949.97L371.079 941.114L373.079 941.114L368.976 951.991L367.026 951.991L363.015 941.114L365.137 941.114Z"/>
<path d="M376.045 949.097C376.045 949.625 376.238 950.041 376.624 950.346C377.01 950.651 377.467 950.803 377.995 950.803C378.638 950.803 379.261 950.654 379.864 950.356C380.879 949.862 381.387 949.053 381.387 947.929L381.387 946.456C381.164 946.598 380.876 946.717 380.524 946.812C380.172 946.907 379.827 946.974 379.488 947.015L378.381 947.157C377.717 947.245 377.22 947.384 376.888 947.573C376.326 947.892 376.045 948.4 376.045 949.097ZM380.473 945.4C380.893 945.346 381.174 945.17 381.316 944.872C381.397 944.709 381.438 944.476 381.438 944.171C381.438 943.548 381.216 943.096 380.773 942.815C380.329 942.534 379.695 942.394 378.868 942.394C377.914 942.394 377.237 942.651 376.837 943.166C376.614 943.45 376.468 943.873 376.401 944.435L374.694 944.435C374.728 943.095 375.163 942.162 375.999 941.637C376.836 941.112 377.805 940.85 378.909 940.85C380.189 940.85 381.228 941.094 382.027 941.581C382.819 942.069 383.215 942.827 383.215 943.856L383.215 950.123C383.215 950.312 383.254 950.465 383.332 950.58C383.41 950.695 383.574 950.752 383.825 950.752C383.906 950.752 383.997 950.747 384.099 950.737C384.201 950.727 384.309 950.712 384.424 950.691L384.424 952.042C384.14 952.123 383.923 952.174 383.774 952.195C383.625 952.215 383.422 952.225 383.165 952.225C382.535 952.225 382.078 952.002 381.793 951.555C381.645 951.318 381.54 950.983 381.479 950.549C381.106 951.037 380.571 951.46 379.874 951.819C379.177 952.178 378.408 952.357 377.568 952.357C376.56 952.357 375.735 952.051 375.095 951.438C374.456 950.825 374.136 950.058 374.136 949.138C374.136 948.129 374.451 947.347 375.08 946.791C375.71 946.236 376.536 945.894 377.558 945.766L380.473 945.4Z"/>
<path d="M386.262 937.072L388.09 937.072L388.09 951.991L386.262 951.991L386.262 937.072Z"/>
</g>
<g opacity="1" vectornator:layerName="g">
<path d="M219.889 976.142L485.147 976.142" fill="none" opacity="1" stroke="#f39c12" stroke-linecap="butt" stroke-linejoin="miter" stroke-width="9.6" vectornator:layerName="line"/>
<path d="M223.39 988.109L202.666 976.142L223.39 964.175L223.39 988.109Z" fill="#f39c12" fill-rule="nonzero" opacity="1" stroke="none" vectornator:layerName="polygon"/>
<path d="M481.645 988.109L502.37 976.142L481.645 964.175L481.645 988.109Z" fill="#f39c12" fill-rule="nonzero" opacity="1" stroke="none" vectornator:layerName="polygon"/>
</g>
</g>
<g opacity="1" vectornator:layerName="qrss">
<g opacity="1" vectornator:layerName="g">
<path d="M503.38 115.621L503.38 120.121" fill="none" opacity="1" stroke="#828b8c" stroke-linecap="butt" stroke-linejoin="miter" stroke-width="2.07296" vectornator:layerName="line"/>
<path d="M503.38 129.001L503.38 515.253" fill="none" opacity="1" stroke="#828b8c" stroke-dasharray="8.879363059997559" stroke-linecap="butt" stroke-linejoin="miter" stroke-width="2.07296" vectornator:layerName="line"/>
<path d="M503.38 519.693L503.38 524.193" fill="none" opacity="1" stroke="#828b8c" stroke-linecap="butt" stroke-linejoin="miter" stroke-width="2.07296" vectornator:layerName="line"/>
</g>
<g opacity="1" vectornator:layerName="g">
<path d="M653.38 114.193L653.38 118.693" fill="none" opacity="1" stroke="#828b8c" stroke-linecap="butt" stroke-linejoin="miter" stroke-width="2.07296" vectornator:layerName="line"/>
<path d="M653.38 127.604L653.38 515.237" fill="none" opacity="1" stroke="#828b8c" stroke-dasharray="8.91110897064209" stroke-linecap="butt" stroke-linejoin="miter" stroke-width="2.07296" vectornator:layerName="line"/>
<path d="M653.38 519.693L653.38 524.193" fill="none" opacity="1" stroke="#828b8c" stroke-linecap="butt" stroke-linejoin="miter" stroke-width="2.07296" vectornator:layerName="line"/>
</g>
<g fill="#c0392b" opacity="1" stroke="none" vectornator:layerName="tspan">
<path d="M540.213 128.624L539.198 129.853L536.892 128.096C536.337 128.401 535.736 128.644 535.09 128.827C534.443 129.01 533.737 129.101 532.972 129.101C530.656 129.101 528.842 128.343 527.528 126.826C526.37 125.35 525.792 123.502 525.792 121.281C525.792 119.263 526.293 117.537 527.295 116.101C528.581 114.26 530.484 113.339 533.003 113.339C535.636 113.339 537.586 114.185 538.853 115.878C539.841 117.198 540.335 118.888 540.335 120.946C540.335 121.907 540.217 122.832 539.98 123.719C539.621 125.073 539.015 126.176 538.162 127.03L540.213 128.624ZM533.216 127.294C533.636 127.294 534.028 127.265 534.394 127.207C534.76 127.15 535.078 127.036 535.349 126.867L533.713 125.587L534.729 124.338L536.679 125.851C537.295 125.147 537.713 124.359 537.933 123.485C538.153 122.612 538.263 121.775 538.263 120.976C538.263 119.223 537.805 117.811 536.887 116.741C535.97 115.672 534.716 115.137 533.124 115.137C531.513 115.137 530.237 115.65 529.295 116.675C528.354 117.701 527.884 119.28 527.884 121.413C527.884 123.207 528.336 124.636 529.24 125.699C530.144 126.762 531.469 127.294 533.216 127.294Z"/>
<path d="M549.679 120.58C550.627 120.58 551.377 120.391 551.929 120.012C552.48 119.632 552.756 118.949 552.756 117.96C552.756 116.897 552.37 116.173 551.599 115.787C551.186 115.584 550.634 115.482 549.943 115.482L545.007 115.482L545.007 120.58L549.679 120.58ZM542.986 113.745L549.892 113.745C551.03 113.745 551.968 113.911 552.706 114.243C554.107 114.879 554.808 116.054 554.808 117.767C554.808 118.661 554.623 119.392 554.254 119.961C553.885 120.53 553.369 120.987 552.706 121.332C553.288 121.569 553.726 121.88 554.021 122.266C554.315 122.652 554.48 123.279 554.513 124.145L554.585 126.146C554.605 126.715 554.652 127.138 554.727 127.416C554.849 127.89 555.065 128.194 555.377 128.33L555.377 128.665L552.899 128.665C552.831 128.536 552.777 128.37 552.736 128.167C552.695 127.964 552.662 127.571 552.635 126.989L552.513 124.501C552.465 123.526 552.103 122.872 551.426 122.541C551.04 122.358 550.434 122.266 549.608 122.266L545.007 122.266L545.007 128.665L542.986 128.665L542.986 113.745Z"/>
<path d="M559.084 123.851C559.131 124.697 559.331 125.384 559.683 125.912C560.353 126.901 561.535 127.395 563.228 127.395C563.986 127.395 564.676 127.287 565.299 127.07C566.505 126.65 567.107 125.899 567.107 124.816C567.107 124.003 566.853 123.424 566.345 123.079C565.831 122.74 565.025 122.446 563.928 122.195L561.907 121.738C560.587 121.44 559.653 121.112 559.104 120.753C558.156 120.13 557.682 119.199 557.682 117.96C557.682 116.619 558.146 115.519 559.074 114.659C560.001 113.799 561.315 113.369 563.014 113.369C564.578 113.369 565.907 113.747 567.001 114.502C568.094 115.257 568.641 116.464 568.641 118.123L566.742 118.123C566.64 117.324 566.423 116.711 566.092 116.284C565.475 115.506 564.429 115.116 562.953 115.116C561.762 115.116 560.905 115.367 560.384 115.868C559.862 116.369 559.602 116.951 559.602 117.615C559.602 118.346 559.906 118.881 560.516 119.219C560.915 119.436 561.819 119.707 563.228 120.032L565.32 120.509C566.329 120.74 567.107 121.054 567.656 121.454C568.604 122.151 569.078 123.163 569.078 124.491C569.078 126.143 568.477 127.324 567.275 128.035C566.073 128.746 564.676 129.101 563.085 129.101C561.23 129.101 559.778 128.628 558.728 127.68C557.679 126.738 557.164 125.462 557.185 123.851L559.084 123.851Z"/>
<path d="M577.924 113.339C579.813 113.339 581.279 113.837 582.321 114.832C583.364 115.827 583.943 116.958 584.058 118.224L582.088 118.224C581.864 117.263 581.419 116.501 580.752 115.939C580.085 115.377 579.149 115.096 577.944 115.096C576.475 115.096 575.288 115.612 574.384 116.645C573.48 117.677 573.028 119.26 573.028 121.393C573.028 123.14 573.436 124.557 574.252 125.643C575.068 126.73 576.285 127.273 577.903 127.273C579.393 127.273 580.527 126.701 581.306 125.557C581.719 124.954 582.027 124.162 582.23 123.18L584.2 123.18C584.024 124.751 583.442 126.068 582.453 127.131C581.268 128.411 579.67 129.051 577.66 129.051C575.926 129.051 574.47 128.526 573.292 127.476C571.742 126.088 570.967 123.946 570.967 121.048C570.967 118.847 571.549 117.043 572.713 115.634C573.973 114.104 575.71 113.339 577.924 113.339Z"/>
<path d="M590.731 127.487C591.943 127.487 592.774 127.028 593.224 126.11C593.674 125.193 593.899 124.172 593.899 123.048C593.899 122.033 593.737 121.207 593.412 120.57C592.897 119.568 592.01 119.067 590.751 119.067C589.634 119.067 588.821 119.494 588.313 120.347C587.806 121.2 587.552 122.229 587.552 123.434C587.552 124.592 587.806 125.557 588.313 126.329C588.821 127.101 589.627 127.487 590.731 127.487ZM590.802 117.473C592.203 117.473 593.388 117.94 594.356 118.874C595.325 119.809 595.809 121.183 595.809 122.998C595.809 124.751 595.382 126.2 594.529 127.344C593.676 128.489 592.352 129.061 590.558 129.061C589.062 129.061 587.873 128.555 586.993 127.543C586.113 126.53 585.673 125.171 585.673 123.465C585.673 121.637 586.137 120.181 587.064 119.098C587.992 118.014 589.238 117.473 590.802 117.473Z"/>
<path d="M597.982 117.787L599.79 117.787L599.79 119.331C600.223 118.796 600.616 118.407 600.968 118.163C601.571 117.75 602.255 117.544 603.02 117.544C603.886 117.544 604.584 117.757 605.112 118.184C605.41 118.427 605.681 118.786 605.924 119.26C606.331 118.678 606.808 118.246 607.356 117.965C607.905 117.684 608.521 117.544 609.205 117.544C610.667 117.544 611.663 118.072 612.191 119.128C612.475 119.697 612.617 120.462 612.617 121.423L612.617 128.665L610.718 128.665L610.718 121.109C610.718 120.384 610.537 119.886 610.175 119.616C609.813 119.345 609.371 119.209 608.849 119.209C608.132 119.209 607.514 119.45 606.996 119.93C606.478 120.411 606.219 121.213 606.219 122.337L606.219 128.665L604.36 128.665L604.36 121.566C604.36 120.828 604.272 120.289 604.096 119.951C603.819 119.443 603.301 119.189 602.542 119.189C601.852 119.189 601.224 119.456 600.658 119.991C600.093 120.526 599.81 121.494 599.81 122.896L599.81 128.665L597.982 128.665L597.982 117.787Z"/>
<path d="M619.899 127.436C620.753 127.436 621.462 127.079 622.027 126.364C622.592 125.65 622.875 124.582 622.875 123.16C622.875 122.293 622.75 121.549 622.499 120.926C622.025 119.727 621.159 119.128 619.899 119.128C618.633 119.128 617.767 119.761 617.299 121.027C617.049 121.704 616.924 122.564 616.924 123.607C616.924 124.447 617.049 125.161 617.299 125.75C617.773 126.874 618.64 127.436 619.899 127.436ZM615.167 117.838L616.944 117.838L616.944 119.28C617.31 118.786 617.709 118.404 618.142 118.133C618.758 117.726 619.483 117.523 620.316 117.523C621.548 117.523 622.594 117.996 623.454 118.94C624.314 119.885 624.744 121.234 624.744 122.987C624.744 125.357 624.124 127.05 622.885 128.066C622.1 128.709 621.186 129.03 620.143 129.03C619.324 129.03 618.637 128.851 618.081 128.492C617.756 128.289 617.394 127.94 616.995 127.446L616.995 133.001L615.167 133.001L615.167 117.838Z"/>
<path d="M626.928 113.745L628.756 113.745L628.756 128.665L626.928 128.665L626.928 113.745Z"/>
<path d="M636.028 117.544C636.799 117.544 637.548 117.725 638.272 118.087C638.997 118.449 639.548 118.918 639.928 119.494C640.293 120.042 640.537 120.682 640.659 121.413C640.767 121.914 640.821 122.713 640.821 123.81L632.849 123.81C632.882 124.914 633.143 125.799 633.631 126.466C634.118 127.133 634.873 127.466 635.895 127.466C636.85 127.466 637.612 127.151 638.181 126.522C638.506 126.156 638.736 125.733 638.871 125.252L640.669 125.252C640.622 125.652 640.464 126.097 640.197 126.588C639.929 127.079 639.63 127.48 639.298 127.791C638.743 128.333 638.055 128.699 637.236 128.888C636.796 128.997 636.298 129.051 635.743 129.051C634.389 129.051 633.241 128.558 632.3 127.573C631.359 126.588 630.888 125.208 630.888 123.434C630.888 121.687 631.362 120.269 632.31 119.179C633.258 118.089 634.497 117.544 636.028 117.544ZM638.942 122.358C638.868 121.566 638.695 120.932 638.424 120.459C637.923 119.578 637.087 119.138 635.916 119.138C635.076 119.138 634.372 119.441 633.803 120.047C633.235 120.653 632.933 121.423 632.899 122.358L638.942 122.358Z"/>
<path d="M642.03 117.787L644.396 117.787L646.895 121.616L649.424 117.787L651.648 117.838L647.981 123.089L651.81 128.665L649.474 128.665L646.773 124.582L644.153 128.665L641.837 128.665L645.666 123.089L642.03 117.787Z"/>
</g>
<g opacity="1" vectornator:layerName="g">
<path d="M520.603 150.621L635.751 150.621" fill="none" opacity="1" stroke="#c0392b" stroke-linecap="butt" stroke-linejoin="miter" stroke-width="9.6" vectornator:layerName="line"/>
<path d="M524.104 162.588L503.38 150.621L524.104 138.654L524.104 162.588Z" fill="#c0392b" fill-rule="nonzero" opacity="1" stroke="none" vectornator:layerName="polygon"/>
<path d="M632.249 162.588L652.974 150.621L632.249 138.654L632.249 162.588Z" fill="#c0392b" fill-rule="nonzero" opacity="1" stroke="none" vectornator:layerName="polygon"/>
</g>
</g>
<g opacity="1" vectornator:layerName="sts">
<g opacity="1" vectornator:layerName="g">
<path d="M803.38 585.406L803.38 589.906" fill="none" opacity="1" stroke="#828b8c" stroke-linecap="butt" stroke-linejoin="miter" stroke-width="2.07296" vectornator:layerName="line"/>
<path d="M803.38 599.347L803.38 745.686" fill="none" opacity="1" stroke="#828b8c" stroke-dasharray="9.441229820251465" stroke-linecap="butt" stroke-linejoin="miter" stroke-width="2.07296" vectornator:layerName="line"/>
<path d="M803.38 750.407L803.38 754.907" fill="none" opacity="1" stroke="#828b8c" stroke-linecap="butt" stroke-linejoin="miter" stroke-width="2.07296" vectornator:layerName="line"/>
</g>
<g opacity="1" vectornator:layerName="g">
<path d="M653.38 585.406L653.38 589.906" fill="none" opacity="1" stroke="#828b8c" stroke-linecap="butt" stroke-linejoin="miter" stroke-width="2.07296" vectornator:layerName="line"/>
<path d="M653.38 599.347L653.38 745.686" fill="none" opacity="1" stroke="#828b8c" stroke-dasharray="9.441229820251465" stroke-linecap="butt" stroke-linejoin="miter" stroke-width="2.07296" vectornator:layerName="line"/>
<path d="M653.38 750.407L653.38 754.907" fill="none" opacity="1" stroke="#828b8c" stroke-linecap="butt" stroke-linejoin="miter" stroke-width="2.07296" vectornator:layerName="line"/>
</g>
<g opacity="1" vectornator:layerName="g">
<path d="M728.094 552.165C728.176 553.75 727.441 555.266 726.146 556.183C724.427 557.221 722.43 557.707 720.426 557.574C718.549 557.673 716.682 557.252 715.03 556.355C713.716 555.526 712.805 554.188 712.517 552.66L716.135 552.064C716.314 552.917 716.832 553.662 717.57 554.126C718.48 554.601 719.502 554.822 720.528 554.768C723.143 554.768 724.45 553.972 724.45 552.381C724.467 551.92 724.306 551.47 724 551.124C723.644 550.757 723.21 550.475 722.731 550.299C721.705 549.953 720.654 549.685 719.588 549.499C718.645 549.295 717.713 549.043 716.795 548.743C716.3 548.567 715.824 548.342 715.373 548.072C714.963 547.824 714.598 547.508 714.294 547.138C713.988 546.756 713.754 546.321 713.603 545.856C713.429 545.31 713.345 544.74 713.355 544.167C713.282 542.698 713.97 541.295 715.177 540.454C716.771 539.495 718.62 539.045 720.477 539.165C722.206 539.054 723.932 539.414 725.473 540.206C726.647 540.995 727.43 542.246 727.624 543.647L723.993 544.142C723.851 543.438 723.445 542.816 722.858 542.403C722.115 541.969 721.259 541.766 720.401 541.819C718.133 541.819 716.999 542.53 716.998 543.951C716.981 544.363 717.109 544.768 717.361 545.094C717.653 545.427 718.021 545.686 718.433 545.849C719.371 546.187 720.334 546.448 721.315 546.63C722.57 546.863 723.804 547.201 725.003 547.64C725.649 547.89 726.245 548.255 726.761 548.718C727.194 549.131 727.532 549.634 727.751 550.191C727.99 550.821 728.107 551.491 728.094 552.165Z" fill="#8e44ad" fill-rule="nonzero" opacity="1" stroke="none" vectornator:layerName="path"/>
<path d="M738.923 542.326L738.923 557.32L735.178 557.32L735.178 542.326L729.402 542.326L729.402 539.432L744.712 539.432L744.712 542.326L738.923 542.326Z" fill="#8e44ad" fill-rule="nonzero" opacity="1" stroke="none" vectornator:layerName="path"/>
<path d="M689.805 579.165C689.887 580.75 689.152 582.266 687.857 583.183C686.138 584.221 684.141 584.707 682.137 584.574C680.26 584.673 678.393 584.252 676.741 583.355C675.427 582.526 674.516 581.188 674.228 579.66L677.846 579.064C678.025 579.917 678.543 580.662 679.28 581.126C680.191 581.601 681.213 581.822 682.238 581.768C684.854 581.768 686.161 580.972 686.161 579.381C686.178 578.92 686.017 578.47 685.711 578.124C685.355 577.757 684.921 577.475 684.442 577.299C683.416 576.953 682.365 576.685 681.299 576.499C680.356 576.295 679.424 576.043 678.506 575.743C678.011 575.567 677.535 575.342 677.084 575.072C676.674 574.824 676.309 574.508 676.005 574.138C675.699 573.756 675.465 573.321 675.314 572.856C675.14 572.31 675.056 571.74 675.066 571.167C674.993 569.698 675.681 568.295 676.888 567.454C678.482 566.495 680.331 566.045 682.188 566.165C683.917 566.054 685.643 566.414 687.184 567.206C688.358 567.995 689.14 569.246 689.335 570.647L685.704 571.142C685.562 570.438 685.156 569.816 684.569 569.403C683.825 568.969 682.97 568.766 682.112 568.819C679.844 568.819 678.71 569.53 678.709 570.951C678.692 571.363 678.82 571.768 679.072 572.094C679.364 572.427 679.732 572.686 680.144 572.849C681.082 573.187 682.045 573.448 683.026 573.63C684.281 573.863 685.515 574.201 686.714 574.64C687.36 574.89 687.956 575.255 688.472 575.718C688.905 576.131 689.243 576.634 689.462 577.191C689.701 577.821 689.817 578.491 689.805 579.165Z" fill="#8e44ad" fill-rule="nonzero" opacity="1" stroke="none" vectornator:layerName="path"/>
<path d="M698.26 584.574C696.481 584.687 694.742 584.017 693.499 582.74C692.294 581.227 691.7 579.317 691.836 577.388C691.71 575.493 692.314 573.621 693.525 572.157C694.781 570.886 696.526 570.219 698.311 570.329C700.044 570.224 701.723 570.952 702.83 572.29C703.982 573.975 704.533 575.999 704.392 578.035L704.392 578.137L695.581 578.137C695.509 579.199 695.769 580.257 696.324 581.165C696.81 581.842 697.606 582.226 698.438 582.187C699.529 582.305 700.542 581.609 700.824 580.549L704.189 580.841C703.216 583.329 701.24 584.574 698.26 584.574ZM698.26 572.576C697.511 572.536 696.788 572.863 696.324 573.452C695.829 574.171 695.578 575.03 695.607 575.903L700.939 575.903C700.943 575.007 700.663 574.133 700.139 573.408C699.675 572.854 698.981 572.547 698.26 572.576Z" fill="#8e44ad" fill-rule="nonzero" opacity="1" stroke="none" vectornator:layerName="path"/>
<path d="M712.847 589.829C711.436 589.895 710.035 589.563 708.804 588.87C707.811 588.272 707.125 587.275 706.918 586.135L710.486 585.716C710.592 586.233 710.883 586.694 711.305 587.011C711.787 587.343 712.364 587.508 712.948 587.481C713.778 587.551 714.59 587.209 715.119 586.567C715.631 585.757 715.872 584.805 715.805 583.85L715.805 583.126L715.83 581.768L715.805 581.768C715.013 583.458 713.245 584.469 711.387 584.294C709.922 584.36 708.523 583.682 707.667 582.491C705.893 579.267 705.908 575.356 707.705 572.145C708.634 570.914 710.115 570.229 711.653 570.317C713.422 570.179 715.086 571.171 715.805 572.792L715.868 572.792C715.868 572.496 715.888 572.094 715.926 571.586C715.942 571.249 715.982 570.914 716.046 570.583L719.423 570.583C719.372 571.497 719.347 572.555 719.347 573.757L719.347 583.901C719.467 585.55 718.859 587.168 717.684 588.331C716.315 589.417 714.59 589.951 712.847 589.829ZM715.83 577.261C715.894 576.11 715.632 574.964 715.075 573.954C714.629 573.194 713.804 572.739 712.923 572.767C711.019 572.767 710.067 574.29 710.067 577.337C710.067 580.325 711.01 581.818 712.898 581.819C713.786 581.851 714.621 581.396 715.075 580.632C715.637 579.601 715.898 578.433 715.83 577.261Z" fill="#8e44ad" fill-rule="nonzero" opacity="1" stroke="none" vectornator:layerName="path"/>
<path d="M731.065 584.32L731.065 576.614C731.065 574.201 730.371 572.995 728.983 572.995C728.238 573.01 727.561 573.435 727.225 574.1C726.738 574.971 726.503 575.96 726.545 576.956L726.545 584.32L722.978 584.32L722.978 573.656C722.978 572.919 722.967 572.316 722.947 571.847C722.925 571.376 722.902 570.955 722.876 570.583L726.279 570.583C726.304 570.744 726.338 571.173 726.38 571.872C726.423 572.57 726.444 573.05 726.444 573.313L726.494 573.313C726.823 572.415 727.392 571.624 728.139 571.028C728.827 570.544 729.653 570.294 730.493 570.317C732.362 570.136 734.044 571.455 734.315 573.313L734.391 573.313C734.734 572.411 735.313 571.617 736.067 571.015C736.801 570.525 737.673 570.281 738.555 570.317C739.736 570.246 740.878 570.755 741.614 571.681C742.388 572.835 742.758 574.212 742.668 575.598L742.668 584.32L739.126 584.32L739.126 576.614C739.126 574.201 738.432 572.995 737.044 572.995C736.336 573.003 735.685 573.388 735.337 574.005C734.845 574.85 734.592 575.813 734.607 576.791L734.607 584.32L731.065 584.32Z" fill="#8e44ad" fill-rule="nonzero" opacity="1" stroke="none" vectornator:layerName="path"/>
<path d="M751.72 584.574C749.941 584.687 748.202 584.017 746.959 582.74C745.754 581.227 745.16 579.317 745.296 577.388C745.17 575.493 745.774 573.621 746.985 572.157C748.241 570.886 749.986 570.219 751.771 570.329C753.504 570.224 755.183 570.952 756.29 572.29C757.442 573.975 757.992 575.999 757.852 578.035L757.852 578.137L749.041 578.137C748.969 579.199 749.229 580.257 749.784 581.165C750.27 581.842 751.066 582.226 751.898 582.187C752.988 582.305 754.002 581.609 754.284 580.549L757.649 580.841C756.676 583.329 754.7 584.574 751.72 584.574ZM751.72 572.576C750.971 572.536 750.248 572.863 749.784 573.452C749.289 574.171 749.038 575.03 749.067 575.903L754.399 575.903C754.403 575.007 754.123 574.133 753.599 573.408C753.135 572.854 752.441 572.547 751.72 572.576Z" fill="#8e44ad" fill-rule="nonzero" opacity="1" stroke="none" vectornator:layerName="path"/>
<path d="M769.455 584.32L769.455 576.614C769.455 574.201 768.639 572.995 767.005 572.995C766.165 572.983 765.376 573.402 764.917 574.107C764.358 574.949 764.08 575.946 764.123 576.956L764.123 584.32L760.556 584.32L760.556 573.656C760.556 572.919 760.545 572.316 760.525 571.847C760.503 571.376 760.48 570.955 760.454 570.583L763.857 570.583C763.882 570.744 763.916 571.173 763.958 571.872C764.001 572.57 764.022 573.05 764.022 573.313L764.072 573.313C764.449 572.394 765.078 571.602 765.888 571.028C766.667 570.54 767.572 570.292 768.49 570.317C769.753 570.237 770.985 570.731 771.842 571.662C772.695 572.79 773.11 574.188 773.01 575.598L773.01 584.32L769.455 584.32Z" fill="#8e44ad" fill-rule="nonzero" opacity="1" stroke="none" vectornator:layerName="path"/>
<path d="M779.954 584.548C779.063 584.606 778.186 584.296 777.529 583.691C776.911 582.974 776.605 582.039 776.679 581.095L776.679 572.995L774.94 572.995L774.94 570.583L776.857 570.583L777.974 567.359L780.208 567.359L780.208 570.583L782.811 570.583L782.811 572.995L780.208 572.995L780.208 580.13C780.167 580.652 780.301 581.172 780.589 581.609C780.885 581.945 781.323 582.122 781.77 582.085C782.173 582.068 782.573 582.008 782.963 581.908L782.963 584.117C781.989 584.418 780.974 584.564 779.954 584.548Z" fill="#8e44ad" fill-rule="nonzero" opacity="1" stroke="none" vectornator:layerName="path"/>
</g>
<g opacity="1" vectornator:layerName="g">
<path d="M670.603 609.406L786.157 609.406" fill="none" opacity="1" stroke="#8e44ad" stroke-linecap="butt" stroke-linejoin="miter" stroke-width="9.6" vectornator:layerName="line"/>
<path d="M674.104 621.373L653.38 609.406L674.104 597.439L674.104 621.373Z" fill="#8e44ad" fill-rule="nonzero" opacity="1" stroke="none" vectornator:layerName="polygon"/>
<path d="M782.655 621.373L803.38 609.406L782.655 597.439L782.655 621.373Z" fill="#8e44ad" fill-rule="nonzero" opacity="1" stroke="none" vectornator:layerName="polygon"/>
</g>
</g>
<g opacity="1" vectornator:layerName="prs">
<g opacity="1" vectornator:layerName="g">
<path d="M503.38 585.406L503.38 589.906" fill="#fddf19" fill-rule="nonzero" opacity="1" stroke="#828b8c" stroke-linecap="butt" stroke-linejoin="miter" stroke-width="2.07296" vectornator:layerName="line"/>
<path d="M503.38 599.095L503.38 741.527" fill="#fddf19" fill-rule="nonzero" opacity="1" stroke="#828b8c" stroke-dasharray="9.189128875732422" stroke-linecap="butt" stroke-linejoin="miter" stroke-width="2.07296" vectornator:layerName="line"/>
<path d="M503.38 746.121L503.38 750.621" fill="#fddf19" fill-rule="nonzero" opacity="1" stroke="#828b8c" stroke-linecap="butt" stroke-linejoin="miter" stroke-width="2.07296" vectornator:layerName="line"/>
</g>
<g opacity="1" vectornator:layerName="g">
<path d="M391.38 585.406L391.38 589.906" fill="#fddf19" fill-rule="nonzero" opacity="1" stroke="#828b8c" stroke-linecap="butt" stroke-linejoin="miter" stroke-width="2.07296" vectornator:layerName="line"/>
<path d="M391.38 599.116L391.38 741.873" fill="#fddf19" fill-rule="nonzero" opacity="1" stroke="#828b8c" stroke-dasharray="9.210136413574219" stroke-linecap="butt" stroke-linejoin="miter" stroke-width="2.07296" vectornator:layerName="line"/>
<path d="M391.38 746.478L391.38 750.978" fill="#fddf19" fill-rule="nonzero" opacity="1" stroke="#828b8c" stroke-linecap="butt" stroke-linejoin="miter" stroke-width="2.07296" vectornator:layerName="line"/>
</g>
<g opacity="1" vectornator:layerName="g">
<path d="M446.609 545.645C446.625 546.6 446.384 547.542 445.912 548.373C445.446 549.176 444.753 549.823 443.919 550.232C442.958 550.691 441.901 550.917 440.836 550.889L436.905 550.889L436.905 556.459L433.592 556.459L433.592 540.635L440.701 540.635C442.269 540.532 443.822 540.997 445.075 541.944C446.125 542.878 446.69 544.242 446.609 545.645ZM443.273 545.7C443.273 544.038 442.292 543.207 440.331 543.207L436.905 543.207L436.905 548.34L440.421 548.34C441.185 548.39 441.94 548.147 442.532 547.66C443.051 547.145 443.321 546.43 443.273 545.7Z" fill="#fddf19" fill-rule="nonzero" opacity="1" stroke="none" vectornator:layerName="path"/>
<path d="M459.804 556.459L456.132 550.451L452.246 550.451L452.246 556.459L448.933 556.459L448.933 540.635L456.84 540.635C458.392 540.536 459.931 540.966 461.208 541.854C462.253 542.705 462.825 544.006 462.747 545.352C462.771 546.388 462.438 547.402 461.803 548.222C461.165 549.033 460.263 549.595 459.254 549.811L463.533 556.459L459.804 556.459ZM459.411 545.487C459.411 543.967 458.438 543.207 456.491 543.207L452.246 543.207L452.246 547.879L456.581 547.879C457.338 547.933 458.089 547.71 458.693 547.25C459.185 546.8 459.449 546.153 459.411 545.487Z" fill="#fddf19" fill-rule="nonzero" opacity="1" stroke="none" vectornator:layerName="path"/>
<path d="M413.905 578.9C413.978 580.302 413.327 581.643 412.182 582.454C410.661 583.372 408.895 583.801 407.122 583.684C405.462 583.772 403.81 583.399 402.349 582.606C401.186 581.873 400.381 580.689 400.126 579.338L403.326 578.81C403.485 579.565 403.942 580.224 404.595 580.635C405.401 581.054 406.305 581.25 407.212 581.201C409.526 581.201 410.682 580.498 410.682 579.09C410.697 578.682 410.554 578.284 410.283 577.979C409.968 577.654 409.585 577.405 409.16 577.248C408.253 576.942 407.324 576.706 406.381 576.541C405.547 576.36 404.722 576.137 403.91 575.873C403.472 575.717 403.051 575.517 402.653 575.278C402.289 575.059 401.967 574.78 401.698 574.452C401.427 574.115 401.22 573.73 401.086 573.319C400.932 572.836 400.858 572.331 400.867 571.825C400.802 570.525 401.411 569.284 402.479 568.539C403.889 567.691 405.525 567.293 407.167 567.4C408.696 567.302 410.223 567.62 411.586 568.321C412.625 569.018 413.317 570.125 413.49 571.364L410.278 571.802C410.152 571.179 409.793 570.629 409.273 570.264C408.616 569.88 407.859 569.7 407.1 569.746C405.093 569.746 404.09 570.375 404.09 571.633C404.074 571.998 404.188 572.356 404.41 572.645C404.669 572.94 404.994 573.169 405.359 573.313C406.189 573.612 407.041 573.843 407.908 574.003C409.019 574.21 410.11 574.508 411.171 574.896C411.743 575.118 412.27 575.441 412.726 575.851C413.11 576.216 413.409 576.661 413.602 577.154C413.814 577.711 413.917 578.304 413.905 578.9Z" fill="#fddf19" fill-rule="nonzero" opacity="1" stroke="none" vectornator:layerName="path"/>
<path d="M421.385 583.684C419.811 583.784 418.273 583.191 417.174 582.061C416.107 580.723 415.582 579.034 415.702 577.327C415.591 575.651 416.125 573.995 417.196 572.7C418.308 571.575 419.851 570.986 421.43 571.083C422.963 570.99 424.449 571.635 425.428 572.819C426.447 574.309 426.934 576.099 426.809 577.901L426.809 577.99L419.015 577.99C418.951 578.93 419.181 579.865 419.672 580.668C420.102 581.267 420.806 581.607 421.542 581.573C422.507 581.677 423.404 581.062 423.654 580.123L426.63 580.382C425.769 582.583 424.021 583.684 421.385 583.684ZM421.385 573.071C420.722 573.035 420.083 573.324 419.672 573.846C419.234 574.482 419.012 575.242 419.038 576.014L423.755 576.014C423.759 575.222 423.511 574.449 423.047 573.807C422.637 573.317 422.023 573.045 421.385 573.071Z" fill="#fddf19" fill-rule="nonzero" opacity="1" stroke="none" vectornator:layerName="path"/>
<path d="M434.289 588.333C433.041 588.392 431.801 588.098 430.712 587.486C429.834 586.956 429.226 586.074 429.044 585.065L432.2 584.695C432.294 585.152 432.551 585.559 432.925 585.84C433.351 586.134 433.861 586.28 434.379 586.256C435.113 586.318 435.83 586.016 436.299 585.448C436.752 584.731 436.965 583.889 436.905 583.043L436.905 582.404L436.928 581.201L436.905 581.201C436.205 582.697 434.641 583.591 432.997 583.437C431.701 583.495 430.464 582.895 429.707 581.842C428.138 578.99 428.15 575.53 429.74 572.69C430.562 571.601 431.872 570.995 433.233 571.073C434.797 570.951 436.269 571.828 436.905 573.262L436.962 573.262C436.962 573 436.979 572.645 437.012 572.196C437.026 571.897 437.062 571.601 437.119 571.308L440.106 571.308C440.061 572.116 440.039 573.052 440.039 574.115L440.039 583.088C440.145 584.547 439.607 585.979 438.568 587.008C437.357 587.968 435.83 588.441 434.289 588.333ZM436.928 577.215C436.984 576.196 436.753 575.182 436.259 574.289C435.865 573.617 435.135 573.215 434.356 573.24C432.672 573.24 431.829 574.587 431.829 577.283C431.829 579.925 432.664 581.246 434.334 581.246C435.119 581.275 435.858 580.873 436.259 580.197C436.757 579.285 436.988 578.252 436.928 577.215Z" fill="#fddf19" fill-rule="nonzero" opacity="1" stroke="none" vectornator:layerName="path"/>
<path d="M450.404 583.459L450.404 576.643C450.404 574.508 449.791 573.441 448.563 573.442C447.904 573.455 447.306 573.83 447.007 574.418C446.577 575.189 446.369 576.064 446.406 576.946L446.406 583.459L443.251 583.459L443.251 574.026C443.251 573.374 443.241 572.841 443.223 572.425C443.204 572.01 443.183 571.637 443.161 571.308L446.171 571.308C446.193 571.45 446.223 571.83 446.26 572.448C446.298 573.066 446.317 573.491 446.317 573.723L446.362 573.723C446.652 572.929 447.155 572.229 447.816 571.701C448.424 571.273 449.155 571.053 449.899 571.073C451.553 570.913 453.04 572.079 453.279 573.723L453.347 573.723C453.65 572.925 454.162 572.222 454.829 571.69C455.479 571.256 456.25 571.04 457.03 571.073C458.075 571.01 459.085 571.46 459.737 572.28C460.421 573.3 460.749 574.518 460.669 575.744L460.669 583.459L457.536 583.459L457.536 576.643C457.536 574.508 456.922 573.441 455.694 573.442C455.067 573.448 454.492 573.789 454.184 574.334C453.748 575.082 453.525 575.934 453.538 576.799L453.538 583.459L450.404 583.459Z" fill="#fddf19" fill-rule="nonzero" opacity="1" stroke="none" vectornator:layerName="path"/>
<path d="M468.676 583.684C467.103 583.784 465.564 583.191 464.465 582.061C463.398 580.723 462.873 579.034 462.994 577.327C462.882 575.651 463.417 573.995 464.487 572.7C465.599 571.575 467.143 570.986 468.721 571.083C470.255 570.99 471.741 571.635 472.719 572.819C473.739 574.309 474.225 576.099 474.101 577.901L474.101 577.99L466.307 577.99C466.243 578.93 466.472 579.865 466.964 580.668C467.393 581.267 468.097 581.607 468.834 581.573C469.799 581.677 470.696 581.062 470.945 580.123L473.921 580.382C473.06 582.583 471.312 583.684 468.676 583.684ZM468.676 573.071C468.013 573.035 467.374 573.324 466.964 573.846C466.526 574.482 466.304 575.242 466.329 576.014L471.046 576.014C471.05 575.222 470.802 574.449 470.339 573.807C469.929 573.317 469.315 573.045 468.676 573.071Z" fill="#fddf19" fill-rule="nonzero" opacity="1" stroke="none" vectornator:layerName="path"/>
<path d="M484.365 583.459L484.365 576.643C484.365 574.508 483.643 573.441 482.198 573.442C481.454 573.431 480.757 573.801 480.351 574.424C479.856 575.169 479.611 576.052 479.649 576.946L479.649 583.459L476.493 583.459L476.493 574.026C476.493 573.374 476.484 572.841 476.465 572.425C476.446 572.01 476.425 571.637 476.403 571.308L479.413 571.308C479.435 571.45 479.465 571.83 479.503 572.448C479.54 573.066 479.559 573.491 479.559 573.723L479.604 573.723C479.936 572.91 480.493 572.209 481.21 571.701C481.898 571.269 482.699 571.05 483.512 571.073C484.629 571.002 485.718 571.439 486.477 572.262C487.231 573.26 487.598 574.497 487.51 575.744L487.51 583.459L484.365 583.459Z" fill="#fddf19" fill-rule="nonzero" opacity="1" stroke="none" vectornator:layerName="path"/>
<path d="M493.653 583.661C492.864 583.713 492.089 583.439 491.508 582.904C490.961 582.269 490.69 581.442 490.756 580.607L490.756 573.442L489.217 573.442L489.217 571.308L490.913 571.308L491.901 568.455L493.878 568.455L493.878 571.308L496.18 571.308L496.18 573.442L493.878 573.442L493.878 579.753C493.841 580.215 493.96 580.675 494.215 581.062C494.477 581.359 494.864 581.515 495.259 581.483C495.615 581.467 495.969 581.414 496.315 581.325L496.315 583.28C495.453 583.547 494.555 583.675 493.653 583.661Z" fill="#fddf19" fill-rule="nonzero" opacity="1" stroke="none" vectornator:layerName="path"/>
</g>
<g opacity="1" vectornator:layerName="g">
<path d="M408.775 609.143L486.157 608.713" fill="#fddf19" fill-rule="nonzero" opacity="1" stroke="#fddf19" stroke-linecap="butt" stroke-linejoin="miter" stroke-width="9.6" vectornator:layerName="line"/>
<path d="M412.343 621.09L391.553 609.238L412.21 597.156L412.343 621.09Z" fill="#fddf19" fill-rule="nonzero" opacity="1" stroke="none" vectornator:layerName="polygon"/>
<path d="M482.722 620.7L503.38 608.618L482.589 596.766L482.722 620.7Z" fill="#fddf19" fill-rule="nonzero" opacity="1" stroke="none" vectornator:layerName="polygon"/>
</g>
</g>
<path d="M311.929 659.364L326.388 659.364C329.246 659.364 331.55 660.17 333.3 661.781C335.05 663.393 335.925 665.657 335.925 668.574C335.925 671.082 335.145 673.266 333.585 675.125C332.024 676.984 329.625 677.914 326.388 677.914L316.282 677.914L316.282 691.499L311.929 691.499L311.929 659.364ZM331.529 668.595C331.529 666.233 330.654 664.629 328.904 663.783C327.941 663.331 326.621 663.105 324.944 663.105L316.282 663.105L316.282 674.239L324.944 674.239C326.898 674.239 328.484 673.824 329.702 672.992C330.92 672.161 331.529 670.695 331.529 668.595Z" fill="#11aad5" opacity="1" stroke="none" vectornator:layerName="text"/>
<path d="M552.947 935.012L550.759 937.659L545.794 933.875C544.598 934.531 543.303 935.056 541.911 935.45C540.518 935.843 538.998 936.04 537.35 936.04C532.362 936.04 528.454 934.407 525.625 931.14C523.131 927.961 521.884 923.98 521.884 919.196C521.884 914.851 522.963 911.132 525.122 908.04C527.893 904.074 531.99 902.09 537.415 902.09C543.088 902.09 547.288 903.913 550.015 907.559C552.145 910.403 553.209 914.041 553.209 918.475C553.209 920.545 552.954 922.536 552.444 924.446C551.671 927.363 550.365 929.74 548.528 931.578L552.947 935.012ZM537.875 932.146C538.779 932.146 539.625 932.085 540.412 931.961C541.2 931.837 541.885 931.592 542.469 931.228L538.947 928.471L541.134 925.781L545.334 929.04C546.661 927.524 547.562 925.825 548.036 923.943C548.51 922.062 548.747 920.261 548.747 918.54C548.747 914.763 547.759 911.723 545.783 909.418C543.807 907.114 541.105 905.962 537.678 905.962C534.207 905.962 531.458 907.067 529.431 909.276C527.404 911.486 526.39 914.887 526.39 919.481C526.39 923.345 527.364 926.423 529.311 928.712C531.258 931.002 534.112 932.146 537.875 932.146Z" fill="#60cf4d" opacity="1" stroke="none" vectornator:layerName="text"/>
<path d="M580.388 210.618C582.43 210.618 584.045 210.21 585.233 209.393C586.422 208.577 587.016 207.104 587.016 204.975C587.016 202.685 586.185 201.125 584.523 200.293C583.633 199.856 582.444 199.637 580.957 199.637L570.326 199.637L570.326 210.618L580.388 210.618ZM565.973 195.897L580.848 195.897C583.298 195.897 585.317 196.254 586.907 196.968C589.926 198.339 591.435 200.87 591.435 204.559C591.435 206.484 591.038 208.059 590.243 209.284C589.448 210.509 588.336 211.493 586.907 212.237C588.161 212.748 589.105 213.418 589.74 214.25C590.374 215.081 590.728 216.43 590.801 218.297L590.954 222.606C590.998 223.831 591.1 224.742 591.26 225.34C591.523 226.361 591.989 227.017 592.66 227.309L592.66 228.031L587.323 228.031C587.177 227.754 587.06 227.397 586.973 226.959C586.885 226.522 586.812 225.676 586.754 224.422L586.491 219.062C586.389 216.962 585.609 215.555 584.151 214.84C583.319 214.447 582.014 214.25 580.235 214.25L570.326 214.25L570.326 228.031L565.973 228.031L565.973 195.897Z" fill="#ee4d52" opacity="1" stroke="none" vectornator:layerName="text"/>
<path d="M608.617 1004.86C608.719 1006.68 609.149 1008.16 609.907 1009.3C611.351 1011.43 613.896 1012.5 617.542 1012.5C619.175 1012.5 620.663 1012.26 622.004 1011.8C624.6 1010.89 625.898 1009.27 625.898 1006.94C625.898 1005.19 625.351 1003.94 624.257 1003.2C623.149 1002.47 621.414 1001.83 619.051 1001.3L614.698 1000.31C611.854 999.669 609.842 998.962 608.661 998.189C606.619 996.847 605.598 994.842 605.598 992.173C605.598 989.286 606.597 986.916 608.595 985.064C610.593 983.212 613.422 982.286 617.082 982.286C620.451 982.286 623.313 983.099 625.668 984.725C628.024 986.351 629.201 988.951 629.201 992.523L625.111 992.523C624.892 990.803 624.425 989.483 623.711 988.564C622.383 986.887 620.13 986.048 616.951 986.048C614.384 986.048 612.54 986.588 611.417 987.667C610.294 988.746 609.732 990.001 609.732 991.43C609.732 993.005 610.389 994.157 611.701 994.886C612.562 995.353 614.508 995.936 617.542 996.636L622.048 997.664C624.221 998.16 625.898 998.838 627.079 999.698C629.121 1001.2 630.142 1003.38 630.142 1006.24C630.142 1009.8 628.848 1012.34 626.259 1013.87C623.67 1015.4 620.663 1016.17 617.236 1016.17C613.24 1016.17 610.112 1015.15 607.851 1013.11C605.591 1011.08 604.482 1008.33 604.526 1004.86L608.617 1004.86Z" fill="#ce6eff" opacity="1" stroke="none" vectornator:layerName="text"/>
<path d="M928.464 630.262L928.464 634.09L917.635 634.09L917.635 662.396L913.217 662.396L913.217 634.09L902.389 634.09L902.389 630.262L928.464 630.262Z" fill="#11aad5" opacity="1" stroke="none" vectornator:layerName="text"/>
<g opacity="1" vectornator:layerName="g">
<path d="M292.287 673.136C292.287 655.507 306.578 641.216 324.207 641.216C341.836 641.216 356.127 655.507 356.127 673.136C356.127 690.765 341.836 705.056 324.207 705.056C306.578 705.056 292.287 690.765 292.287 673.136Z" fill="none" opacity="1" stroke="#879394" stroke-linecap="butt" stroke-linejoin="miter" stroke-width="2.07296" vectornator:layerName="circle"/>
<path d="M509.967 920.331C509.967 902.702 524.258 888.411 541.887 888.411C559.516 888.411 573.807 902.702 573.807 920.331C573.807 937.96 559.516 952.251 541.887 952.251C524.258 952.251 509.967 937.96 509.967 920.331Z" fill="none" opacity="1" stroke="#879394" stroke-linecap="butt" stroke-linejoin="miter" stroke-width="2.07296" vectornator:layerName="circle"/>
<path d="M588.207 996.046C588.207 978.417 602.498 964.126 620.127 964.126C637.756 964.126 652.047 978.417 652.047 996.046C652.047 1013.67 637.756 1027.97 620.127 1027.97C602.498 1027.97 588.207 1013.67 588.207 996.046Z" fill="none" opacity="1" stroke="#879394" stroke-linecap="butt" stroke-linejoin="miter" stroke-width="2.07296" vectornator:layerName="circle"/>
<path d="M885.567 641.086C885.567 623.457 899.858 609.166 917.487 609.166C935.116 609.166 949.407 623.457 949.407 641.086C949.407 658.715 935.116 673.006 917.487 673.006C899.858 673.006 885.567 658.715 885.567 641.086Z" fill="none" opacity="1" stroke="#879394" stroke-linecap="butt" stroke-linejoin="miter" stroke-width="2.07296" vectornator:layerName="circle"/>
<path d="M548.976 211.246C548.976 193.617 563.267 179.326 580.896 179.326C598.525 179.326 612.816 193.617 612.816 211.246C612.816 228.875 598.525 243.166 580.896 243.166C563.267 243.166 548.976 228.875 548.976 211.246Z" fill="none" opacity="1" stroke="#879394" stroke-linecap="butt" stroke-linejoin="miter" stroke-width="2.07296" vectornator:layerName="circle"/>
</g>
</g>
<g opacity="1" vectornator:layerName="legend">
<g opacity="1" vectornator:layerName="g">
<path d="M94.8205 67.9524C94.9176 70.5682 94.1577 73.1441 92.6564 75.2884C91.1982 77.2513 89.0421 78.5797 86.633 78.9993C86.8849 79.8816 87.4067 80.663 88.1252 81.2337C88.9305 81.737 89.8725 81.9773 90.8205 81.9212C91.4435 81.9204 92.0654 81.8681 92.6799 81.7649L92.6486 84.9212C91.4079 85.2045 90.14 85.3512 88.8674 85.3587C87.3347 85.4154 85.8342 84.9097 84.6486 83.9368C83.3299 82.6456 82.399 81.011 81.9611 79.2181C79.2873 79.0838 76.7866 77.8547 75.0471 75.8196C73.3197 73.5721 72.4475 70.7837 72.5861 67.9524C72.5861 64.4212 73.5653 61.666 75.5236 59.6868C77.4816 57.7078 80.2056 56.7182 83.6955 56.7181C87.1848 56.7181 89.9113 57.718 91.8752 59.7181C93.8381 61.7181 94.8199 64.4628 94.8205 67.9524ZM90.1174 67.9524C90.2347 65.9493 89.6366 63.9696 88.4299 62.3665C87.2517 60.9933 85.5022 60.2456 83.6955 60.3431C81.8773 60.2385 80.1127 60.9795 78.9143 62.3509C77.7031 63.9577 77.1047 65.9439 77.2268 67.9524C77.1111 70.0013 77.7195 72.0256 78.9455 73.6712C80.1015 75.0725 81.8496 75.8481 83.6643 75.7649C85.4852 75.8698 87.2507 75.1185 88.4377 73.7337C89.6562 72.0622 90.2506 70.0166 90.1174 67.9524Z" fill="#60cf4d" fill-rule="nonzero" opacity="1" stroke="none" vectornator:layerName="path"/>
<path d="M123.399 79.0618L120.133 79.0618L117.18 67.1087L116.617 64.4681C116.524 64.9368 116.378 65.6113 116.18 66.4915C115.982 67.3719 114.919 71.562 112.992 79.0618L109.742 79.0618L105.008 62.1555L107.789 62.1555L110.649 73.6399C110.721 73.8899 110.945 74.9212 111.32 76.7337L111.586 75.5774L115.117 62.1555L118.133 62.1555L121.086 73.7649L121.805 76.7337L122.289 74.5618L125.492 62.1555L128.242 62.1555L123.399 79.0618Z" fill="#60cf4d" fill-rule="nonzero" opacity="1" stroke="none" vectornator:layerName="path"/>
<path d="M134.633 79.3743C133.225 79.4813 131.837 78.994 130.805 78.0306C129.908 77.0187 129.447 75.6932 129.524 74.3431C129.432 72.8024 130.072 71.3086 131.25 70.3118C132.401 69.3743 134.257 68.8743 136.821 68.8118L140.617 68.7493L140.617 67.8274C140.718 66.7669 140.405 65.7085 139.742 64.8743C138.983 64.2184 137.992 63.8972 136.992 63.9837C136.031 63.9071 135.071 64.131 134.242 64.6243C133.626 65.1315 133.252 65.8744 133.211 66.6712L130.274 66.4056C130.752 63.364 133.013 61.8432 137.055 61.8431C138.78 61.7141 140.491 62.2353 141.852 63.304C142.978 64.411 143.566 65.9545 143.461 67.5306L143.461 74.8118C143.425 75.4562 143.537 76.1003 143.789 76.6946C144.042 77.1362 144.534 77.3849 145.039 77.3274C145.35 77.323 145.658 77.2864 145.961 77.2181L145.961 78.9681C145.249 79.135 144.52 79.2189 143.789 79.2181C142.947 79.2945 142.115 78.9941 141.516 78.3977C140.974 77.6519 140.691 76.7491 140.711 75.8274L140.617 75.8274C140.051 76.9559 139.183 77.9051 138.11 78.5696C137.04 79.134 135.842 79.4112 134.633 79.3743ZM135.274 77.2649C136.237 77.2824 137.187 77.0395 138.024 76.5618C138.818 76.1005 139.474 75.434 139.922 74.6321C140.371 73.8665 140.611 72.9962 140.617 72.1087L140.617 70.7181L137.539 70.7806C136.522 70.7566 135.506 70.8937 134.531 71.1868C133.9 71.3988 133.351 71.8032 132.961 72.343C132.571 72.9523 132.38 73.6675 132.414 74.3899C132.364 75.1695 132.632 75.936 133.156 76.5149C133.729 77.0447 134.495 77.3158 135.274 77.2649Z" fill="#60cf4d" fill-rule="nonzero" opacity="1" stroke="none" vectornator:layerName="path"/>
<path d="M155.539 79.0618L152.211 79.0618L146.071 62.1556L149.071 62.1556L152.789 73.1556C152.924 73.5726 153.283 74.8069 153.867 76.8587L154.414 75.0306L155.024 73.1868L158.867 62.1556L161.852 62.1556L155.539 79.0618Z" fill="#60cf4d" fill-rule="nonzero" opacity="1" stroke="none" vectornator:layerName="path"/>
<path d="M166.274 71.2024C166.173 72.7886 166.596 74.3638 167.477 75.6868C168.318 76.7583 169.632 77.3482 170.992 77.2649C172.02 77.3152 173.04 77.0596 173.922 76.5305C174.613 76.095 175.139 75.4404 175.414 74.6712L177.883 75.3743C176.872 78.0413 174.575 79.3746 170.992 79.3743C168.851 79.5192 166.756 78.6998 165.281 77.1399C163.974 75.6506 163.32 73.4371 163.321 70.4993C163.321 67.7078 163.974 65.5672 165.281 64.0774C166.72 62.5319 168.776 61.712 170.883 61.8431C175.852 61.8431 178.336 64.8378 178.336 70.8274L178.336 71.2024L166.274 71.2024ZM175.43 69.0462C175.41 67.6339 174.933 66.2661 174.071 65.1477C173.221 64.2899 172.041 63.8425 170.836 63.9212C169.604 63.8644 168.413 64.3668 167.594 65.2884C166.742 66.3536 166.286 67.682 166.305 69.0462L175.43 69.0462Z" fill="#60cf4d" fill-rule="nonzero" opacity="1" stroke="none" vectornator:layerName="path"/>
<path d="M88.5393 115.062L83.4299 106.702L78.0236 106.702L78.0236 115.062L73.4143 115.062L73.4143 93.0462L84.4143 93.0462C86.5736 92.9092 88.7157 93.5067 90.4924 94.7415C91.9452 95.9267 92.7414 97.7369 92.633 99.6087C92.6662 101.051 92.2028 102.46 91.3205 103.601C90.4324 104.729 89.1777 105.511 87.7736 105.812L93.7267 115.062L88.5393 115.062ZM87.9924 99.7962C87.9924 97.6819 86.6382 96.6246 83.9299 96.6243L78.0236 96.6243L78.0236 103.124L84.0549 103.124C85.1079 103.2 86.1522 102.888 86.9924 102.249C87.6773 101.623 88.0445 100.723 87.9924 99.7962Z" fill="#ee4d52" fill-rule="nonzero" opacity="1" stroke="none" vectornator:layerName="path"/>
<path d="M121.617 115.062L118.352 115.062L115.399 103.109L114.836 100.468C114.742 100.937 114.597 101.611 114.399 102.491C114.2 103.372 113.138 107.562 111.211 115.062L107.961 115.062L103.227 98.1556L106.008 98.1556L108.867 109.64C108.94 109.89 109.164 110.921 109.539 112.734L109.805 111.577L113.336 98.1556L116.352 98.1556L119.305 109.765L120.024 112.734L120.508 110.562L123.711 98.1556L126.461 98.1556L121.617 115.062Z" fill="#ee4d52" fill-rule="nonzero" opacity="1" stroke="none" vectornator:layerName="path"/>
<path d="M132.852 115.374C131.444 115.481 130.056 114.994 129.024 114.031C128.127 113.019 127.666 111.693 127.742 110.343C127.651 108.802 128.291 107.309 129.469 106.312C130.619 105.374 132.476 104.874 135.039 104.812L138.836 104.749L138.836 103.827C138.937 102.767 138.624 101.709 137.961 100.874C137.202 100.218 136.21 99.8972 135.211 99.9837C134.25 99.9071 133.289 100.131 132.461 100.624C131.845 101.132 131.471 101.874 131.43 102.671L128.492 102.406C128.971 99.364 131.231 97.8432 135.274 97.8431C136.999 97.7141 138.71 98.2353 140.071 99.304C141.197 100.411 141.785 101.954 141.68 103.531L141.68 110.812C141.644 111.456 141.756 112.1 142.008 112.695C142.261 113.136 142.752 113.385 143.258 113.327C143.568 113.323 143.877 113.286 144.18 113.218L144.18 114.968C143.468 115.135 142.739 115.219 142.008 115.218C141.166 115.295 140.334 114.994 139.735 114.398C139.193 113.652 138.91 112.749 138.93 111.827L138.836 111.827C138.27 112.956 137.402 113.905 136.328 114.57C135.259 115.134 134.061 115.411 132.852 115.374ZM133.492 113.265C134.456 113.282 135.406 113.04 136.242 112.562C137.037 112.101 137.693 111.434 138.141 110.632C138.59 109.866 138.83 108.996 138.836 108.109L138.836 106.718L135.758 106.781C134.74 106.757 133.725 106.894 132.75 107.187C132.119 107.399 131.57 107.803 131.18 108.343C130.79 108.952 130.599 109.667 130.633 110.39C130.583 111.169 130.851 111.936 131.375 112.515C131.948 113.045 132.714 113.316 133.492 113.265Z" fill="#ee4d52" fill-rule="nonzero" opacity="1" stroke="none" vectornator:layerName="path"/>
<path d="M153.758 115.062L150.43 115.062L144.289 98.1556L147.289 98.1556L151.008 109.156C151.143 109.573 151.502 110.807 152.086 112.859L152.633 111.031L153.242 109.187L157.086 98.1556L160.071 98.1556L153.758 115.062Z" fill="#ee4d52" fill-rule="nonzero" opacity="1" stroke="none" vectornator:layerName="path"/>
<path d="M164.492 107.202C164.392 108.789 164.815 110.364 165.696 111.687C166.537 112.758 167.851 113.348 169.211 113.265C170.239 113.315 171.258 113.06 172.141 112.531C172.832 112.095 173.357 111.44 173.633 110.671L176.102 111.374C175.091 114.041 172.794 115.375 169.211 115.374C167.069 115.519 164.975 114.7 163.5 113.14C162.193 111.651 161.539 109.437 161.539 106.499C161.539 103.708 162.193 101.567 163.5 100.077C164.939 98.5319 166.994 97.712 169.102 97.843C174.071 97.843 176.555 100.838 176.555 106.827L176.555 107.202L164.492 107.202ZM173.649 105.046C173.629 103.634 173.152 102.266 172.289 101.148C171.44 100.29 170.26 99.8425 169.055 99.9212C167.823 99.8644 166.632 100.367 165.813 101.288C164.96 102.354 164.505 103.682 164.524 105.046L173.649 105.046Z" fill="#ee4d52" fill-rule="nonzero" opacity="1" stroke="none" vectornator:layerName="path"/>
<path d="M91.3674 144.718C91.4679 146.669 90.5628 148.535 88.9689 149.663C87.3693 150.804 85.023 151.374 81.9299 151.374C79.6203 151.498 77.3217 150.978 75.2893 149.874C73.6707 148.855 72.5498 147.207 72.1955 145.327L76.6486 144.593C76.8686 145.644 77.5058 146.56 78.4143 147.132C79.5354 147.716 80.7926 147.988 82.0549 147.921C85.2736 147.921 86.883 146.942 86.883 144.984C86.9035 144.416 86.7049 143.862 86.3283 143.437C85.8902 142.985 85.3562 142.638 84.7658 142.421C83.5038 141.995 82.2109 141.666 80.8986 141.437C79.7377 141.186 78.5904 140.875 77.4611 140.507C76.8516 140.29 76.2653 140.013 75.7111 139.679C75.2057 139.375 74.7564 138.987 74.383 138.531C74.0059 138.06 73.7174 137.526 73.5315 136.952C73.3181 136.281 73.2152 135.579 73.2268 134.874C73.137 133.066 73.9842 131.34 75.469 130.304C76.9631 129.247 79.1376 128.718 81.9924 128.718C84.12 128.582 86.2447 129.025 88.1409 129.999C89.5859 130.97 90.5491 132.51 90.7893 134.234L86.3206 134.843C86.1451 133.977 85.6447 133.211 84.9221 132.702C84.0076 132.169 82.9554 131.919 81.8987 131.984C79.1067 131.984 77.7108 132.859 77.7112 134.609C77.6895 135.115 77.8472 135.613 78.1565 136.015C78.5164 136.425 78.9691 136.744 79.4768 136.945C80.631 137.361 81.8172 137.682 83.0237 137.906C84.5685 138.193 86.0867 138.609 87.5627 139.148C88.3584 139.456 89.0916 139.906 89.7268 140.476C90.2601 140.984 90.676 141.603 90.9456 142.288C91.2397 143.064 91.3829 143.889 91.3674 144.718Z" fill="#ce6eff" fill-rule="nonzero" opacity="1" stroke="none" vectornator:layerName="path"/>
<path d="M119.852 151.062L116.586 151.062L113.633 139.109L113.07 136.468C112.977 136.937 112.831 137.611 112.633 138.491C112.435 139.372 111.372 143.562 109.445 151.062L106.195 151.062L101.461 134.156L104.242 134.156L107.102 145.64C107.174 145.89 107.398 146.921 107.774 148.734L108.039 147.577L111.57 134.156L114.586 134.156L117.539 145.765L118.258 148.734L118.742 146.562L121.945 134.156L124.695 134.156L119.852 151.062Z" fill="#ce6eff" fill-rule="nonzero" opacity="1" stroke="none" vectornator:layerName="path"/>
<path d="M131.086 151.374C129.678 151.481 128.29 150.994 127.258 150.031C126.361 149.019 125.9 147.693 125.977 146.343C125.885 144.802 126.525 143.309 127.703 142.312C128.854 141.374 130.71 140.874 133.274 140.812L137.071 140.749L137.071 139.827C137.172 138.767 136.858 137.709 136.196 136.874C135.437 136.218 134.445 135.897 133.446 135.984C132.485 135.907 131.524 136.131 130.696 136.624C130.08 137.132 129.705 137.874 129.664 138.671L126.727 138.406C127.205 135.364 129.466 133.843 133.508 133.843C135.233 133.714 136.944 134.235 138.305 135.304C139.432 136.411 140.019 137.954 139.914 139.531L139.914 146.812C139.878 147.456 139.991 148.1 140.242 148.695C140.495 149.136 140.987 149.385 141.492 149.327C141.803 149.323 142.112 149.286 142.414 149.218L142.414 150.968C141.702 151.135 140.974 151.219 140.242 151.218C139.401 151.295 138.568 150.994 137.969 150.398C137.427 149.652 137.145 148.749 137.164 147.827L137.071 147.827C136.504 148.956 135.636 149.905 134.563 150.57C133.493 151.134 132.295 151.411 131.086 151.374ZM131.727 149.265C132.69 149.282 133.64 149.04 134.477 148.562C135.271 148.101 135.927 147.434 136.375 146.632C136.824 145.866 137.064 144.996 137.071 144.109L137.071 142.718L133.992 142.781C132.975 142.757 131.959 142.894 130.985 143.187C130.353 143.399 129.804 143.803 129.414 144.343C129.024 144.952 128.833 145.667 128.867 146.39C128.817 147.169 129.085 147.936 129.61 148.515C130.183 149.045 130.948 149.316 131.727 149.265Z" fill="#ce6eff" fill-rule="nonzero" opacity="1" stroke="none" vectornator:layerName="path"/>
<path d="M151.992 151.062L148.664 151.062L142.524 134.156L145.524 134.156L149.242 145.156C149.377 145.573 149.737 146.807 150.321 148.859L150.867 147.031L151.477 145.187L155.321 134.156L158.305 134.156L151.992 151.062Z" fill="#ce6eff" fill-rule="nonzero" opacity="1" stroke="none" vectornator:layerName="path"/>
<path d="M162.727 143.202C162.627 144.789 163.049 146.364 163.93 147.687C164.771 148.758 166.086 149.348 167.446 149.265C168.473 149.315 169.493 149.06 170.375 148.531C171.066 148.095 171.592 147.44 171.867 146.671L174.336 147.374C173.325 150.041 171.029 151.375 167.446 151.374C165.304 151.519 163.209 150.7 161.735 149.14C160.427 147.651 159.773 145.437 159.774 142.499C159.774 139.708 160.427 137.567 161.735 136.077C163.173 134.532 165.229 133.712 167.336 133.843C172.305 133.843 174.789 136.838 174.789 142.827L174.789 143.202L162.727 143.202ZM171.883 141.046C171.863 139.634 171.386 138.266 170.524 137.148C169.674 136.29 168.494 135.842 167.289 135.921C166.058 135.864 164.866 136.367 164.047 137.288C163.195 138.354 162.739 139.682 162.758 141.046L171.883 141.046Z" fill="#ce6eff" fill-rule="nonzero" opacity="1" stroke="none" vectornator:layerName="path"/>
</g>
<g opacity="1" vectornator:layerName="legend line">
<path d="M188.182 70.9668L237.862 70.9668" fill="#60cf4d" fill-rule="nonzero" opacity="1" stroke="#60cf4d" stroke-linecap="butt" stroke-linejoin="miter" stroke-width="11.2" vectornator:layerName="line"/>
<path d="M188.002 106.247L237.322 106.247" fill="none" opacity="1" stroke="#ee4d52" stroke-linecap="butt" stroke-linejoin="miter" stroke-width="11.2" vectornator:layerName="line"/>
<path d="M187.822 142.607L237.502 142.607" fill="none" opacity="1" stroke="#ce6eff" stroke-linecap="butt" stroke-linejoin="miter" stroke-width="11.2" vectornator:layerName="line"/>
</g>
<path d="M56.88 47.6868L254.88 47.6868L254.88 47.6868L254.88 164.807L254.88 164.807L56.88 164.807L56.88 164.807L56.88 47.6868L56.88 47.6868Z" fill="none" opacity="1" stroke="#000000" stroke-linecap="butt" stroke-linejoin="miter" stroke-width="1" vectornator:layerName="rect"/>
</g>
</g>
</svg>
