<svg xmlns="http://www.w3.org/2000/svg" viewBox="0 0 1200 1200">
  <g id="baseline">
    <g>
      <line x1="-0.72133" y1="792.16511" x2="9.27867" y2="792.16511" style="fill: none;stroke: #7f8c8d;stroke-miterlimit: 10;stroke-width: 3px"/>
      <line x1="29.27867" y1="792.16511" x2="1179.27864" y2="792.16511" style="fill: none;stroke: #7f8c8d;stroke-miterlimit: 10;stroke-width: 3px;stroke-dasharray: 20,20"/>
      <line x1="1189.27864" y1="792.16511" x2="1199.27864" y2="792.16511" style="fill: none;stroke: #7f8c8d;stroke-miterlimit: 10;stroke-width: 3px"/>
    </g>
    <g>
      <path d="M31.43615,810.34537C32.356,951.14606,46.84476,1055.16145,69.96,1055.16145" style="fill: none;stroke: #95a5a6;stroke-miterlimit: 10;stroke-width: 5px;stroke-dasharray: 15,15"/>
      <polygon points="21.636 813.387 31.39 795.992 41.58 813.135 21.636 813.387" style="fill: #95a5a6"/>
    </g>
    <text transform="translate(73.19642 1064.99367)" style="font-size: 26px;fill: #95a5a6;font-family: LiberationSans-Bold, Liberation Sans;font-weight: 700">Baseline</text>
  </g>
  <g id="ECG_Sinus_rhythm_w_labels" data-name="ECG Sinus rhythm w labels">
    <g>
      <g id="segmented_wave" data-name="segmented wave">
        <path id="ecg_wave_path" data-name="ecg wave path" d="M556.04952,784.2593c-4.2279,65.042-5.83473,84.97608-6.6302,86.19a8.03034,8.03034,0,0,1-4.102,2.93738c-6.06494,1.52222-6.86871.35462-26.2702-38.15845l-18.26142-36.25,8.38758-15.05145c1.965.74713,4.96429,5.85864,14.12054,24.06488,10.97864,21.83,13.581,25.55091,14.27344,20.40821.05043-.37466,1.086-16.58689,2.8302-44.23343Z" style="fill: #f9b24c"/>
        <path id="ecg_wave_path-2" data-name="ecg wave path" d="M601.58186,783.1521c-1.56475-27.799-3.3582-59.93945-5.41413-96.97956-7.86682-141.73187-14.56579-258.77191-14.88665-260.08893-.41156-1.68957-.896-2.082-1.64527-1.3327-.6535.6535-6.38086,86.12958-14.89123,222.23858-3.73052,59.66389-6.5501,104.27192-8.69506,137.26981l-15.65211-.09283c3.17609-50.34339,8.70183-138.602,14.90735-238.18821,9.6134-154.275,17.71661-281.50683,18.00714-282.73736,1.46088-6.18656,11.38855-6.8678,13.98389-.95954,1.05633,2.40464,5.58984,78.977,18.29339,308.98176,4.83388,87.52009,8.88384,159.39856,11.90982,211.52963" style="fill: #ee4d52"/>
        <path d="M650.85908,784.7362c2.02777-1.642,7.06952-1.75794,76.44177-1.75794h74.27094l12.29529-14.25c15.14038-17.5476,43.25305-45.63574,55.96362-55.91479,19.05383-15.409,35.969-23.83521,47.8479-23.83521,6.44079,0,14.45972,2.48926,21.26672,6.60181,15.88574,9.59741,35.81018,37.03967,52.93555,72.90906l6.9176,14.48913h147.101l2.45459,2.45453a7.813,7.813,0,0,1,.54309,10.6847l-1.91137,2.36077-77.33863.24518c-82.87011.2627-81.00769.3689-83.4729-4.75964-13.23254-27.52832-22.43957-45.31836-27.422-52.98554-12.53687-19.29229-26.83594-33.54754-36.172-36.06152-7.85791-2.1159-20.00537,3.13782-37.65723,16.28662-11.66992,8.69287-47.34167,44.08014-63.123,62.61957-6.24762,7.3396-12.43091,13.75208-13.74054,14.25-1.34058.5097-33.54437.90533-73.69361.90533-55.86309,0-71.5238.27076-72.288,1.25"/>
        <path d="M662.07789,800.22826c-.5365.6875-8.97894,33.3396-18.761,72.56031-10.18713,40.84472-18.474,72.12085-19.397,73.20727a8.08959,8.08959,0,0,1-8.64618,2.05237,10.53075,10.53075,0,0,1-3.4187-2.51379c-.88378-1.065-3.32127-38.87589-10.27319-162.38232l15.91714-.35935c3.54042,60.99393,5.67908,94.95513,6.03147,95.30758.73632.73633,1.28509.67542,1.82788-.20275.42657-.69031,5.85028-21.5384,12.05267-46.32923,9.22827-36.88519,11.67145-45.39355,13.44806-46.83215" style="fill: #7979c9"/>
        <path id="ecg_wave_path-3" data-name="ecg wave path" d="M500.78565,798.97826l-53.73858-.01367c-29.55622-.0075-54.76087-.28753-56.01038-.62231-1.31482-.3523-5.29327-4.62873-9.44519-10.15271-14.97876-19.92871-33.36053-36.928-47.4729-43.90247-7.08713-3.50256-8.35449-3.80145-15.75851-3.71649-6.238.07159-10.15509.806-17.39017,3.26062-18.81363,6.38275-49.98618,24.08337-78.96924,44.84076l-13.6922,9.80627-75.5.29963c-52.91983.21-76.63505-.03034-79.29516-.80365-5.941-1.72718-7.613-8.17871-3.25031-12.54145l2.45454-2.45453h150.361l8.615-6.37872c12.416-9.19305,30.934-21.36932,43.521-28.61658,31.65582-18.22662,56.60168-25.778,72.70758-22.00927q29.83319,6.9808,60.54083,45.197l9.47785,11.80755h54.36877c31.86121,0,55.40155.3927,56.86365.94855"/>
      </g>
      <g id="qt_int" data-name="qt int">
        <g>
          <g id="path2847">
            <g>
              <line x1="502.9806" y1="1033.33605" x2="502.9806" y2="1037.83605" style="fill: none;stroke: #828b8c;stroke-width: 2.59119391441345px"/>
              <line x1="502.9806" y1="1045.91048" x2="502.9806" y2="1106.46868" style="fill: none;stroke: #828b8c;stroke-width: 2.59119391441345px;stroke-dasharray: 8.074426651000977,8.074426651000977"/>
              <line x1="502.9806" y1="1110.50589" x2="502.9806" y2="1115.00589" style="fill: none;stroke: #828b8c;stroke-width: 2.59119391441345px"/>
            </g>
          </g>
          <g id="path2849">
            <g>
              <line x1="991.26637" y1="828.62183" x2="991.26637" y2="833.12183" style="fill: none;stroke: #828b8c;stroke-width: 2.59119391441345px"/>
              <line x1="991.26637" y1="842.06968" x2="991.26637" y2="1106.03195" style="fill: none;stroke: #828b8c;stroke-width: 2.59119391441345px;stroke-dasharray: 8.94787311553955,8.94787311553955"/>
              <line x1="991.26637" y1="1110.50589" x2="991.26637" y2="1115.00589" style="fill: none;stroke: #828b8c;stroke-width: 2.59119391441345px"/>
            </g>
          </g>
          <g>
            <line x1="520.20356" y1="1091.36589" x2="974.04341" y2="1091.36589" style="fill: none;stroke: #2980b9;stroke-miterlimit: 10;stroke-width: 12px"/>
            <polygon points="523.705 1103.333 502.981 1091.366 523.705 1079.399 523.705 1103.333" style="fill: #2980b9"/>
            <polygon points="970.542 1103.333 991.266 1091.366 970.542 1079.399 970.542 1103.333" style="fill: #2980b9"/>
          </g>
        </g>
        <g id="text24188" style="isolation: isolate">
          <text transform="translate(679.21589 1066.46433)" style="isolation: isolate;font-size: 26px;font-family: LiberationSans-Bold, Liberation Sans;font-weight: 700">QT Interval</text>
        </g>
      </g>
      <g id="print">
        <g id="path14395">
          <g>
            <line x1="202.66563" y1="825.04975" x2="202.66563" y2="829.54975" style="fill: none;stroke: #828b8c;stroke-width: 2.59119391441345px"/>
            <line x1="202.66563" y1="838.07584" x2="202.66563" y2="987.28283" style="fill: none;stroke: #828b8c;stroke-width: 2.59119391441345px;stroke-dasharray: 8.526113510131836,8.526113510131836"/>
            <line x1="202.66563" y1="991.54589" x2="202.66563" y2="996.04589" style="fill: none;stroke: #828b8c;stroke-width: 2.59119391441345px"/>
          </g>
        </g>
        <g id="path17052">
          <g>
            <line x1="503.3799" y1="826.33545" x2="503.3799" y2="830.83545" style="fill: none;stroke: #828b8c;stroke-width: 2.59119391441345px"/>
            <line x1="503.3799" y1="840.28901" x2="503.3799" y2="986.81911" style="fill: none;stroke: #828b8c;stroke-width: 2.59119391441345px;stroke-dasharray: 9.453556060791016,9.453556060791016"/>
            <line x1="503.3799" y1="991.54589" x2="503.3799" y2="996.04589" style="fill: none;stroke: #828b8c;stroke-width: 2.59119391441345px"/>
          </g>
        </g>
        <g id="text24180" style="isolation: isolate">
          <text transform="translate(285.10911 951.99144)" style="isolation: isolate;font-size: 26px;font-family: LiberationSans-Bold, Liberation Sans;font-weight: 700">PR Interval</text>
        </g>
        <g>
          <line x1="219.88858" y1="976.14181" x2="485.1468" y2="976.14181" style="fill: none;stroke: #f39c12;stroke-miterlimit: 10;stroke-width: 12px"/>
          <polygon points="223.39 988.109 202.666 976.142 223.39 964.175 223.39 988.109" style="fill: #f39c12"/>
          <polygon points="481.645 988.109 502.37 976.142 481.645 964.175 481.645 988.109" style="fill: #f39c12"/>
        </g>
      </g>
      <g id="qrss">
        <g id="path22368">
          <g>
            <line x1="503.3799" y1="115.62119" x2="503.3799" y2="120.12119" style="fill: none;stroke: #828b8c;stroke-width: 2.59119391441345px"/>
            <line x1="503.3799" y1="129.00052" x2="503.3799" y2="515.25284" style="fill: none;stroke: #828b8c;stroke-width: 2.59119391441345px;stroke-dasharray: 8.879363059997559,8.879363059997559"/>
            <line x1="503.3799" y1="519.69248" x2="503.3799" y2="524.19248" style="fill: none;stroke: #828b8c;stroke-width: 2.59119391441345px"/>
          </g>
        </g>
        <g id="path24140">
          <g>
            <line x1="653.3799" y1="114.19254" x2="653.3799" y2="118.6926" style="fill: none;stroke: #828b8c;stroke-width: 2.59119391441345px"/>
            <line x1="653.3799" y1="127.60367" x2="653.3799" y2="515.23691" style="fill: none;stroke: #828b8c;stroke-width: 2.59119391441345px;stroke-dasharray: 8.91110897064209,8.91110897064209"/>
            <line x1="653.3799" y1="519.69248" x2="653.3799" y2="524.19248" style="fill: none;stroke: #828b8c;stroke-width: 2.59119391441345px"/>
          </g>
        </g>
        <g id="text24192" style="isolation: isolate">
          <text transform="translate(550.20906 101.66477)" style="isolation: isolate;font-size: 26px;font-family: LiberationSans-Bold, Liberation Sans;font-weight: 700">QRS<tspan x="-26.72998" y="27">Complex</tspan></text>
        </g>
        <g>
          <line x1="520.60286" y1="150.62113" x2="635.75056" y2="150.62113" style="fill: none;stroke: #c0392b;stroke-miterlimit: 10;stroke-width: 12px"/>
          <polygon points="524.104 162.588 503.38 150.621 524.104 138.654 524.104 162.588" style="fill: #c0392b"/>
          <polygon points="632.249 162.588 652.974 150.621 632.249 138.654 632.249 162.588" style="fill: #c0392b"/>
        </g>
      </g>
      <g id="sts">
        <g id="path24142">
          <g>
            <line x1="803.3799" y1="585.40586" x2="803.3799" y2="589.90586" style="fill: none;stroke: #828b8c;stroke-width: 2.59119391441345px"/>
            <line x1="803.3799" y1="599.34714" x2="803.3799" y2="745.68616" style="fill: none;stroke: #828b8c;stroke-width: 2.59119391441345px;stroke-dasharray: 9.441229820251465,9.441229820251465"/>
            <line x1="803.3799" y1="750.4068" x2="803.3799" y2="754.9068" style="fill: none;stroke: #828b8c;stroke-width: 2.59119391441345px"/>
          </g>
        </g>
        <g id="path24144">
          <g>
            <line x1="653.3799" y1="585.40586" x2="653.3799" y2="589.90586" style="fill: none;stroke: #828b8c;stroke-width: 2.59119391441345px"/>
            <line x1="653.3799" y1="599.34714" x2="653.3799" y2="745.68616" style="fill: none;stroke: #828b8c;stroke-width: 2.59119391441345px;stroke-dasharray: 9.441229820251465,9.441229820251465"/>
            <line x1="653.3799" y1="750.4068" x2="653.3799" y2="754.9068" style="fill: none;stroke: #828b8c;stroke-width: 2.59119391441345px"/>
          </g>
        </g>
        <g id="text24168" style="isolation: isolate">
          <g style="isolation: isolate">
            <path d="M728.09395,552.16532a4.62926,4.62926,0,0,1-1.94825,4.01758,9.80387,9.80387,0,0,1-5.71972,1.39062,10.17213,10.17213,0,0,1-5.39551-1.21875,5.59589,5.59589,0,0,1-2.51367-3.69433l3.61816-.59668a3.21753,3.21753,0,0,0,1.43457,2.0625,5.74555,5.74555,0,0,0,2.958.6416q3.92285,0,3.92285-2.38672a1.7982,1.7982,0,0,0-.45019-1.25684,3.40528,3.40528,0,0,0-1.26954-.82519,21.24148,21.24148,0,0,0-3.14257-.79981,28.32854,28.32854,0,0,1-2.793-.75586,7.88046,7.88046,0,0,1-1.42188-.67187,4.21453,4.21453,0,0,1-1.0791-.93359,4.0625,4.0625,0,0,1-.69141-1.28223,5.29268,5.29268,0,0,1-.248-1.68848,4.26764,4.26764,0,0,1,1.82226-3.71289,9.12931,9.12931,0,0,1,5.29981-1.28906,9.5858,9.5858,0,0,1,4.99609,1.041,4.96746,4.96746,0,0,1,2.15137,3.44043l-3.63086.49512a2.80337,2.80337,0,0,0-1.13574-1.73926,4.34421,4.34421,0,0,0-2.457-.584q-3.40137,0-3.40235,2.13281a1.75037,1.75037,0,0,0,.36231,1.14258,2.79794,2.79794,0,0,0,1.07226.75488,18.34585,18.34585,0,0,0,2.88184.78125,22.94209,22.94209,0,0,1,3.68848,1.00977,5.73107,5.73107,0,0,1,1.75781,1.07812,4.12661,4.12661,0,0,1,.99023,1.47266A5.2916,5.2916,0,0,1,728.09395,552.16532Z"/>
            <path d="M738.92305,542.32645v14.99317h-3.74512V542.32645h-5.77637v-2.89453h15.31055v2.89453Z"/>
            <path d="M689.80488,579.16532a4.62925,4.62925,0,0,1-1.94824,4.01758,9.80388,9.80388,0,0,1-5.71973,1.39062,10.17212,10.17212,0,0,1-5.3955-1.21875,5.59594,5.59594,0,0,1-2.51368-3.69433l3.61817-.59668a3.21753,3.21753,0,0,0,1.43457,2.0625,5.74553,5.74553,0,0,0,2.958.6416q3.92285,0,3.92285-2.38672a1.79816,1.79816,0,0,0-.4502-1.25684,3.40515,3.40515,0,0,0-1.26953-.82519,21.24172,21.24172,0,0,0-3.14258-.79981,28.33017,28.33017,0,0,1-2.793-.75586,7.88068,7.88068,0,0,1-1.42187-.67187,4.21436,4.21436,0,0,1-1.0791-.93359,4.0625,4.0625,0,0,1-.69141-1.28223,5.2924,5.2924,0,0,1-.248-1.68848,4.26764,4.26764,0,0,1,1.82226-3.71289,9.12931,9.12931,0,0,1,5.29981-1.28906,9.5858,9.5858,0,0,1,4.99609,1.041,4.9675,4.9675,0,0,1,2.15137,3.44043l-3.63086.49512a2.80338,2.80338,0,0,0-1.13575-1.73926,4.34417,4.34417,0,0,0-2.457-.584q-3.40136,0-3.40234,2.13281a1.75036,1.75036,0,0,0,.3623,1.14258,2.79806,2.79806,0,0,0,1.07227.75488,18.34585,18.34585,0,0,0,2.88184.78125,22.94158,22.94158,0,0,1,3.68847,1.00977,5.73113,5.73113,0,0,1,1.75782,1.07812,4.12674,4.12674,0,0,1,.99023,1.47266A5.2916,5.2916,0,0,1,689.80488,579.16532Z"/>
            <path d="M698.26,584.57352a6.10027,6.10027,0,0,1-4.76074-1.834,7.71658,7.71658,0,0,1-1.66309-5.35156,7.43594,7.43594,0,0,1,1.68848-5.23047,6.19212,6.19212,0,0,1,4.78613-1.82813,5.43717,5.43717,0,0,1,4.51953,1.96094,9.07065,9.07065,0,0,1,1.56153,5.74512v.10156h-8.81055a5.13183,5.13183,0,0,0,.74316,3.02832,2.45733,2.45733,0,0,0,2.11329,1.02148,2.222,2.222,0,0,0,2.38671-1.63769l3.36426.292Q702.7297,584.57352,698.26,584.57352Zm0-11.99707a2.30374,2.30374,0,0,0-1.93555.876,4.07955,4.07955,0,0,0-.71777,2.45019h5.332a4.22189,4.22189,0,0,0-.7998-2.49511A2.32773,2.32773,0,0,0,698.26,572.57645Z"/>
            <path d="M712.84688,589.82938a7.526,7.526,0,0,1-4.043-.959,4.03312,4.03312,0,0,1-1.88575-2.73535l3.56739-.41895a2.16683,2.16683,0,0,0,.81933,1.29492,2.67372,2.67372,0,0,0,1.64356.46973,2.53652,2.53652,0,0,0,2.1709-.91406,4.49469,4.49469,0,0,0,.68554-2.7168v-.72363l.02539-1.3584h-.02539a4.42165,4.42165,0,0,1-4.418,2.52637,4.34179,4.34179,0,0,1-3.71972-1.80274,10.66138,10.66138,0,0,1,.03808-10.34668,4.61586,4.61586,0,0,1,3.94825-1.82812,4.18533,4.18533,0,0,1,4.15136,2.47558h.06348q0-.44385.05762-1.20605a7.05844,7.05844,0,0,1,.12011-1.00293h3.377q-.07617,1.37109-.07617,3.17383v10.14355a5.65719,5.65719,0,0,1-1.66309,4.43066A6.99651,6.99651,0,0,1,712.84688,589.82938Zm2.98339-12.56836a6.14634,6.14634,0,0,0-.75488-3.30664,2.40661,2.40661,0,0,0-2.15234-1.1875q-2.85645,0-2.85645,4.57031,0,4.481,2.83106,4.48145a2.42993,2.42993,0,0,0,2.17773-1.18652A6.293,6.293,0,0,0,715.83027,577.261Z"/>
            <path d="M731.06465,584.31962v-7.70606q0-3.61816-2.082-3.61816a2.01487,2.01487,0,0,0-1.75782,1.10449,5.38285,5.38285,0,0,0-.67968,2.85644v7.36329h-3.56739V573.65555q0-1.10448-.03125-1.80859-.03222-.706-.07031-1.26367h3.40235c.02539.16113.05957.58984.10156,1.28906q.06445,1.04591.06347,1.44043h.05079a5.218,5.218,0,0,1,1.64453-2.28516,3.91218,3.91218,0,0,1,2.35449-.71093,3.51948,3.51948,0,0,1,3.82129,2.99609h.07617a5.39522,5.39522,0,0,1,1.67578-2.29785,4.17739,4.17739,0,0,1,2.48828-.69824,3.63162,3.63162,0,0,1,3.05957,1.36425,6.29872,6.29872,0,0,1,1.05371,3.917v8.72168h-3.542v-7.70606q0-3.61816-2.082-3.61816a1.984,1.984,0,0,0-1.707,1.00976,5.37881,5.37881,0,0,0-.73047,2.78614v7.52832Z"/>
            <path d="M751.71992,584.57352a6.10027,6.10027,0,0,1-4.76074-1.834,7.71658,7.71658,0,0,1-1.66309-5.35156,7.43594,7.43594,0,0,1,1.68848-5.23047,6.19212,6.19212,0,0,1,4.78613-1.82813,5.43717,5.43717,0,0,1,4.51953,1.96094,9.07065,9.07065,0,0,1,1.56153,5.74512v.10156h-8.81055a5.13175,5.13175,0,0,0,.74317,3.02832,2.4573,2.4573,0,0,0,2.11328,1.02148,2.222,2.222,0,0,0,2.38672-1.63769l3.36425.292Q756.18965,584.57352,751.71992,584.57352Zm0-11.99707a2.3037,2.3037,0,0,0-1.93554.876,4.07949,4.07949,0,0,0-.71778,2.45019h5.332a4.22189,4.22189,0,0,0-.7998-2.49511A2.32773,2.32773,0,0,0,751.71992,572.57645Z"/>
            <path d="M769.45527,584.31962v-7.70606q0-3.61816-2.45019-3.61816a2.449,2.449,0,0,0-2.08789,1.11133,4.78415,4.78415,0,0,0-.79395,2.8496v7.36329h-3.56738V573.65555q0-1.10448-.03125-1.80859-.03222-.706-.07031-1.26367h3.40234c.02539.16113.05957.58984.10156,1.28906q.06445,1.04591.06348,1.44043h.05078a5.23327,5.23327,0,0,1,1.81543-2.28516,4.66819,4.66819,0,0,1,2.60254-.71093,4.196,4.196,0,0,1,3.35156,1.3457,5.84042,5.84042,0,0,1,1.168,3.93555v8.72168Z"/>
            <path d="M779.9543,584.54813a3.264,3.264,0,0,1-2.42481-.85742,3.54658,3.54658,0,0,1-.85058-2.5957V572.9954h-1.73926v-2.41211h1.917l1.11719-3.22461h2.23437v3.22461h2.60254v2.41211H780.2082v7.13476a2.34919,2.34919,0,0,0,.38086,1.47852,1.41848,1.41848,0,0,0,1.18067.47656,5.78541,5.78541,0,0,0,1.19336-.17773v2.209A9.65689,9.65689,0,0,1,779.9543,584.54813Z"/>
          </g>
        </g>
        <g>
          <line x1="670.60286" y1="609.40586" x2="786.15693" y2="609.40586" style="fill: none;stroke: #8e44ad;stroke-miterlimit: 10;stroke-width: 12px"/>
          <polygon points="674.104 621.373 653.38 609.406 674.104 597.439 674.104 621.373" style="fill: #8e44ad"/>
          <polygon points="782.655 621.373 803.38 609.406 782.655 597.439 782.655 621.373" style="fill: #8e44ad"/>
        </g>
      </g>
      <g id="prs">
        <g id="path17054">
          <g>
            <line x1="503.3799" y1="585.40586" x2="503.3799" y2="589.90586" style="fill: none;stroke: #828b8c;stroke-width: 2.59119391441345px"/>
            <line x1="503.3799" y1="599.09501" x2="503.3799" y2="741.52653" style="fill: none;stroke: #828b8c;stroke-width: 2.59119391441345px;stroke-dasharray: 9.189128875732422,9.189128875732422"/>
            <line x1="503.3799" y1="746.1211" x2="503.3799" y2="750.6211" style="fill: none;stroke: #828b8c;stroke-width: 2.59119391441345px"/>
          </g>
        </g>
        <g id="path24146">
          <g>
            <line x1="391.3799" y1="585.40586" x2="391.3799" y2="589.90586" style="fill: none;stroke: #828b8c;stroke-width: 2.59119391441345px"/>
            <line x1="391.3799" y1="599.116" x2="391.3799" y2="741.87314" style="fill: none;stroke: #828b8c;stroke-width: 2.59119391441345px;stroke-dasharray: 9.210136413574219,9.210136413574219"/>
            <line x1="391.3799" y1="746.47822" x2="391.3799" y2="750.97822" style="fill: none;stroke: #828b8c;stroke-width: 2.59119391441345px"/>
          </g>
        </g>
        <g id="text24174" style="isolation: isolate">
          <g style="isolation: isolate">
            <path d="M446.60859,545.64481a5.34034,5.34034,0,0,1-.69629,2.72852,4.69789,4.69789,0,0,1-1.99316,1.8584,6.74374,6.74374,0,0,1-3.083.65722h-3.93066v5.57031h-3.313V540.63505h7.10889a6.54836,6.54836,0,0,1,4.374,1.30859A4.5979,4.5979,0,0,1,446.60859,545.64481Zm-3.33545.05567q0-2.49316-2.94238-2.49317h-3.42529v5.13281h3.51514a3.013,3.013,0,0,0,2.11132-.67968A2.52587,2.52587,0,0,0,443.27314,545.70048Z"/>
            <path d="M459.80439,556.45926l-3.67236-6.00781h-3.88574v6.00781h-3.313V540.63505h7.90625a6.88749,6.88749,0,0,1,4.36865,1.21875,4.19986,4.19986,0,0,1,1.53858,3.498,4.52249,4.52249,0,0,1-.94336,2.87012,4.42445,4.42445,0,0,1-2.54932,1.58887l4.27881,6.64843Zm-.39306-10.97265q0-2.2793-2.91992-2.2793h-4.24512v4.67188h4.335a3.12106,3.12106,0,0,0,2.11133-.62891A2.219,2.219,0,0,0,459.41133,545.48661Z"/>
            <path d="M413.90547,578.89969a4.09817,4.09817,0,0,1-1.72363,3.55469,8.68162,8.68162,0,0,1-5.05957,1.22949,8.99634,8.99634,0,0,1-4.773-1.07812,4.94873,4.94873,0,0,1-2.22364-3.26758l3.20069-.52832a2.84722,2.84722,0,0,0,1.269,1.8252,5.08674,5.08674,0,0,0,2.6167.5664q3.47022,0,3.47021-2.11133a1.5858,1.5858,0,0,0-.39892-1.11132,3.01655,3.01655,0,0,0-1.123-.73047,18.7842,18.7842,0,0,0-2.7793-.707,25.45419,25.45419,0,0,1-2.4707-.668,7.00682,7.00682,0,0,1-1.25781-.59571,3.70265,3.70265,0,0,1-.95459-.82519,3.5835,3.5835,0,0,1-.61182-1.13379,4.6717,4.6717,0,0,1-.21924-1.49414,3.77672,3.77672,0,0,1,1.61182-3.28516,8.08031,8.08031,0,0,1,4.68848-1.13965,8.47655,8.47655,0,0,1,4.41894.9209,4.39462,4.39462,0,0,1,1.90381,3.043l-3.21191.43848a2.47662,2.47662,0,0,0-1.00537-1.53809,3.83874,3.83874,0,0,0-2.17286-.51758q-3.00951,0-3.00976,1.88672a1.55,1.55,0,0,0,.32031,1.01172,2.474,2.474,0,0,0,.94873.668,16.29143,16.29143,0,0,0,2.54932.69043,20.355,20.355,0,0,1,3.26269.89258,5.07249,5.07249,0,0,1,1.55518.95508,3.635,3.635,0,0,1,.876,1.30273A4.67249,4.67249,0,0,1,413.90547,578.89969Z"/>
            <path d="M421.385,583.68387a5.394,5.394,0,0,1-4.21142-1.623,6.82138,6.82138,0,0,1-1.4712-4.7334,6.57592,6.57592,0,0,1,1.49366-4.627,5.47634,5.47634,0,0,1,4.23388-1.61719,4.807,4.807,0,0,1,3.998,1.73535,8.02078,8.02078,0,0,1,1.38135,5.082v.08984h-7.79395a4.53863,4.53863,0,0,0,.65674,2.67774,2.17512,2.17512,0,0,0,1.87012.9043,1.96535,1.96535,0,0,0,2.11133-1.44922l2.97607.25879Q425.33833,583.68388,421.385,583.68387Zm0-10.61328a2.04073,2.04073,0,0,0-1.71289.77539,3.61337,3.61337,0,0,0-.63428,2.168h4.7168a3.737,3.737,0,0,0-.70752-2.207A2.05937,2.05937,0,0,0,421.385,573.07059Z"/>
            <path d="M434.28877,588.33329a6.6651,6.6651,0,0,1-3.57715-.84766,3.56946,3.56946,0,0,1-1.66748-2.4209l3.15576-.37011a1.91462,1.91462,0,0,0,.72461,1.1455,2.36375,2.36375,0,0,0,1.4541.416,2.24381,2.24381,0,0,0,1.92041-.80859,3.97925,3.97925,0,0,0,.60645-2.4043v-.63965l.02246-1.20215h-.02246a3.91173,3.91173,0,0,1-3.9082,2.23535,3.84024,3.84024,0,0,1-3.29053-1.59472,9.43025,9.43025,0,0,1,.03369-9.15235,4.08276,4.08276,0,0,1,3.49268-1.61718,3.70277,3.70277,0,0,1,3.67236,2.18945h.05615q0-.39258.05078-1.06641a6.10435,6.10435,0,0,1,.10645-.88769h2.9873q-.06738,1.21288-.06738,2.80761v8.97266a5.00562,5.00562,0,0,1-1.47119,3.91992A6.19063,6.19063,0,0,1,434.28877,588.33329Zm2.63916-11.11817a5.43235,5.43235,0,0,0-.66846-2.92578,2.128,2.128,0,0,0-1.90332-1.0498q-2.52686,0-2.52685,4.043,0,3.96385,2.50439,3.96386a2.14771,2.14771,0,0,0,1.92578-1.0498A5.55455,5.55455,0,0,0,436.92793,577.21512Z"/>
            <path d="M450.40449,583.45926v-6.8164q0-3.20216-1.84179-3.20117a1.78528,1.78528,0,0,0-1.55567.97656,4.77016,4.77016,0,0,0-.60058,2.52734v6.51367h-3.15577v-9.43359q0-.97706-.02783-1.60059c-.019-.415-.03955-.78808-.062-1.11718h3.00977q.03369.21387.08984,1.13965.0564.92724.05615,1.27539h.04492a4.61465,4.61465,0,0,1,1.45411-2.02149,3.45842,3.45842,0,0,1,2.08349-.6289,3.11319,3.11319,0,0,1,3.38037,2.65039h.06739a4.76749,4.76749,0,0,1,1.48242-2.03321,3.69313,3.69313,0,0,1,2.20117-.61718,3.21269,3.21269,0,0,1,2.70654,1.207,5.57119,5.57119,0,0,1,.93213,3.46484v7.71484h-3.1333v-6.8164q0-3.20216-1.8418-3.20117a1.75642,1.75642,0,0,0-1.51025.89257,4.75422,4.75422,0,0,0-.646,2.46485v6.66015Z"/>
            <path d="M468.67646,583.68387a5.394,5.394,0,0,1-4.21142-1.623,6.82137,6.82137,0,0,1-1.47119-4.7334,6.57591,6.57591,0,0,1,1.49365-4.627,5.47638,5.47638,0,0,1,4.23389-1.61719,4.807,4.807,0,0,1,3.998,1.73535,8.02078,8.02078,0,0,1,1.38135,5.082v.08984h-7.79394a4.53864,4.53864,0,0,0,.65673,2.67774,2.17513,2.17513,0,0,0,1.87012.9043,1.96535,1.96535,0,0,0,2.11133-1.44922l2.97607.25879Q472.62983,583.68388,468.67646,583.68387Zm0-10.61328a2.04073,2.04073,0,0,0-1.71289.77539,3.61337,3.61337,0,0,0-.63427,2.168h4.71679a3.73681,3.73681,0,0,0-.70752-2.207A2.05937,2.05937,0,0,0,468.67646,573.07059Z"/>
            <path d="M484.36543,583.45926v-6.8164q0-3.20216-2.16748-3.20117a2.1676,2.1676,0,0,0-1.84717.98242,4.23505,4.23505,0,0,0-.70215,2.52148v6.51367h-3.15576v-9.43359q0-.97706-.02783-1.60059c-.019-.415-.03955-.78808-.062-1.11718h3.00976q.03369.21387.08985,1.13965.05639.92724.05615,1.27539h.04492a4.62586,4.62586,0,0,1,1.606-2.02149,4.11994,4.11994,0,0,1,2.30224-.6289,3.71553,3.71553,0,0,1,2.96485,1.18945,5.17162,5.17162,0,0,1,1.0332,3.48242v7.71484Z"/>
            <path d="M493.653,583.66141a2.89115,2.89115,0,0,1-2.145-.75781,3.13951,3.13951,0,0,1-.75244-2.29687v-7.165H489.217V571.3079h1.6958l.98828-2.85254h1.97657v2.85254h2.30224v2.13379h-2.30224v6.31152a2.08281,2.08281,0,0,0,.33691,1.30859,1.25836,1.25836,0,0,0,1.04443.4209,5.12406,5.12406,0,0,0,1.05567-.15722v1.9541A8.54571,8.54571,0,0,1,493.653,583.66141Z"/>
          </g>
        </g>
        <g>
          <line x1="408.77534" y1="609.14249" x2="486.15721" y2="608.71317" style="fill: none;stroke: #27ae60;stroke-miterlimit: 10;stroke-width: 12px"/>
          <polygon points="412.343 621.09 391.553 609.238 412.21 597.156 412.343 621.09" style="fill: #27ae60"/>
          <polygon points="482.722 620.7 503.38 608.618 482.589 596.766 482.722 620.7" style="fill: #27ae60"/>
        </g>
      </g>
      <g id="text24148" style="isolation: isolate">
        <text transform="translate(306.60048 691.49851)" style="isolation: isolate;font-size: 56px;font-family: LiberationSans-Bold, Liberation Sans;font-weight: 700;letter-spacing: -0.01806640625em">P</text>
      </g>
      <g id="text24152" style="isolation: isolate">
        <text transform="translate(518.63423 935.09961)" style="isolation: isolate;font-size: 56px;font-family: LiberationSans-Bold, Liberation Sans;font-weight: 700">Q</text>
      </g>
      <g id="text24156" style="isolation: isolate">
        <text transform="translate(560.53505 228.03098)" style="isolation: isolate;font-size: 56px;font-family: LiberationSans-Bold, Liberation Sans;font-weight: 700">R</text>
      </g>
      <g id="text24160" style="isolation: isolate">
        <text transform="translate(600.86055 1015.22971)" style="isolation: isolate;font-size: 56px;font-family: LiberationSans-Bold, Liberation Sans;font-weight: 700">S</text>
      </g>
      <g id="text24164" style="isolation: isolate">
        <text transform="translate(900.1667 662.39634)" style="isolation: isolate;font-size: 56px;font-family: LiberationSans-Bold, Liberation Sans;font-weight: 700">T</text>
      </g>
      <g>
        <circle cx="324.20668" cy="673.13561" r="31.92" style="fill: none;stroke: #3f3f3f;stroke-width: 2.59119391441345px"/>
        <circle cx="541.88668" cy="920.33121" r="31.92" style="fill: none;stroke: #3f3f3f;stroke-width: 2.59119391441345px"/>
        <circle cx="620.12668" cy="996.04589" r="31.92" style="fill: none;stroke: #3f3f3f;stroke-width: 2.59119391441345px"/>
        <circle cx="917.48668" cy="641.08589" r="31.92" style="fill: none;stroke: #3f3f3f;stroke-width: 2.59119391441345px"/>
        <circle cx="580.89611" cy="211.24589" r="31.92" style="fill: none;stroke: #3f3f3f;stroke-width: 2.59119391441345px"/>
      </g>
    </g>
    <g id="legend">
      <g>
        <path d="M94.82051,67.95243a12.01386,12.01386,0,0,1-2.16406,7.33594A9.54386,9.54386,0,0,1,86.633,78.9993a4.39353,4.39353,0,0,0,1.49219,2.23438,4.57531,4.57531,0,0,0,2.69531.6875,11.31514,11.31514,0,0,0,1.85937-.15625l-.03125,3.15625a17.44022,17.44022,0,0,1-3.78125.4375,6.28422,6.28422,0,0,1-4.21875-1.42188,9.88686,9.88686,0,0,1-2.6875-4.71875,9.738,9.738,0,0,1-6.91406-3.39843,11.951,11.951,0,0,1-2.46094-7.86719q0-5.29687,2.9375-8.26563,2.937-2.9685,8.17188-2.96875,5.23389,0,8.17969,3Q94.81953,62.71805,94.82051,67.95243Zm-4.70313,0a8.46529,8.46529,0,0,0-1.6875-5.58594,5.82511,5.82511,0,0,0-4.73437-2.02344,5.89984,5.89984,0,0,0-4.78125,2.00782,8.45411,8.45411,0,0,0-1.6875,5.60156,8.74671,8.74671,0,0,0,1.71875,5.71875,5.77436,5.77436,0,0,0,4.71875,2.09375,5.84446,5.84446,0,0,0,4.77344-2.03125A8.84687,8.84687,0,0,0,90.11738,67.95243Z"/>
        <path d="M123.39863,79.0618H120.133l-2.95313-11.95312-.5625-2.64063q-.14062.70313-.4375,2.02344-.29736,1.32055-3.1875,12.57031h-3.25L105.008,62.15555h2.78125l2.85937,11.48438q.10841.375.67188,3.09375l.26562-1.15625,3.53125-13.42188H118.133l2.95312,11.60938.71875,2.96875.48438-2.17188,3.20312-12.40625h2.75Z"/>
        <path d="M134.633,79.3743a5.049,5.049,0,0,1-3.82813-1.34375,5.12241,5.12241,0,0,1-1.28125-3.6875,4.89919,4.89919,0,0,1,1.72657-4.03125q1.72558-1.40625,5.57031-1.5l3.79687-.0625v-.92187a4.11977,4.11977,0,0,0-.875-2.95313,3.71564,3.71564,0,0,0-2.75-.89062,4.65194,4.65194,0,0,0-2.75.64062,2.84151,2.84151,0,0,0-1.03125,2.04688l-2.9375-.26563q.71778-4.56225,6.78125-4.5625a6.92948,6.92948,0,0,1,4.79688,1.46094,5.42022,5.42022,0,0,1,1.60937,4.22656V74.8118a4.22185,4.22185,0,0,0,.32813,1.88282,1.27458,1.27458,0,0,0,1.25.63281,4.47362,4.47362,0,0,0,.92187-.10938v1.75a9.46527,9.46527,0,0,1-2.17187.25,2.85618,2.85618,0,0,1-2.27344-.82031,4.2203,4.2203,0,0,1-.80469-2.57031h-.09375a6.82458,6.82458,0,0,1-2.50781,2.74219A6.99379,6.99379,0,0,1,134.633,79.3743Zm.64062-2.10937a5.35007,5.35007,0,0,0,2.75-.70313,5.11992,5.11992,0,0,0,1.89844-1.92968,5.06089,5.06089,0,0,0,.69531-2.52344V70.71805l-3.07812.0625a9.65792,9.65792,0,0,0-3.00781.40625,3.18988,3.18988,0,0,0-1.57032,1.15625,3.49291,3.49291,0,0,0-.54687,2.04688,2.89,2.89,0,0,0,.74219,2.125A2.84531,2.84531,0,0,0,135.27363,77.26493Z"/>
        <path d="M155.53926,79.0618h-3.32813l-6.14062-16.90625h3l3.71875,11q.20214.6255,1.07812,3.70313l.54688-1.82813.60937-1.84375,3.84375-11.03125h2.98438Z"/>
        <path d="M166.27363,71.20243a7.26529,7.26529,0,0,0,1.20313,4.48437,4.1479,4.1479,0,0,0,3.51562,1.57813,5.20322,5.20322,0,0,0,2.92969-.73438,3.65432,3.65432,0,0,0,1.49219-1.85937l2.46875.70312q-1.51611,4.0005-6.89063,4a7.19122,7.19122,0,0,1-5.71093-2.23437Q163.32,74.906,163.32051,70.4993q0-4.18725,1.96094-6.42187a7.05492,7.05492,0,0,1,5.60156-2.23438q7.45313,0,7.45312,8.98438v.375Zm9.15625-2.15625a6.53375,6.53375,0,0,0-1.35937-3.89844,4.16968,4.16968,0,0,0-3.23438-1.22656,4.08618,4.08618,0,0,0-3.24218,1.36719,5.88334,5.88334,0,0,0-1.28907,3.75781Z"/>
        <path d="M88.53926,115.0618l-5.10938-8.35937H78.02363v8.35937H73.41426V93.04618h11a9.58679,9.58679,0,0,1,6.07812,1.69531A5.84526,5.84526,0,0,1,92.633,99.60868a6.28961,6.28961,0,0,1-1.3125,3.99219,6.15207,6.15207,0,0,1-3.54688,2.21093l5.95313,9.25Zm-.54688-15.26562q0-3.17139-4.0625-3.17188H78.02363v6.5h6.03125a4.34083,4.34083,0,0,0,2.9375-.875A3.08833,3.08833,0,0,0,87.99238,99.79618Z"/>
        <path d="M121.61738,115.0618h-3.26562l-2.95313-11.95312-.5625-2.64063q-.14062.70313-.4375,2.02344-.29736,1.32055-3.1875,12.57031h-3.25l-4.73437-16.90625H106.008l2.85937,11.48438q.10841.375.67188,3.09375l.26562-1.15625,3.53125-13.42188h3.01563l2.95312,11.60938.71875,2.96875.48438-2.17188,3.20312-12.40625h2.75Z"/>
        <path d="M132.85176,115.3743a5.049,5.049,0,0,1-3.82813-1.34375,5.12241,5.12241,0,0,1-1.28125-3.6875,4.89919,4.89919,0,0,1,1.72657-4.03125q1.72558-1.40625,5.57031-1.5l3.79687-.0625v-.92187a4.11977,4.11977,0,0,0-.875-2.95313,3.71564,3.71564,0,0,0-2.75-.89062,4.65194,4.65194,0,0,0-2.75.64062,2.84151,2.84151,0,0,0-1.03125,2.04688l-2.9375-.26563q.71778-4.56225,6.78125-4.5625a6.92948,6.92948,0,0,1,4.79688,1.46094,5.42022,5.42022,0,0,1,1.60937,4.22656v7.28125a4.22185,4.22185,0,0,0,.32813,1.88282,1.27458,1.27458,0,0,0,1.25.63281,4.47362,4.47362,0,0,0,.92187-.10938v1.75a9.46527,9.46527,0,0,1-2.17187.25,2.85618,2.85618,0,0,1-2.27344-.82031,4.2203,4.2203,0,0,1-.80469-2.57031h-.09375a6.82458,6.82458,0,0,1-2.50781,2.74219A6.99379,6.99379,0,0,1,132.85176,115.3743Zm.64062-2.10937a5.35007,5.35007,0,0,0,2.75-.70313,5.11992,5.11992,0,0,0,1.89844-1.92968,5.06089,5.06089,0,0,0,.69531-2.52344v-1.39063l-3.07812.0625a9.65792,9.65792,0,0,0-3.00781.40625,3.18988,3.18988,0,0,0-1.57032,1.15625,3.49291,3.49291,0,0,0-.54687,2.04688,2.89,2.89,0,0,0,.74219,2.125A2.84531,2.84531,0,0,0,133.49238,113.26493Z"/>
        <path d="M153.758,115.0618h-3.32813l-6.14062-16.90625h3l3.71875,11q.20214.6255,1.07812,3.70313l.54688-1.82813.60937-1.84375,3.84375-11.03125h2.98438Z"/>
        <path d="M164.49238,107.20243a7.26529,7.26529,0,0,0,1.20313,4.48437,4.1479,4.1479,0,0,0,3.51562,1.57813,5.20322,5.20322,0,0,0,2.92969-.73438,3.65432,3.65432,0,0,0,1.49219-1.85937l2.46875.70312q-1.51611,4.0005-6.89063,4a7.19122,7.19122,0,0,1-5.71093-2.23437q-1.96143-2.23389-1.96094-6.64063,0-4.18725,1.96094-6.42187a7.05492,7.05492,0,0,1,5.60156-2.23438q7.45313,0,7.45312,8.98438v.375Zm9.15625-2.15625a6.53375,6.53375,0,0,0-1.35937-3.89844,4.16968,4.16968,0,0,0-3.23438-1.22656,4.08618,4.08618,0,0,0-3.24218,1.36719,5.88334,5.88334,0,0,0-1.28907,3.75781Z"/>
        <path d="M91.36738,144.71805a5.70035,5.70035,0,0,1-2.39843,4.94532q-2.39942,1.71093-7.03907,1.71093a12.51427,12.51427,0,0,1-6.64062-1.5,6.87969,6.87969,0,0,1-3.09375-4.54687l4.45312-.73438a3.95921,3.95921,0,0,0,1.76563,2.53907,7.07,7.07,0,0,0,3.64062.78906q4.82813,0,4.82813-2.9375a2.21286,2.21286,0,0,0-.55469-1.54688,4.19713,4.19713,0,0,0-1.5625-1.01562,26.11052,26.11052,0,0,0-3.86719-.98438,34.92453,34.92453,0,0,1-3.4375-.92968,9.67482,9.67482,0,0,1-1.75-.82813,5.12832,5.12832,0,0,1-1.32812-1.14844,4.97463,4.97463,0,0,1-.85156-1.57812,6.51182,6.51182,0,0,1-.30469-2.07813A5.25449,5.25449,0,0,1,75.469,130.304q2.24121-1.58569,6.52343-1.58594a11.80344,11.80344,0,0,1,6.14844,1.28125,6.11722,6.11722,0,0,1,2.64844,4.23438l-4.46875.60937a3.45692,3.45692,0,0,0-1.39844-2.14062,5.349,5.349,0,0,0-3.02344-.71875q-4.188,0-4.1875,2.625a2.15426,2.15426,0,0,0,.44532,1.40625,3.43373,3.43373,0,0,0,1.32031.92969,22.57183,22.57183,0,0,0,3.54687.96093,28.38305,28.38305,0,0,1,4.53907,1.24219,7.06659,7.06659,0,0,1,2.16406,1.32813,5.06276,5.06276,0,0,1,1.21875,1.8125A6.50721,6.50721,0,0,1,91.36738,144.71805Z"/>
        <path d="M119.85176,151.0618h-3.26563L113.633,139.10868l-.5625-2.64063q-.14062.70313-.4375,2.02344-.29736,1.32056-3.1875,12.57031h-3.25l-4.73438-16.90625h2.78125l2.85938,11.48438q.10839.375.67187,3.09375l.26563-1.15625,3.53125-13.42188h3.01562l2.95313,11.60938.71875,2.96875.48437-2.17188,3.20313-12.40625h2.75Z"/>
        <path d="M131.08613,151.3743a5.04894,5.04894,0,0,1-3.82812-1.34375,5.12241,5.12241,0,0,1-1.28125-3.6875,4.89919,4.89919,0,0,1,1.72656-4.03125q1.72559-1.40625,5.57031-1.5l3.79688-.0625v-.92187a4.11977,4.11977,0,0,0-.875-2.95313,3.71565,3.71565,0,0,0-2.75-.89062,4.65192,4.65192,0,0,0-2.75.64062,2.84151,2.84151,0,0,0-1.03125,2.04688l-2.9375-.26563q.71777-4.56225,6.78125-4.5625a6.92945,6.92945,0,0,1,4.79687,1.46094,5.42019,5.42019,0,0,1,1.60938,4.22656v7.28125a4.22187,4.22187,0,0,0,.32812,1.88282,1.27459,1.27459,0,0,0,1.25.63281,4.47371,4.47371,0,0,0,.92188-.10938v1.75a9.46542,9.46542,0,0,1-2.17188.25,2.85615,2.85615,0,0,1-2.27343-.82031,4.2203,4.2203,0,0,1-.80469-2.57031h-.09375a6.82465,6.82465,0,0,1-2.50781,2.74219A6.99385,6.99385,0,0,1,131.08613,151.3743Zm.64063-2.10937a5.3501,5.3501,0,0,0,2.75-.70313,5.11992,5.11992,0,0,0,1.89844-1.92968,5.06089,5.06089,0,0,0,.69531-2.52344v-1.39063l-3.07813.0625a9.65792,9.65792,0,0,0-3.00781.40625,3.18985,3.18985,0,0,0-1.57031,1.15625,3.49284,3.49284,0,0,0-.54688,2.04688,2.89,2.89,0,0,0,.74219,2.125A2.84534,2.84534,0,0,0,131.72676,149.26493Z"/>
        <path d="M151.99238,151.0618h-3.32812l-6.14063-16.90625h3l3.71875,11q.20216.6255,1.07813,3.70313l.54687-1.82813.60938-1.84375,3.84375-11.03125h2.98437Z"/>
        <path d="M162.72676,143.20243a7.26536,7.26536,0,0,0,1.20312,4.48437,4.14792,4.14792,0,0,0,3.51563,1.57813,5.20324,5.20324,0,0,0,2.92969-.73438,3.65435,3.65435,0,0,0,1.49218-1.85937l2.46875.70312q-1.51611,4.0005-6.89062,4a7.19124,7.19124,0,0,1-5.71094-2.23437q-1.96143-2.23389-1.96094-6.64063,0-4.18725,1.96094-6.42187a7.05493,7.05493,0,0,1,5.60156-2.23438q7.45313,0,7.45313,8.98438v.375Zm9.15625-2.15625a6.53375,6.53375,0,0,0-1.35938-3.89844,4.16965,4.16965,0,0,0-3.23437-1.22656,4.08621,4.08621,0,0,0-3.24219,1.36719,5.88339,5.88339,0,0,0-1.28906,3.75781Z"/>
      </g>
      <g id="legend_line" data-name="legend line">
        <line x1="188.18164" y1="70.96684" x2="237.86164" y2="70.96684" style="fill: #f9b24c;stroke: #f9b24c;stroke-miterlimit: 10;stroke-width: 14px"/>
        <line x1="188.00164" y1="106.24684" x2="237.32164" y2="106.24684" style="fill: none;stroke: #ee4d52;stroke-miterlimit: 10;stroke-width: 14px"/>
        <line x1="187.82164" y1="142.60684" x2="237.50164" y2="142.60684" style="fill: none;stroke: #7979c9;stroke-miterlimit: 10;stroke-width: 14px"/>
      </g>
      <rect id="legend_qrs" data-name="legend qrs" x="56.88" y="47.68684" width="198" height="117.12" style="fill: none;stroke: #000;stroke-miterlimit: 10"/>
    </g>
  </g>
</svg>
