<?xml version="1.0" encoding="UTF-8" standalone="no"?>
<!DOCTYPE svg PUBLIC "-//W3C//DTD SVG 1.1//EN" "http://www.w3.org/Graphics/SVG/1.1/DTD/svg11.dtd">
<!-- Created with Vectornator (http://vectornator.io/) -->
<svg height="100%" stroke-miterlimit="10" style="fill-rule:nonzero;clip-rule:evenodd;stroke-linecap:round;stroke-linejoin:round;" version="1.1" viewBox="0 0 1280 520" width="100%" xml:space="preserve" xmlns="http://www.w3.org/2000/svg" xmlns:xlink="http://www.w3.org/1999/xlink">
<defs/>
<g id="Layer-1">
<g opacity="1">
<path d="M530 210L750 210L750 470L530 470L530 210Z" fill="none" opacity="1" stroke="#000000" stroke-linecap="butt" stroke-linejoin="round" stroke-width="0.1"/>
<path d="M530 210L750 210L750 470L530 470L530 210Z" fill="#fbfbfb" fill-rule="nonzero" opacity="1" stroke="#000000" stroke-linecap="butt" stroke-linejoin="round" stroke-opacity="0.99" stroke-width="3"/>
<path d="M550 480L730 480L730 510L550 510L550 480Z" fill="#5b9ef3" fill-rule="nonzero" opacity="1" stroke="#659ef3" stroke-linecap="butt" stroke-linejoin="round" stroke-width="3"/>
<path d="M390 10L890 10L890 150L390 150L390 10Z" fill="none" opacity="1" stroke="#659ef3" stroke-linecap="butt" stroke-linejoin="round" stroke-width="3"/>
<g opacity="1">
<path d="M595.07 502L584.172 502L584.172 484.504L595.07 484.504L595.07 487.551L587.629 487.551L587.629 491.324L594.367 491.324L594.367 494.371L587.629 494.371L587.629 498.953L595.07 498.953L595.07 502Z" fill="#000000" fill-rule="nonzero" opacity="1" stroke="none"/>
<path d="M609.32 501.496C608.773 501.777 608.199 501.988 607.598 502.129C606.996 502.27 606.363 502.34 605.699 502.34C603.34 502.34 601.539 501.563 600.297 500.008C599.055 498.453 598.434 496.207 598.434 493.27C598.434 490.324 599.055 488.074 600.297 486.52C601.539 484.965 603.34 484.188 605.699 484.188C606.363 484.188 607 484.258 607.609 484.398C608.219 484.539 608.789 484.75 609.32 485.031L609.32 488.875C608.727 488.328 608.15 487.928 607.592 487.674C607.033 487.42 606.457 487.293 605.863 487.293C604.598 487.293 603.643 487.795 602.998 488.799C602.354 489.803 602.031 491.293 602.031 493.27C602.031 495.238 602.354 496.725 602.998 497.729C603.643 498.732 604.598 499.234 605.863 499.234C606.457 499.234 607.033 499.107 607.592 498.854C608.15 498.6 608.727 498.199 609.32 497.652L609.32 501.496Z" fill="#000000" fill-rule="nonzero" opacity="1" stroke="none"/>
<path d="M621.32 498.836L621.32 495.496L618.953 495.496L618.953 492.59L624.344 492.59L624.344 500.605C623.68 501.176 622.947 501.607 622.146 501.9C621.346 502.193 620.488 502.34 619.574 502.34C617.309 502.34 615.559 501.553 614.324 499.979C613.09 498.404 612.473 496.168 612.473 493.27C612.473 490.324 613.096 488.074 614.342 486.52C615.588 484.965 617.387 484.188 619.738 484.188C620.441 484.188 621.133 484.287 621.812 484.486C622.492 484.686 623.129 484.973 623.723 485.348L623.723 489.18C623.238 488.555 622.682 488.084 622.053 487.768C621.424 487.451 620.734 487.293 619.984 487.293C618.672 487.293 617.691 487.787 617.043 488.775C616.395 489.764 616.07 491.262 616.07 493.27C616.07 495.215 616.383 496.695 617.008 497.711C617.633 498.727 618.543 499.234 619.738 499.234C620.098 499.234 620.41 499.201 620.676 499.135C620.941 499.068 621.156 498.969 621.32 498.836Z" fill="#000000" fill-rule="nonzero" opacity="1" stroke="none"/>
<path d="M645.062 487.621L645.062 498.883L646 498.883C647.359 498.883 648.328 498.455 648.906 497.6C649.484 496.744 649.773 495.289 649.773 493.234C649.773 491.195 649.484 489.75 648.906 488.898C648.328 488.047 647.359 487.621 646 487.621L645.062 487.621ZM641.605 484.504L645.309 484.504C648.168 484.504 650.227 485.186 651.484 486.549C652.742 487.912 653.371 490.141 653.371 493.234C653.371 496.336 652.742 498.572 651.484 499.943C650.227 501.314 648.168 502 645.309 502L641.605 502L641.605 484.504Z" fill="#000000" fill-rule="nonzero" opacity="1" stroke="none"/>
<path d="M662.652 495.836C661.371 495.836 660.477 496 659.969 496.328C659.461 496.656 659.207 497.219 659.207 498.016C659.207 498.609 659.383 499.082 659.734 499.434C660.086 499.785 660.562 499.961 661.164 499.961C662.07 499.961 662.773 499.619 663.273 498.936C663.773 498.252 664.023 497.297 664.023 496.07L664.023 495.836L662.652 495.836ZM667.434 494.512L667.434 502L664.023 502L664.023 500.535C663.609 501.113 663.078 501.559 662.43 501.871C661.781 502.184 661.066 502.34 660.285 502.34C658.793 502.34 657.631 501.945 656.799 501.156C655.967 500.367 655.551 499.266 655.551 497.852C655.551 496.32 656.047 495.189 657.039 494.459C658.031 493.729 659.566 493.363 661.645 493.363L664.023 493.363L664.023 492.789C664.023 492.234 663.822 491.814 663.42 491.529C663.018 491.244 662.426 491.102 661.645 491.102C660.824 491.102 660.029 491.205 659.26 491.412C658.49 491.619 657.688 491.949 656.852 492.402L656.852 489.473C657.609 489.16 658.379 488.93 659.16 488.781C659.941 488.633 660.77 488.559 661.645 488.559C663.777 488.559 665.275 488.992 666.139 489.859C667.002 490.727 667.434 492.277 667.434 494.512Z" fill="#000000" fill-rule="nonzero" opacity="1" stroke="none"/>
<path d="M676.984 485.148L676.984 488.875L681.473 488.875L681.473 491.512L676.984 491.512L676.984 497.723C676.984 498.309 677.127 498.729 677.412 498.982C677.697 499.236 678.172 499.363 678.836 499.363L681.473 499.363L681.473 502L678.59 502C676.621 502 675.289 501.686 674.594 501.057C673.898 500.428 673.551 499.262 673.551 497.559L673.551 491.512L670.199 491.512L670.199 488.875L673.551 488.875L673.551 485.148L676.984 485.148Z" fill="#000000" fill-rule="nonzero" opacity="1" stroke="none"/>
<path d="M691.551 495.836C690.27 495.836 689.375 496 688.867 496.328C688.359 496.656 688.105 497.219 688.105 498.016C688.105 498.609 688.281 499.082 688.633 499.434C688.984 499.785 689.461 499.961 690.062 499.961C690.969 499.961 691.672 499.619 692.172 498.936C692.672 498.252 692.922 497.297 692.922 496.07L692.922 495.836L691.551 495.836ZM696.332 494.512L696.332 502L692.922 502L692.922 500.535C692.508 501.113 691.977 501.559 691.328 501.871C690.68 502.184 689.965 502.34 689.184 502.34C687.691 502.34 686.529 501.945 685.697 501.156C684.865 500.367 684.449 499.266 684.449 497.852C684.449 496.32 684.945 495.189 685.938 494.459C686.93 493.729 688.465 493.363 690.543 493.363L692.922 493.363L692.922 492.789C692.922 492.234 692.721 491.814 692.318 491.529C691.916 491.244 691.324 491.102 690.543 491.102C689.723 491.102 688.928 491.205 688.158 491.412C687.389 491.619 686.586 491.949 685.75 492.402L685.75 489.473C686.508 489.16 687.277 488.93 688.059 488.781C688.84 488.633 689.668 488.559 690.543 488.559C692.676 488.559 694.174 488.992 695.037 489.859C695.9 490.727 696.332 492.277 696.332 494.512Z" fill="#000000" fill-rule="nonzero" opacity="1" stroke="none"/>
</g>
<g opacity="1">
<path d="M631.193 312L620.295 312L620.295 294.504L631.193 294.504L631.193 297.551L623.752 297.551L623.752 301.324L630.49 301.324L630.49 304.371L623.752 304.371L623.752 308.953L631.193 308.953L631.193 312Z" fill="#000000" fill-rule="nonzero" opacity="1" stroke="none"/>
<path d="M645.443 311.496C644.896 311.777 644.322 311.988 643.721 312.129C643.119 312.27 642.486 312.34 641.822 312.34C639.463 312.34 637.662 311.563 636.42 310.008C635.178 308.453 634.557 306.207 634.557 303.27C634.557 300.324 635.178 298.074 636.42 296.52C637.662 294.965 639.463 294.188 641.822 294.188C642.486 294.188 643.123 294.258 643.732 294.398C644.342 294.539 644.912 294.75 645.443 295.031L645.443 298.875C644.85 298.328 644.273 297.928 643.715 297.674C643.156 297.42 642.58 297.293 641.986 297.293C640.721 297.293 639.766 297.795 639.121 298.799C638.477 299.803 638.154 301.293 638.154 303.27C638.154 305.238 638.477 306.725 639.121 307.729C639.766 308.732 640.721 309.234 641.986 309.234C642.58 309.234 643.156 309.107 643.715 308.854C644.273 308.6 644.85 308.199 645.443 307.652L645.443 311.496Z" fill="#000000" fill-rule="nonzero" opacity="1" stroke="none"/>
<path d="M657.443 308.836L657.443 305.496L655.076 305.496L655.076 302.59L660.467 302.59L660.467 310.605C659.803 311.176 659.07 311.607 658.27 311.9C657.469 312.193 656.611 312.34 655.697 312.34C653.432 312.34 651.682 311.553 650.447 309.979C649.213 308.404 648.596 306.168 648.596 303.27C648.596 300.324 649.219 298.074 650.465 296.52C651.711 294.965 653.51 294.188 655.861 294.188C656.564 294.188 657.256 294.287 657.936 294.486C658.615 294.686 659.252 294.973 659.846 295.348L659.846 299.18C659.361 298.555 658.805 298.084 658.176 297.768C657.547 297.451 656.857 297.293 656.107 297.293C654.795 297.293 653.814 297.787 653.166 298.775C652.518 299.764 652.193 301.262 652.193 303.27C652.193 305.215 652.506 306.695 653.131 307.711C653.756 308.727 654.666 309.234 655.861 309.234C656.221 309.234 656.533 309.201 656.799 309.135C657.064 309.068 657.279 308.969 657.443 308.836Z" fill="#000000" fill-rule="nonzero" opacity="1" stroke="none"/>
<path d="M559.281 332.324C557.539 331.66 556.359 330.963 555.742 330.232C555.125 329.502 554.816 328.52 554.816 327.285C554.816 325.699 555.324 324.453 556.34 323.547C557.355 322.641 558.75 322.188 560.523 322.188C561.328 322.188 562.133 322.279 562.938 322.463C563.742 322.646 564.539 322.918 565.328 323.277L565.328 326.652C564.586 326.129 563.832 325.73 563.066 325.457C562.301 325.184 561.543 325.047 560.793 325.047C559.957 325.047 559.316 325.215 558.871 325.551C558.426 325.887 558.203 326.367 558.203 326.992C558.203 327.477 558.365 327.877 558.689 328.193C559.014 328.51 559.691 328.859 560.723 329.242L562.211 329.805C563.617 330.32 564.652 331.004 565.316 331.855C565.98 332.707 566.312 333.781 566.312 335.078C566.312 336.844 565.791 338.162 564.748 339.033C563.705 339.904 562.129 340.34 560.02 340.34C559.152 340.34 558.283 340.236 557.412 340.029C556.541 339.822 555.699 339.516 554.887 339.109L554.887 335.535C555.809 336.191 556.701 336.68 557.564 337C558.428 337.32 559.281 337.48 560.125 337.48C560.977 337.48 561.637 337.287 562.105 336.9C562.574 336.514 562.809 335.973 562.809 335.277C562.809 334.754 562.652 334.295 562.34 333.9C562.027 333.506 561.574 333.195 560.98 332.969L559.281 332.324Z" fill="#000000" fill-rule="nonzero" opacity="1" stroke="none"/>
<path d="M580.668 339.355C579.871 339.684 579.059 339.93 578.23 340.094C577.402 340.258 576.527 340.34 575.605 340.34C573.41 340.34 571.732 339.752 570.572 338.576C569.412 337.4 568.832 335.707 568.832 333.496C568.832 331.355 569.391 329.664 570.508 328.422C571.625 327.18 573.148 326.559 575.078 326.559C577.023 326.559 578.533 327.135 579.607 328.287C580.682 329.439 581.219 331.062 581.219 333.156L581.219 334.551L572.324 334.551C572.332 335.582 572.637 336.352 573.238 336.859C573.84 337.367 574.738 337.621 575.934 337.621C576.723 337.621 577.5 337.508 578.266 337.281C579.031 337.055 579.832 336.695 580.668 336.203L580.668 339.355ZM577.762 331.973C577.746 331.066 577.514 330.381 577.064 329.916C576.615 329.451 575.953 329.219 575.078 329.219C574.289 329.219 573.66 329.459 573.191 329.939C572.723 330.42 572.445 331.102 572.359 331.984L577.762 331.973Z" fill="#000000" fill-rule="nonzero" opacity="1" stroke="none"/>
<path d="M591.613 333.227C591.613 332.055 591.391 331.115 590.945 330.408C590.5 329.701 589.914 329.348 589.188 329.348C588.469 329.348 587.889 329.699 587.447 330.402C587.006 331.105 586.785 332.047 586.785 333.227C586.785 334.414 587.006 335.359 587.447 336.062C587.889 336.766 588.469 337.117 589.188 337.117C589.914 337.117 590.5 336.764 590.945 336.057C591.391 335.35 591.613 334.406 591.613 333.227ZM595.047 339.016C595.047 341.117 594.572 342.635 593.623 343.568C592.674 344.502 591.133 344.969 589 344.969C588.281 344.969 587.57 344.916 586.867 344.811C586.164 344.705 585.449 344.543 584.723 344.324L584.723 341.172C585.371 341.531 586.031 341.797 586.703 341.969C587.375 342.141 588.066 342.227 588.777 342.227C589.746 342.227 590.461 341.998 590.922 341.541C591.383 341.084 591.613 340.371 591.613 339.402L591.613 337.984C591.277 338.609 590.832 339.074 590.277 339.379C589.723 339.684 589.047 339.836 588.25 339.836C586.75 339.836 585.559 339.25 584.676 338.078C583.793 336.906 583.352 335.316 583.352 333.309C583.352 331.23 583.793 329.582 584.676 328.363C585.559 327.145 586.742 326.535 588.227 326.535C588.977 326.535 589.645 326.711 590.23 327.062C590.816 327.414 591.277 327.91 591.613 328.551L591.613 326.875L595.047 326.875L595.047 339.016Z" fill="#000000" fill-rule="nonzero" opacity="1" stroke="none"/>
<path d="M604.738 328.188C604.996 327.633 605.324 327.223 605.723 326.957C606.121 326.691 606.609 326.559 607.188 326.559C608.32 326.559 609.104 326.949 609.537 327.73C609.971 328.512 610.188 330.137 610.188 332.605L610.188 340L607.375 340L607.375 331.574C607.375 330.598 607.301 329.945 607.152 329.617C607.004 329.289 606.734 329.125 606.344 329.125C605.953 329.125 605.68 329.293 605.523 329.629C605.367 329.965 605.289 330.613 605.289 331.574L605.289 340L602.512 340L602.512 331.574C602.512 330.613 602.434 329.965 602.277 329.629C602.121 329.293 601.848 329.125 601.457 329.125C601.066 329.125 600.797 329.289 600.648 329.617C600.5 329.945 600.426 330.598 600.426 331.574L600.426 340L597.613 340L597.613 326.875L600.109 326.875L600.109 328.234C600.305 327.719 600.617 327.311 601.047 327.01C601.477 326.709 601.957 326.559 602.488 326.559C603.02 326.559 603.504 326.717 603.941 327.033C604.379 327.35 604.645 327.734 604.738 328.188Z" fill="#000000" fill-rule="nonzero" opacity="1" stroke="none"/>
<path d="M624.016 339.355C623.219 339.684 622.406 339.93 621.578 340.094C620.75 340.258 619.875 340.34 618.953 340.34C616.758 340.34 615.08 339.752 613.92 338.576C612.76 337.4 612.18 335.707 612.18 333.496C612.18 331.355 612.738 329.664 613.855 328.422C614.973 327.18 616.496 326.559 618.426 326.559C620.371 326.559 621.881 327.135 622.955 328.287C624.029 329.439 624.566 331.062 624.566 333.156L624.566 334.551L615.672 334.551C615.68 335.582 615.984 336.352 616.586 336.859C617.188 337.367 618.086 337.621 619.281 337.621C620.07 337.621 620.848 337.508 621.613 337.281C622.379 337.055 623.18 336.695 624.016 336.203L624.016 339.355ZM621.109 331.973C621.094 331.066 620.861 330.381 620.412 329.916C619.963 329.451 619.301 329.219 618.426 329.219C617.637 329.219 617.008 329.459 616.539 329.939C616.07 330.42 615.793 331.102 615.707 331.984L621.109 331.973Z" fill="#000000" fill-rule="nonzero" opacity="1" stroke="none"/>
<path d="M638.102 331.48L638.102 340L634.691 340L634.691 332.008C634.691 331.055 634.557 330.373 634.287 329.963C634.018 329.553 633.578 329.348 632.969 329.348C632.352 329.348 631.865 329.625 631.51 330.18C631.154 330.734 630.977 331.504 630.977 332.488L630.977 340L627.566 340L627.566 326.875L630.977 326.875L630.977 328.844C631.219 328.117 631.633 327.555 632.219 327.156C632.805 326.758 633.512 326.559 634.34 326.559C635.582 326.559 636.52 326.971 637.152 327.795C637.785 328.619 638.102 329.848 638.102 331.48Z" fill="#000000" fill-rule="nonzero" opacity="1" stroke="none"/>
<path d="M648.086 323.148L648.086 326.875L652.574 326.875L652.574 329.512L648.086 329.512L648.086 335.723C648.086 336.309 648.229 336.729 648.514 336.982C648.799 337.236 649.273 337.363 649.938 337.363L652.574 337.363L652.574 340L649.691 340C647.723 340 646.391 339.686 645.695 339.057C645 338.428 644.652 337.262 644.652 335.559L644.652 329.512L641.301 329.512L641.301 326.875L644.652 326.875L644.652 323.148L648.086 323.148Z" fill="#000000" fill-rule="nonzero" opacity="1" stroke="none"/>
<path d="M662.652 333.836C661.371 333.836 660.477 334 659.969 334.328C659.461 334.656 659.207 335.219 659.207 336.016C659.207 336.609 659.383 337.082 659.734 337.434C660.086 337.785 660.562 337.961 661.164 337.961C662.07 337.961 662.773 337.619 663.273 336.936C663.773 336.252 664.023 335.297 664.023 334.07L664.023 333.836L662.652 333.836ZM667.434 332.512L667.434 340L664.023 340L664.023 338.535C663.609 339.113 663.078 339.559 662.43 339.871C661.781 340.184 661.066 340.34 660.285 340.34C658.793 340.34 657.631 339.945 656.799 339.156C655.967 338.367 655.551 337.266 655.551 335.852C655.551 334.32 656.047 333.189 657.039 332.459C658.031 331.729 659.566 331.363 661.645 331.363L664.023 331.363L664.023 330.789C664.023 330.234 663.822 329.814 663.42 329.529C663.018 329.244 662.426 329.102 661.645 329.102C660.824 329.102 660.029 329.205 659.26 329.412C658.49 329.619 657.688 329.949 656.852 330.402L656.852 327.473C657.609 327.16 658.379 326.93 659.16 326.781C659.941 326.633 660.77 326.559 661.645 326.559C663.777 326.559 665.275 326.992 666.139 327.859C667.002 328.727 667.434 330.277 667.434 332.512Z" fill="#000000" fill-rule="nonzero" opacity="1" stroke="none"/>
<path d="M676.984 323.148L676.984 326.875L681.473 326.875L681.473 329.512L676.984 329.512L676.984 335.723C676.984 336.309 677.127 336.729 677.412 336.982C677.697 337.236 678.172 337.363 678.836 337.363L681.473 337.363L681.473 340L678.59 340C676.621 340 675.289 339.686 674.594 339.057C673.898 338.428 673.551 337.262 673.551 335.559L673.551 329.512L670.199 329.512L670.199 326.875L673.551 326.875L673.551 323.148L676.984 323.148Z" fill="#000000" fill-rule="nonzero" opacity="1" stroke="none"/>
<path d="M685.938 326.875L692.734 326.875L692.734 337.363L697 337.363L697 340L685.023 340L685.023 337.363L689.301 337.363L689.301 329.512L685.938 329.512L685.938 326.875ZM689.301 320.488L692.734 320.488L692.734 324.496L689.301 324.496L689.301 320.488Z" fill="#000000" fill-rule="nonzero" opacity="1" stroke="none"/>
<path d="M705.016 329.348C704.195 329.348 703.551 329.709 703.082 330.432C702.613 331.154 702.379 332.16 702.379 333.449C702.379 334.738 702.613 335.744 703.082 336.467C703.551 337.189 704.195 337.551 705.016 337.551C705.844 337.551 706.492 337.189 706.961 336.467C707.43 335.744 707.664 334.738 707.664 333.449C707.664 332.16 707.43 331.154 706.961 330.432C706.492 329.709 705.844 329.348 705.016 329.348ZM698.945 333.449C698.945 331.332 699.494 329.654 700.592 328.416C701.689 327.178 703.164 326.559 705.016 326.559C706.875 326.559 708.354 327.178 709.451 328.416C710.549 329.654 711.098 331.332 711.098 333.449C711.098 335.566 710.549 337.244 709.451 338.482C708.354 339.721 706.875 340.34 705.016 340.34C703.164 340.34 701.689 339.721 700.592 338.482C699.494 337.244 698.945 335.566 698.945 333.449Z" fill="#000000" fill-rule="nonzero" opacity="1" stroke="none"/>
<path d="M724.797 331.48L724.797 340L721.387 340L721.387 332.008C721.387 331.055 721.252 330.373 720.982 329.963C720.713 329.553 720.273 329.348 719.664 329.348C719.047 329.348 718.561 329.625 718.205 330.18C717.85 330.734 717.672 331.504 717.672 332.488L717.672 340L714.262 340L714.262 326.875L717.672 326.875L717.672 328.844C717.914 328.117 718.328 327.555 718.914 327.156C719.5 326.758 720.207 326.559 721.035 326.559C722.277 326.559 723.215 326.971 723.848 327.795C724.48 328.619 724.797 329.848 724.797 331.48Z" fill="#000000" fill-rule="nonzero" opacity="1" stroke="none"/>
<path d="M578.582 349.789C577.551 351.656 576.785 353.465 576.285 355.215C575.785 356.965 575.535 358.715 575.535 360.465C575.535 362.199 575.785 363.947 576.285 365.709C576.785 367.471 577.551 369.289 578.582 371.164L575.91 371.164C574.668 369.359 573.746 367.58 573.145 365.826C572.543 364.072 572.242 362.285 572.242 360.465C572.242 358.652 572.545 356.865 573.15 355.104C573.756 353.342 574.676 351.57 575.91 349.789L578.582 349.789Z" fill="#000000" fill-rule="nonzero" opacity="1" stroke="none"/>
<path d="M587.008 360.055L587.008 365.234L589.305 365.234C590.406 365.234 591.178 365.047 591.619 364.672C592.061 364.297 592.281 363.645 592.281 362.715C592.281 361.77 592.051 361.09 591.59 360.676C591.129 360.262 590.367 360.055 589.305 360.055L587.008 360.055ZM587.008 353.234L587.008 357.301L589.305 357.301C590.18 357.301 590.803 357.145 591.174 356.832C591.545 356.52 591.73 356.004 591.73 355.285C591.73 354.566 591.541 354.045 591.162 353.721C590.783 353.396 590.164 353.234 589.305 353.234L587.008 353.234ZM583.668 350.48L589.305 350.48C591.25 350.48 592.713 350.85 593.693 351.588C594.674 352.326 595.164 353.43 595.164 354.898C595.164 356.023 594.875 356.902 594.297 357.535C593.719 358.168 592.871 358.535 591.754 358.637C593.09 358.77 594.096 359.219 594.771 359.984C595.447 360.75 595.785 361.82 595.785 363.195C595.785 364.883 595.277 366.105 594.262 366.863C593.246 367.621 591.594 368 589.305 368L583.668 368L583.668 350.48Z" fill="#000000" fill-rule="nonzero" opacity="1" stroke="none"/>
<path d="M604.855 361.836C603.574 361.836 602.68 362 602.172 362.328C601.664 362.656 601.41 363.219 601.41 364.016C601.41 364.609 601.586 365.082 601.938 365.434C602.289 365.785 602.766 365.961 603.367 365.961C604.273 365.961 604.977 365.619 605.477 364.936C605.977 364.252 606.227 363.297 606.227 362.07L606.227 361.836L604.855 361.836ZM609.637 360.512L609.637 368L606.227 368L606.227 366.535C605.812 367.113 605.281 367.559 604.633 367.871C603.984 368.184 603.27 368.34 602.488 368.34C600.996 368.34 599.834 367.945 599.002 367.156C598.17 366.367 597.754 365.266 597.754 363.852C597.754 362.32 598.25 361.189 599.242 360.459C600.234 359.729 601.77 359.363 603.848 359.363L606.227 359.363L606.227 358.789C606.227 358.234 606.025 357.814 605.623 357.529C605.221 357.244 604.629 357.102 603.848 357.102C603.027 357.102 602.232 357.205 601.463 357.412C600.693 357.619 599.891 357.949 599.055 358.402L599.055 355.473C599.813 355.16 600.582 354.93 601.363 354.781C602.145 354.633 602.973 354.559 603.848 354.559C605.98 354.559 607.479 354.992 608.342 355.859C609.205 356.727 609.637 358.277 609.637 360.512Z" fill="#000000" fill-rule="nonzero" opacity="1" stroke="none"/>
<path d="M623.535 367.332C622.957 367.668 622.336 367.92 621.672 368.088C621.008 368.256 620.293 368.34 619.527 368.34C617.504 368.34 615.922 367.73 614.781 366.512C613.641 365.293 613.07 363.605 613.07 361.449C613.07 359.285 613.645 357.592 614.793 356.369C615.941 355.146 617.527 354.535 619.551 354.535C620.254 354.535 620.932 354.617 621.584 354.781C622.236 354.945 622.887 355.199 623.535 355.543L623.535 358.684C623.035 358.254 622.486 357.924 621.889 357.693C621.291 357.463 620.672 357.348 620.031 357.348C618.914 357.348 618.055 357.703 617.453 358.414C616.852 359.125 616.551 360.137 616.551 361.449C616.551 362.762 616.852 363.77 617.453 364.473C618.055 365.176 618.914 365.527 620.031 365.527C620.695 365.527 621.316 365.416 621.895 365.193C622.473 364.971 623.02 364.633 623.535 364.18L623.535 367.332Z" fill="#000000" fill-rule="nonzero" opacity="1" stroke="none"/>
<path d="M627.59 349.766L631.023 349.766L631.023 359.34L635.148 354.875L639.309 354.875L634.34 359.773L639.59 368L635.793 368L632.195 361.859L631.023 362.984L631.023 368L627.59 368L627.59 349.766Z" fill="#000000" fill-rule="nonzero" opacity="1" stroke="none"/>
<path d="M649.961 361.473C649.961 360.207 649.75 359.215 649.328 358.496C648.906 357.777 648.324 357.418 647.582 357.418C646.84 357.418 646.254 357.777 645.824 358.496C645.395 359.215 645.18 360.207 645.18 361.473C645.18 362.738 645.395 363.73 645.824 364.449C646.254 365.168 646.84 365.527 647.582 365.527C648.324 365.527 648.906 365.168 649.328 364.449C649.75 363.73 649.961 362.738 649.961 361.473ZM645.18 356.738C645.602 356.012 646.092 355.467 646.65 355.104C647.209 354.74 647.84 354.559 648.543 354.559C650.098 354.559 651.295 355.152 652.135 356.34C652.975 357.527 653.395 359.23 653.395 361.449C653.395 363.637 652.98 365.332 652.152 366.535C651.324 367.738 650.16 368.34 648.66 368.34C647.871 368.34 647.184 368.148 646.598 367.766C646.012 367.383 645.539 366.813 645.18 366.055L645.18 368L641.758 368L641.758 349.766L645.18 349.766L645.18 356.738Z" fill="#000000" fill-rule="nonzero" opacity="1" stroke="none"/>
<path d="M661.668 357.348C660.848 357.348 660.203 357.709 659.734 358.432C659.266 359.154 659.031 360.16 659.031 361.449C659.031 362.738 659.266 363.744 659.734 364.467C660.203 365.189 660.848 365.551 661.668 365.551C662.496 365.551 663.145 365.189 663.613 364.467C664.082 363.744 664.316 362.738 664.316 361.449C664.316 360.16 664.082 359.154 663.613 358.432C663.145 357.709 662.496 357.348 661.668 357.348ZM655.598 361.449C655.598 359.332 656.146 357.654 657.244 356.416C658.342 355.178 659.816 354.559 661.668 354.559C663.527 354.559 665.006 355.178 666.104 356.416C667.201 357.654 667.75 359.332 667.75 361.449C667.75 363.566 667.201 365.244 666.104 366.482C665.006 367.721 663.527 368.34 661.668 368.34C659.816 368.34 658.342 367.721 657.244 366.482C656.146 365.244 655.598 363.566 655.598 361.449Z" fill="#000000" fill-rule="nonzero" opacity="1" stroke="none"/>
<path d="M681.449 359.48L681.449 368L678.039 368L678.039 360.008C678.039 359.055 677.904 358.373 677.635 357.963C677.365 357.553 676.926 357.348 676.316 357.348C675.699 357.348 675.213 357.625 674.857 358.18C674.502 358.734 674.324 359.504 674.324 360.488L674.324 368L670.914 368L670.914 354.875L674.324 354.875L674.324 356.844C674.566 356.117 674.98 355.555 675.566 355.156C676.152 354.758 676.859 354.559 677.688 354.559C678.93 354.559 679.867 354.971 680.5 355.795C681.133 356.619 681.449 357.848 681.449 359.48Z" fill="#000000" fill-rule="nonzero" opacity="1" stroke="none"/>
<path d="M696.262 367.355C695.465 367.684 694.652 367.93 693.824 368.094C692.996 368.258 692.121 368.34 691.199 368.34C689.004 368.34 687.326 367.752 686.166 366.576C685.006 365.4 684.426 363.707 684.426 361.496C684.426 359.355 684.984 357.664 686.102 356.422C687.219 355.18 688.742 354.559 690.672 354.559C692.617 354.559 694.127 355.135 695.201 356.287C696.275 357.439 696.812 359.062 696.812 361.156L696.812 362.551L687.918 362.551C687.926 363.582 688.23 364.352 688.832 364.859C689.434 365.367 690.332 365.621 691.527 365.621C692.316 365.621 693.094 365.508 693.859 365.281C694.625 365.055 695.426 364.695 696.262 364.203L696.262 367.355ZM693.355 359.973C693.34 359.066 693.107 358.381 692.658 357.916C692.209 357.451 691.547 357.219 690.672 357.219C689.883 357.219 689.254 357.459 688.785 357.939C688.316 358.42 688.039 359.102 687.953 359.984L693.355 359.973Z" fill="#000000" fill-rule="nonzero" opacity="1" stroke="none"/>
<path d="M701.418 349.789L704.09 349.789C705.324 351.57 706.244 353.342 706.85 355.104C707.455 356.865 707.758 358.652 707.758 360.465C707.758 362.285 707.457 364.072 706.855 365.826C706.254 367.58 705.332 369.359 704.09 371.164L701.418 371.164C702.449 369.289 703.215 367.471 703.715 365.709C704.215 363.947 704.465 362.199 704.465 360.465C704.465 358.715 704.215 356.965 703.715 355.215C703.215 353.465 702.449 351.656 701.418 349.789Z" fill="#000000" fill-rule="nonzero" opacity="1" stroke="none"/>
</g>
<path d="M530 160L750 160L750 200L530 200L530 160Z" fill="none" opacity="1" stroke="#000000" stroke-linecap="butt" stroke-linejoin="round" stroke-width="0.1"/>
<path d="M530 160L750 160L750 200L530 200L530 160Z" fill="#fbfbfb" fill-rule="nonzero" opacity="1" stroke="#000000" stroke-linecap="butt" stroke-linejoin="round" stroke-opacity="0.99" stroke-width="3"/>
<g opacity="1">
<path d="M612.496 174.504L616.211 174.504L621.086 187.219L621.086 174.504L624.133 174.504L624.133 192L620.441 192L615.543 179.285L615.543 192L612.496 192L612.496 174.504Z" fill="#000000" fill-rule="nonzero" opacity="1" stroke="none"/>
<path d="M638.418 192L627.52 192L627.52 174.504L638.418 174.504L638.418 177.551L630.977 177.551L630.977 181.324L637.715 181.324L637.715 184.371L630.977 184.371L630.977 188.953L638.418 188.953L638.418 192Z" fill="#000000" fill-rule="nonzero" opacity="1" stroke="none"/>
<path d="M652.668 191.496C652.121 191.777 651.547 191.988 650.945 192.129C650.344 192.27 649.711 192.34 649.047 192.34C646.687 192.34 644.887 191.563 643.645 190.008C642.402 188.453 641.781 186.207 641.781 183.27C641.781 180.324 642.402 178.074 643.645 176.52C644.887 174.965 646.687 174.188 649.047 174.188C649.711 174.188 650.348 174.258 650.957 174.398C651.566 174.539 652.137 174.75 652.668 175.031L652.668 178.875C652.074 178.328 651.498 177.928 650.939 177.674C650.381 177.42 649.805 177.293 649.211 177.293C647.945 177.293 646.99 177.795 646.346 178.799C645.701 179.803 645.379 181.293 645.379 183.27C645.379 185.238 645.701 186.725 646.346 187.729C646.99 188.732 647.945 189.234 649.211 189.234C649.805 189.234 650.381 189.107 650.939 188.854C651.498 188.6 652.074 188.199 652.668 187.652L652.668 191.496Z" fill="#000000" fill-rule="nonzero" opacity="1" stroke="none"/>
<path d="M655.82 174.504L659.277 174.504L659.277 181.418L664.691 174.504L668.605 174.504L663.086 181.395L668.805 192L664.961 192L660.812 184.125L659.277 186.07L659.277 192L655.82 192L655.82 174.504Z" fill="#000000" fill-rule="nonzero" opacity="1" stroke="none"/>
</g>
<path d="M410 100L550 100L550 140L410 140L410 100Z" fill="none" opacity="1" stroke="#000000" stroke-linecap="butt" stroke-linejoin="round" stroke-width="0.1"/>
<path d="M410 100L550 100L550 140L410 140L410 100Z" fill="#fbfbfb" fill-rule="nonzero" opacity="1" stroke="#000000" stroke-linecap="butt" stroke-linejoin="round" stroke-opacity="0.99" stroke-width="3"/>
<g opacity="1">
<path d="M583.101 26.4595L581.676 32.7246L584.537 32.7246L583.101 26.4595ZM581.255 23.6909L584.957 23.6909L589.089 39L586.064 39L585.121 35.2163L581.071 35.2163L580.148 39L577.123 39L581.255 23.6909Z" fill="#8b8b8b" fill-rule="nonzero" opacity="1" stroke="none"/>
<path d="M601.23 30.6841C600.902 30.3833 600.517 30.1577 600.076 30.0073C599.635 29.8569 599.152 29.7817 598.625 29.7817C597.99 29.7817 597.434 29.8928 596.959 30.115C596.484 30.3372 596.117 30.6602 595.857 31.084C595.693 31.3438 595.578 31.6582 595.513 32.0273C595.448 32.3965 595.416 32.957 595.416 33.709L595.416 39L592.412 39L592.412 27.5156L595.416 27.5156L595.416 29.2998C595.71 28.6436 596.161 28.136 596.77 27.7771C597.378 27.4182 598.089 27.2388 598.902 27.2388C599.313 27.2388 599.714 27.2883 600.107 27.3875C600.5 27.4866 600.875 27.6318 601.23 27.8232L601.23 30.6841Z" fill="#8b8b8b" fill-rule="nonzero" opacity="1" stroke="none"/>
<path d="M613.873 30.6841C613.545 30.3833 613.16 30.1577 612.719 30.0073C612.279 29.8569 611.795 29.7817 611.269 29.7817C610.633 29.7817 610.077 29.8928 609.602 30.115C609.127 30.3372 608.76 30.6602 608.5 31.084C608.336 31.3438 608.221 31.6582 608.156 32.0273C608.092 32.3965 608.059 32.957 608.059 33.709L608.059 39L605.055 39L605.055 27.5156L608.059 27.5156L608.059 29.2998C608.353 28.6436 608.804 28.136 609.413 27.7771C610.021 27.4182 610.732 27.2388 611.545 27.2388C611.956 27.2388 612.357 27.2883 612.75 27.3875C613.143 27.4866 613.518 27.6318 613.873 27.8232L613.873 30.6841Z" fill="#8b8b8b" fill-rule="nonzero" opacity="1" stroke="none"/>
<path d="M625.696 31.5454L625.696 39L622.712 39L622.712 32.0068C622.712 31.1797 622.594 30.5884 622.358 30.2329C622.122 29.8774 621.738 29.6997 621.205 29.6997C620.658 29.6997 620.23 29.9407 619.923 30.4226C619.615 30.9045 619.461 31.5728 619.461 32.4272L619.461 39L616.478 39L616.478 23.0449L619.461 23.0449L619.461 29.2383C619.673 28.6025 620.036 28.1104 620.548 27.7617C621.061 27.4131 621.68 27.2388 622.404 27.2388C623.491 27.2388 624.312 27.5994 624.865 28.3206C625.419 29.0417 625.696 30.1167 625.696 31.5454Z" fill="#8b8b8b" fill-rule="nonzero" opacity="1" stroke="none"/>
<path d="M634.647 40.2407C634.244 41.3208 633.76 42.1086 633.197 42.6042C632.633 43.0999 631.947 43.3477 631.141 43.3477L628.659 43.3477L628.659 41.061L629.879 41.061C630.495 41.061 630.946 40.9568 631.233 40.7483C631.52 40.5398 631.811 40.0562 632.104 39.2974L632.33 38.6821L627.962 27.5156L631.12 27.5156L633.745 34.9702L636.257 27.5156L639.416 27.5156L634.647 40.2407Z" fill="#8b8b8b" fill-rule="nonzero" opacity="1" stroke="none"/>
<path d="M647.075 24.2549L647.075 27.5156L651.002 27.5156L651.002 29.8228L647.075 29.8228L647.075 35.2573C647.075 35.77 647.2 36.1375 647.449 36.3596C647.699 36.5818 648.114 36.6929 648.695 36.6929L651.002 36.6929L651.002 39L648.48 39C646.757 39 645.592 38.7249 644.983 38.1746C644.375 37.6243 644.071 36.604 644.071 35.1138L644.071 29.8228L641.138 29.8228L641.138 27.5156L644.071 27.5156L644.071 24.2549L647.075 24.2549Z" fill="#8b8b8b" fill-rule="nonzero" opacity="1" stroke="none"/>
<path d="M663.625 31.5454L663.625 39L660.641 39L660.641 32.0068C660.641 31.1797 660.523 30.5884 660.287 30.2329C660.052 29.8774 659.667 29.6997 659.134 29.6997C658.587 29.6997 658.16 29.9407 657.852 30.4226C657.544 30.9045 657.391 31.5728 657.391 32.4272L657.391 39L654.407 39L654.407 23.0449L657.391 23.0449L657.391 29.2383C657.603 28.6025 657.965 28.1104 658.478 27.7617C658.99 27.4131 659.609 27.2388 660.333 27.2388C661.42 27.2388 662.241 27.5994 662.794 28.3206C663.348 29.0417 663.625 30.1167 663.625 31.5454Z" fill="#8b8b8b" fill-rule="nonzero" opacity="1" stroke="none"/>
<path d="M672.361 28.6641C672.587 28.1787 672.874 27.8198 673.223 27.5874C673.571 27.355 673.999 27.2388 674.504 27.2388C675.496 27.2388 676.181 27.5806 676.56 28.2642C676.94 28.9478 677.129 30.3696 677.129 32.5298L677.129 39L674.668 39L674.668 31.6274C674.668 30.7729 674.604 30.2021 674.474 29.915C674.344 29.6279 674.108 29.4844 673.766 29.4844C673.424 29.4844 673.185 29.6313 673.048 29.9253C672.912 30.2192 672.843 30.7866 672.843 31.6274L672.843 39L670.413 39L670.413 31.6274C670.413 30.7866 670.345 30.2192 670.208 29.9253C670.071 29.6313 669.832 29.4844 669.49 29.4844C669.148 29.4844 668.913 29.6279 668.783 29.915C668.653 30.2021 668.588 30.7729 668.588 31.6274L668.588 39L666.127 39L666.127 27.5156L668.311 27.5156L668.311 28.7051C668.482 28.2539 668.755 27.8967 669.131 27.6335C669.507 27.3704 669.928 27.2388 670.393 27.2388C670.857 27.2388 671.281 27.3772 671.664 27.6541C672.047 27.9309 672.279 28.2676 672.361 28.6641Z" fill="#8b8b8b" fill-rule="nonzero" opacity="1" stroke="none"/>
<path d="M680.195 27.5156L686.143 27.5156L686.143 36.6929L689.875 36.6929L689.875 39L679.396 39L679.396 36.6929L683.138 36.6929L683.138 29.8228L680.195 29.8228L680.195 27.5156ZM683.138 21.9272L686.143 21.9272L686.143 25.4341L683.138 25.4341L683.138 21.9272Z" fill="#8b8b8b" fill-rule="nonzero" opacity="1" stroke="none"/>
<path d="M697.75 33.6064C696.629 33.6064 695.846 33.75 695.402 34.0371C694.958 34.3242 694.735 34.8164 694.735 35.5137C694.735 36.0332 694.889 36.4468 695.197 36.7544C695.504 37.062 695.921 37.2158 696.448 37.2158C697.241 37.2158 697.856 36.9167 698.293 36.3186C698.731 35.7205 698.95 34.8848 698.95 33.8115L698.95 33.6064L697.75 33.6064ZM701.934 32.4478L701.934 39L698.95 39L698.95 37.7183C698.587 38.2241 698.123 38.6138 697.555 38.8872C696.988 39.1606 696.362 39.2974 695.679 39.2974C694.373 39.2974 693.356 38.9521 692.628 38.2617C691.9 37.5713 691.536 36.6074 691.536 35.3701C691.536 34.0303 691.97 33.0408 692.838 32.4016C693.707 31.7625 695.05 31.4429 696.868 31.4429L698.95 31.4429L698.95 30.9404C698.95 30.4551 698.774 30.0876 698.422 29.8381C698.07 29.5886 697.552 29.4639 696.868 29.4639C696.15 29.4639 695.455 29.5544 694.781 29.7356C694.108 29.9167 693.406 30.2056 692.674 30.6021L692.674 28.0386C693.337 27.7651 694.011 27.5635 694.694 27.4336C695.378 27.3037 696.103 27.2388 696.868 27.2388C698.734 27.2388 700.045 27.6182 700.801 28.377C701.556 29.1357 701.934 30.4927 701.934 32.4478Z" fill="#8b8b8b" fill-rule="nonzero" opacity="1" stroke="none"/>
</g>
<g opacity="1">
<path d="M462.44 23.6909L465.465 23.6909L465.465 29.5254L469.249 29.5254L469.249 23.6909L472.274 23.6909L472.274 39L469.249 39L469.249 32.1914L465.465 32.1914L465.465 39L462.44 39L462.44 23.6909Z" fill="#8b8b8b" fill-rule="nonzero" opacity="1" stroke="none"/>
<path d="M481.953 31.771C482.254 31.8325 482.516 31.9744 482.738 32.1965C482.96 32.4187 483.232 32.8511 483.553 33.4937L486.322 39L482.999 39L481.154 35.1343C481.099 35.0249 481.027 34.8745 480.938 34.6831C480.398 33.5278 479.762 32.9502 479.031 32.9502L478.067 32.9502L478.067 39L475.042 39L475.042 23.6909L479.41 23.6909C481.379 23.6909 482.792 24.0396 483.65 24.7368C484.508 25.4341 484.937 26.5688 484.937 28.1411C484.937 29.1938 484.681 30.0312 484.168 30.6533C483.656 31.2754 482.917 31.6479 481.953 31.771ZM478.067 26.2339L478.067 30.4072L479.492 30.4072C480.32 30.4072 480.913 30.2449 481.271 29.9202C481.63 29.5955 481.81 29.0605 481.81 28.3154C481.81 27.5703 481.632 27.0371 481.277 26.7158C480.921 26.3945 480.326 26.2339 479.492 26.2339L478.067 26.2339Z" fill="#8b8b8b" fill-rule="nonzero" opacity="1" stroke="none"/>
<path d="M492.638 36.4775L495.335 23.6909L498.38 23.6909L494.74 39L490.546 39L486.906 23.6909L489.951 23.6909L492.638 36.4775Z" fill="#8b8b8b" fill-rule="nonzero" opacity="1" stroke="none"/>
</g>
<g opacity="1">
<path d="M778.918 32.0479L778.918 36.5801L780.928 36.5801C781.892 36.5801 782.567 36.416 782.953 36.0879C783.339 35.7598 783.532 35.189 783.532 34.3755C783.532 33.5483 783.331 32.9536 782.927 32.5913C782.524 32.229 781.857 32.0479 780.928 32.0479L778.918 32.0479ZM778.918 26.0801L778.918 29.6382L780.928 29.6382C781.693 29.6382 782.239 29.5015 782.563 29.228C782.888 28.9546 783.05 28.5034 783.05 27.8745C783.05 27.2456 782.885 26.7893 782.553 26.5056C782.221 26.2219 781.68 26.0801 780.928 26.0801L778.918 26.0801ZM775.996 23.6704L780.928 23.6704C782.63 23.6704 783.91 23.9934 784.768 24.6394C785.626 25.2854 786.055 26.251 786.055 27.5361C786.055 28.5205 785.802 29.2896 785.296 29.8433C784.79 30.397 784.048 30.7183 783.071 30.8071C784.24 30.9233 785.12 31.3164 785.711 31.9863C786.302 32.6563 786.598 33.5928 786.598 34.7959C786.598 36.2725 786.154 37.3423 785.265 38.0054C784.376 38.6685 782.931 39 780.928 39L775.996 39L775.996 23.6704Z" fill="#8b8b8b" fill-rule="nonzero" opacity="1" stroke="none"/>
<path d="M798.657 38.436C797.959 38.7231 797.249 38.9385 796.524 39.082C795.799 39.2256 795.034 39.2974 794.227 39.2974C792.306 39.2974 790.838 38.783 789.823 37.7542C788.808 36.7253 788.3 35.2437 788.3 33.3091C788.3 31.436 788.789 29.9561 789.767 28.8691C790.744 27.7822 792.077 27.2388 793.766 27.2388C795.468 27.2388 796.789 27.7429 797.729 28.7512C798.669 29.7595 799.139 31.1797 799.139 33.0117L799.139 34.2319L791.356 34.2319C791.363 35.1343 791.629 35.8076 792.156 36.252C792.682 36.6963 793.468 36.9185 794.514 36.9185C795.205 36.9185 795.885 36.8193 796.555 36.6211C797.225 36.4229 797.925 36.1084 798.657 35.6777L798.657 38.436ZM796.114 31.9761C796.1 31.1831 795.897 30.5833 795.504 30.1765C795.111 29.7698 794.531 29.5664 793.766 29.5664C793.075 29.5664 792.525 29.7766 792.115 30.197C791.705 30.6174 791.462 31.2139 791.387 31.9863L796.114 31.9761Z" fill="#8b8b8b" fill-rule="nonzero" opacity="1" stroke="none"/>
<path d="M807.178 33.6064C806.057 33.6064 805.274 33.75 804.83 34.0371C804.385 34.3242 804.163 34.8164 804.163 35.5137C804.163 36.0332 804.317 36.4468 804.625 36.7544C804.932 37.062 805.349 37.2158 805.875 37.2158C806.668 37.2158 807.284 36.9167 807.721 36.3186C808.159 35.7205 808.377 34.8848 808.377 33.8115L808.377 33.6064L807.178 33.6064ZM811.361 32.4478L811.361 39L808.377 39L808.377 37.7183C808.015 38.2241 807.55 38.6138 806.983 38.8872C806.416 39.1606 805.79 39.2974 805.106 39.2974C803.801 39.2974 802.784 38.9521 802.056 38.2617C801.328 37.5713 800.964 36.6074 800.964 35.3701C800.964 34.0303 801.398 33.0408 802.266 32.4016C803.134 31.7625 804.478 31.4429 806.296 31.4429L808.377 31.4429L808.377 30.9404C808.377 30.4551 808.201 30.0876 807.849 29.8381C807.497 29.5886 806.979 29.4639 806.296 29.4639C805.578 29.4639 804.883 29.5544 804.209 29.7356C803.536 29.9167 802.833 30.2056 802.102 30.6021L802.102 28.0386C802.765 27.7651 803.438 27.5635 804.122 27.4336C804.806 27.3037 805.53 27.2388 806.296 27.2388C808.162 27.2388 809.473 27.6182 810.228 28.377C810.984 29.1357 811.361 30.4927 811.361 32.4478Z" fill="#8b8b8b" fill-rule="nonzero" opacity="1" stroke="none"/>
<path d="M819.718 24.2549L819.718 27.5156L823.646 27.5156L823.646 29.8228L819.718 29.8228L819.718 35.2573C819.718 35.77 819.843 36.1375 820.093 36.3596C820.342 36.5818 820.757 36.6929 821.338 36.6929L823.646 36.6929L823.646 39L821.123 39C819.4 39 818.235 38.7249 817.626 38.1746C817.018 37.6243 816.714 36.604 816.714 35.1138L816.714 29.8228L813.781 29.8228L813.781 27.5156L816.714 27.5156L816.714 24.2549L819.718 24.2549Z" fill="#8b8b8b" fill-rule="nonzero" opacity="1" stroke="none"/>
</g>
<g opacity="1">
<path d="M470.994 131.496C470.447 131.777 469.873 131.988 469.271 132.129C468.67 132.27 468.037 132.34 467.373 132.34C465.014 132.34 463.213 131.563 461.971 130.008C460.729 128.453 460.107 126.207 460.107 123.27C460.107 120.324 460.729 118.074 461.971 116.52C463.213 114.965 465.014 114.188 467.373 114.188C468.037 114.188 468.674 114.258 469.283 114.398C469.893 114.539 470.463 114.75 470.994 115.031L470.994 118.875C470.4 118.328 469.824 117.928 469.266 117.674C468.707 117.42 468.131 117.293 467.537 117.293C466.271 117.293 465.316 117.795 464.672 118.799C464.027 119.803 463.705 121.293 463.705 123.27C463.705 125.238 464.027 126.725 464.672 127.729C465.316 128.732 466.271 129.234 467.537 129.234C468.131 129.234 468.707 129.107 469.266 128.854C469.824 128.6 470.4 128.199 470.994 127.652L470.994 131.496Z" fill="#000000" fill-rule="nonzero" opacity="1" stroke="none"/>
<path d="M474.17 114.504L477.885 114.504L482.76 127.219L482.76 114.504L485.807 114.504L485.807 132L482.115 132L477.217 119.285L477.217 132L474.17 132L474.17 114.504Z" fill="#000000" fill-rule="nonzero" opacity="1" stroke="none"/>
<path d="M488.619 114.504L492.334 114.504L497.209 127.219L497.209 114.504L500.256 114.504L500.256 132L496.564 132L491.666 119.285L491.666 132L488.619 132L488.619 114.504Z" fill="#000000" fill-rule="nonzero" opacity="1" stroke="none"/>
</g>
<path d="M410 50L470 50L470 90L410 90L410 50Z" fill="none" opacity="1" stroke="#000000" stroke-linecap="butt" stroke-linejoin="round" stroke-width="0.1"/>
<path d="M410 50L470 50L470 90L410 90L410 50Z" fill="#fbfbfb" fill-rule="nonzero" opacity="1" stroke="#000000" stroke-linecap="butt" stroke-linejoin="round" stroke-opacity="0.99" stroke-width="3"/>
<g opacity="1">
<path d="M432.12 78.5591C431.641 78.8052 431.139 78.9897 430.613 79.1128C430.086 79.2358 429.532 79.2974 428.951 79.2974C426.887 79.2974 425.311 78.6172 424.224 77.2568C423.137 75.8965 422.594 73.9312 422.594 71.3608C422.594 68.7837 423.137 66.8149 424.224 65.4546C425.311 64.0942 426.887 63.4141 428.951 63.4141C429.532 63.4141 430.09 63.4756 430.623 63.5986C431.156 63.7217 431.655 63.9062 432.12 64.1523L432.12 67.5156C431.6 67.0371 431.096 66.6868 430.607 66.4646C430.119 66.2424 429.615 66.1313 429.095 66.1313C427.988 66.1313 427.152 66.5706 426.588 67.449C426.024 68.3274 425.742 69.6313 425.742 71.3608C425.742 73.0835 426.024 74.384 426.588 75.2625C427.152 76.1409 427.988 76.5801 429.095 76.5801C429.615 76.5801 430.119 76.469 430.607 76.2468C431.096 76.0247 431.6 75.6743 432.12 75.1958L432.12 78.5591Z" fill="#000000" fill-rule="nonzero" opacity="1" stroke="none"/>
<path d="M435.986 79L435.986 63.6909L439.01 63.6909L439.01 76.334L445.481 76.334L445.481 79L435.986 79Z" fill="#000000" fill-rule="nonzero" opacity="1" stroke="none"/>
<path d="M451.551 72.2837C450.027 71.7026 448.994 71.0925 448.454 70.4534C447.914 69.8142 447.644 68.9546 447.644 67.8745C447.644 66.4868 448.089 65.3965 448.977 64.6035C449.866 63.8105 451.086 63.4141 452.638 63.4141C453.342 63.4141 454.046 63.4944 454.75 63.655C455.454 63.8157 456.152 64.0532 456.842 64.3677L456.842 67.3208C456.193 66.8628 455.533 66.5142 454.863 66.2749C454.193 66.0356 453.53 65.916 452.874 65.916C452.142 65.916 451.582 66.063 451.192 66.3569C450.802 66.6509 450.608 67.0713 450.608 67.6182C450.608 68.042 450.75 68.3923 451.033 68.6692C451.317 68.946 451.91 69.252 452.812 69.5869L454.115 70.0791C455.345 70.5303 456.251 71.1284 456.832 71.8735C457.413 72.6187 457.703 73.5586 457.703 74.6934C457.703 76.2383 457.247 77.3918 456.334 78.1541C455.422 78.9163 454.043 79.2974 452.197 79.2974C451.438 79.2974 450.678 79.2068 449.916 79.0256C449.153 78.8445 448.417 78.5762 447.706 78.2207L447.706 75.0933C448.512 75.6675 449.293 76.0947 450.049 76.375C450.804 76.6553 451.551 76.7954 452.289 76.7954C453.034 76.7954 453.612 76.6262 454.022 76.2878C454.432 75.9495 454.637 75.4761 454.637 74.8677C454.637 74.4097 454.501 74.0081 454.227 73.6628C453.954 73.3176 453.557 73.0459 453.038 72.8477L451.551 72.2837Z" fill="#000000" fill-rule="nonzero" opacity="1" stroke="none"/>
</g>
<path d="M730 100L870 100L870 140L730 140L730 100Z" fill="none" opacity="1" stroke="#000000" stroke-linecap="butt" stroke-linejoin="round" stroke-width="0.1"/>
<path d="M730 100L870 100L870 140L730 140L730 100Z" fill="#fbfbfb" fill-rule="nonzero" opacity="1" stroke="#000000" stroke-linecap="butt" stroke-linejoin="round" stroke-width="3"/>
<g opacity="1">
<path d="M790.994 131.496C790.447 131.777 789.873 131.988 789.271 132.129C788.67 132.27 788.037 132.34 787.373 132.34C785.014 132.34 783.213 131.563 781.971 130.008C780.729 128.453 780.107 126.207 780.107 123.27C780.107 120.324 780.729 118.074 781.971 116.52C783.213 114.965 785.014 114.188 787.373 114.188C788.037 114.188 788.674 114.258 789.283 114.398C789.893 114.539 790.463 114.75 790.994 115.031L790.994 118.875C790.4 118.328 789.824 117.928 789.266 117.674C788.707 117.42 788.131 117.293 787.537 117.293C786.271 117.293 785.316 117.795 784.672 118.799C784.027 119.803 783.705 121.293 783.705 123.27C783.705 125.238 784.027 126.725 784.672 127.729C785.316 128.732 786.271 129.234 787.537 129.234C788.131 129.234 788.707 129.107 789.266 128.854C789.824 128.6 790.4 128.199 790.994 127.652L790.994 131.496Z" fill="#000000" fill-rule="nonzero" opacity="1" stroke="none"/>
<path d="M794.17 114.504L797.885 114.504L802.76 127.219L802.76 114.504L805.807 114.504L805.807 132L802.115 132L797.217 119.285L797.217 132L794.17 132L794.17 114.504Z" fill="#000000" fill-rule="nonzero" opacity="1" stroke="none"/>
<path d="M808.619 114.504L812.334 114.504L817.209 127.219L817.209 114.504L820.256 114.504L820.256 132L816.564 132L811.666 119.285L811.666 132L808.619 132L808.619 114.504Z" fill="#000000" fill-rule="nonzero" opacity="1" stroke="none"/>
</g>
<path d="M730 50L870 50L870 90L730 90L730 50Z" fill="none" opacity="1" stroke="#000000" stroke-linecap="butt" stroke-linejoin="round" stroke-width="0.1"/>
<path d="M730 50L870 50L870 90L730 90L730 50Z" fill="#fbfbfb" fill-rule="nonzero" opacity="1" stroke="#000000" stroke-linecap="butt" stroke-linejoin="round" stroke-width="3"/>
<g opacity="1">
<path d="M792.12 78.5591C791.641 78.8052 791.139 78.9897 790.613 79.1128C790.086 79.2358 789.532 79.2974 788.951 79.2974C786.887 79.2974 785.311 78.6172 784.224 77.2568C783.137 75.8965 782.594 73.9312 782.594 71.3608C782.594 68.7837 783.137 66.8149 784.224 65.4546C785.311 64.0942 786.887 63.4141 788.951 63.4141C789.532 63.4141 790.09 63.4756 790.623 63.5986C791.156 63.7217 791.655 63.9062 792.12 64.1523L792.12 67.5156C791.6 67.0371 791.096 66.6868 790.607 66.4646C790.119 66.2424 789.615 66.1313 789.095 66.1313C787.988 66.1313 787.152 66.5706 786.588 67.449C786.024 68.3274 785.742 69.6313 785.742 71.3608C785.742 73.0835 786.024 74.384 786.588 75.2625C787.152 76.1409 787.988 76.5801 789.095 76.5801C789.615 76.5801 790.119 76.469 790.607 76.2468C791.096 76.0247 791.6 75.6743 792.12 75.1958L792.12 78.5591Z" fill="#000000" fill-rule="nonzero" opacity="1" stroke="none"/>
<path d="M795.986 79L795.986 63.6909L799.01 63.6909L799.01 76.334L805.481 76.334L805.481 79L795.986 79Z" fill="#000000" fill-rule="nonzero" opacity="1" stroke="none"/>
<path d="M811.551 72.2837C810.027 71.7026 808.994 71.0925 808.454 70.4534C807.914 69.8142 807.644 68.9546 807.644 67.8745C807.644 66.4868 808.089 65.3965 808.977 64.6035C809.866 63.8105 811.086 63.4141 812.638 63.4141C813.342 63.4141 814.046 63.4944 814.75 63.655C815.454 63.8157 816.152 64.0532 816.842 64.3677L816.842 67.3208C816.193 66.8628 815.533 66.5142 814.863 66.2749C814.193 66.0356 813.53 65.916 812.874 65.916C812.142 65.916 811.582 66.063 811.192 66.3569C810.802 66.6509 810.608 67.0713 810.608 67.6182C810.608 68.042 810.75 68.3923 811.033 68.6692C811.317 68.946 811.91 69.252 812.812 69.5869L814.115 70.0791C815.345 70.5303 816.251 71.1284 816.832 71.8735C817.413 72.6187 817.703 73.5586 817.703 74.6934C817.703 76.2383 817.247 77.3918 816.334 78.1541C815.422 78.9163 814.043 79.2974 812.197 79.2974C811.438 79.2974 810.678 79.2068 809.916 79.0256C809.153 78.8445 808.417 78.5762 807.706 78.2207L807.706 75.0933C808.512 75.6675 809.293 76.0947 810.049 76.375C810.804 76.6553 811.551 76.7954 812.289 76.7954C813.034 76.7954 813.612 76.6262 814.022 76.2878C814.432 75.9495 814.637 75.4761 814.637 74.8677C814.637 74.4097 814.501 74.0081 814.227 73.6628C813.954 73.3176 813.557 73.0459 813.038 72.8477L811.551 72.2837Z" fill="#000000" fill-rule="nonzero" opacity="1" stroke="none"/>
</g>
<path d="M490 50L550 50L550 90L490 90L490 50Z" fill="none" opacity="1" stroke="#000000" stroke-linecap="butt" stroke-linejoin="round" stroke-width="0.1"/>
<path d="M490 50L550 50L550 90L490 90L490 50Z" fill="#fbfbfb" fill-rule="nonzero" opacity="1" stroke="#000000" stroke-linecap="butt" stroke-linejoin="round" stroke-opacity="0.99" stroke-width="3"/>
<g opacity="1">
<path d="M501.03 66.4595L499.605 72.7246L502.466 72.7246L501.03 66.4595ZM499.185 63.6909L502.886 63.6909L507.019 79L503.994 79L503.05 75.2163L499 75.2163L498.077 79L495.052 79L499.185 63.6909Z" fill="#000000" fill-rule="nonzero" opacity="1" stroke="none"/>
<path d="M515.191 79L512.166 79L512.166 66.3364L508.28 66.3364L508.28 63.6909L519.077 63.6909L519.077 66.3364L515.191 66.3364L515.191 79Z" fill="#000000" fill-rule="nonzero" opacity="1" stroke="none"/>
<path d="M527.834 79L524.809 79L524.809 66.3364L520.923 66.3364L520.923 63.6909L531.72 63.6909L531.72 66.3364L527.834 66.3364L527.834 79Z" fill="#000000" fill-rule="nonzero" opacity="1" stroke="none"/>
<path d="M540.918 71.771C541.219 71.8325 541.48 71.9744 541.702 72.1965C541.925 72.4187 542.196 72.8511 542.518 73.4937L545.286 79L541.964 79L540.118 75.1343C540.063 75.0249 539.992 74.8745 539.903 74.6831C539.363 73.5278 538.727 72.9502 537.996 72.9502L537.032 72.9502L537.032 79L534.007 79L534.007 63.6909L538.375 63.6909C540.344 63.6909 541.757 64.0396 542.615 64.7368C543.473 65.4341 543.902 66.5688 543.902 68.1411C543.902 69.1938 543.646 70.0312 543.133 70.6533C542.62 71.2754 541.882 71.6479 540.918 71.771ZM537.032 66.2339L537.032 70.4072L538.457 70.4072C539.284 70.4072 539.877 70.2449 540.236 69.9202C540.595 69.5955 540.774 69.0605 540.774 68.3154C540.774 67.5703 540.597 67.0371 540.241 66.7158C539.886 66.3945 539.291 66.2339 538.457 66.2339L537.032 66.2339Z" fill="#000000" fill-rule="nonzero" opacity="1" stroke="none"/>
</g>
<path d="M570 100L710 100L710 140L570 140L570 100Z" fill="none" opacity="1" stroke="#000000" stroke-linecap="butt" stroke-linejoin="round" stroke-width="0.1"/>
<path d="M570 100L710 100L710 140L570 140L570 100Z" fill="#fbfbfb" fill-rule="nonzero" opacity="1" stroke="#000000" stroke-linecap="butt" stroke-linejoin="round" stroke-opacity="0.99" stroke-width="3"/>
<g opacity="1">
<path d="M630.994 131.496C630.447 131.777 629.873 131.988 629.271 132.129C628.67 132.27 628.037 132.34 627.373 132.34C625.014 132.34 623.213 131.563 621.971 130.008C620.729 128.453 620.107 126.207 620.107 123.27C620.107 120.324 620.729 118.074 621.971 116.52C623.213 114.965 625.014 114.188 627.373 114.188C628.037 114.188 628.674 114.258 629.283 114.398C629.893 114.539 630.463 114.75 630.994 115.031L630.994 118.875C630.4 118.328 629.824 117.928 629.266 117.674C628.707 117.42 628.131 117.293 627.537 117.293C626.271 117.293 625.316 117.795 624.672 118.799C624.027 119.803 623.705 121.293 623.705 123.27C623.705 125.238 624.027 126.725 624.672 127.729C625.316 128.732 626.271 129.234 627.537 129.234C628.131 129.234 628.707 129.107 629.266 128.854C629.824 128.6 630.4 128.199 630.994 127.652L630.994 131.496Z" fill="#000000" fill-rule="nonzero" opacity="1" stroke="none"/>
<path d="M634.17 114.504L637.885 114.504L642.76 127.219L642.76 114.504L645.807 114.504L645.807 132L642.115 132L637.217 119.285L637.217 132L634.17 132L634.17 114.504Z" fill="#000000" fill-rule="nonzero" opacity="1" stroke="none"/>
<path d="M648.619 114.504L652.334 114.504L657.209 127.219L657.209 114.504L660.256 114.504L660.256 132L656.564 132L651.666 119.285L651.666 132L648.619 132L648.619 114.504Z" fill="#000000" fill-rule="nonzero" opacity="1" stroke="none"/>
</g>
<path d="M570 50L630 50L630 90L570 90L570 50Z" fill="none" opacity="1" stroke="#000000" stroke-linecap="butt" stroke-linejoin="round" stroke-width="0.1"/>
<path d="M570 50L630 50L630 90L570 90L570 50Z" fill="#fbfbfb" fill-rule="nonzero" opacity="1" stroke="#000000" stroke-linecap="butt" stroke-linejoin="round" stroke-opacity="0.99" stroke-width="3"/>
<g opacity="1">
<path d="M592.12 78.5591C591.641 78.8052 591.139 78.9897 590.613 79.1128C590.086 79.2358 589.532 79.2974 588.951 79.2974C586.887 79.2974 585.311 78.6172 584.224 77.2568C583.137 75.8965 582.594 73.9312 582.594 71.3608C582.594 68.7837 583.137 66.8149 584.224 65.4546C585.311 64.0942 586.887 63.4141 588.951 63.4141C589.532 63.4141 590.09 63.4756 590.623 63.5986C591.156 63.7217 591.655 63.9062 592.12 64.1523L592.12 67.5156C591.6 67.0371 591.096 66.6868 590.607 66.4646C590.119 66.2424 589.615 66.1313 589.095 66.1313C587.988 66.1313 587.152 66.5706 586.588 67.449C586.024 68.3274 585.742 69.6313 585.742 71.3608C585.742 73.0835 586.024 74.384 586.588 75.2625C587.152 76.1409 587.988 76.5801 589.095 76.5801C589.615 76.5801 590.119 76.469 590.607 76.2468C591.096 76.0247 591.6 75.6743 592.12 75.1958L592.12 78.5591Z" fill="#000000" fill-rule="nonzero" opacity="1" stroke="none"/>
<path d="M595.986 79L595.986 63.6909L599.01 63.6909L599.01 76.334L605.481 76.334L605.481 79L595.986 79Z" fill="#000000" fill-rule="nonzero" opacity="1" stroke="none"/>
<path d="M611.551 72.2837C610.027 71.7026 608.994 71.0925 608.454 70.4534C607.914 69.8142 607.644 68.9546 607.644 67.8745C607.644 66.4868 608.089 65.3965 608.977 64.6035C609.866 63.8105 611.086 63.4141 612.638 63.4141C613.342 63.4141 614.046 63.4944 614.75 63.655C615.454 63.8157 616.152 64.0532 616.842 64.3677L616.842 67.3208C616.193 66.8628 615.533 66.5142 614.863 66.2749C614.193 66.0356 613.53 65.916 612.874 65.916C612.142 65.916 611.582 66.063 611.192 66.3569C610.802 66.6509 610.608 67.0713 610.608 67.6182C610.608 68.042 610.75 68.3923 611.033 68.6692C611.317 68.946 611.91 69.252 612.812 69.5869L614.115 70.0791C615.345 70.5303 616.251 71.1284 616.832 71.8735C617.413 72.6187 617.703 73.5586 617.703 74.6934C617.703 76.2383 617.247 77.3918 616.334 78.1541C615.422 78.9163 614.043 79.2974 612.197 79.2974C611.438 79.2974 610.678 79.2068 609.916 79.0256C609.153 78.8445 608.417 78.5762 607.706 78.2207L607.706 75.0933C608.512 75.6675 609.293 76.0947 610.049 76.375C610.804 76.6553 611.551 76.7954 612.289 76.7954C613.034 76.7954 613.612 76.6262 614.022 76.2878C614.432 75.9495 614.637 75.4761 614.637 74.8677C614.637 74.4097 614.501 74.0081 614.227 73.6628C613.954 73.3176 613.557 73.0459 613.038 72.8477L611.551 72.2837Z" fill="#000000" fill-rule="nonzero" opacity="1" stroke="none"/>
</g>
<path d="M650 50L710 50L710 90L650 90L650 50Z" fill="none" opacity="1" stroke="#000000" stroke-linecap="butt" stroke-linejoin="round" stroke-width="0.1"/>
<path d="M650 50L710 50L710 90L650 90L650 50Z" fill="#fbfbfb" fill-rule="nonzero" opacity="1" stroke="#000000" stroke-linecap="butt" stroke-linejoin="round" stroke-opacity="0.99" stroke-width="3"/>
<g opacity="1">
<path d="M669.31 71.771C669.611 71.8325 669.873 71.9744 670.095 72.1965C670.317 72.4187 670.589 72.8511 670.91 73.4937L673.678 79L670.356 79L668.51 75.1343C668.456 75.0249 668.384 74.8745 668.295 74.6831C667.755 73.5278 667.119 72.9502 666.388 72.9502L665.424 72.9502L665.424 79L662.399 79L662.399 63.6909L666.767 63.6909C668.736 63.6909 670.149 64.0396 671.007 64.7368C671.865 65.4341 672.294 66.5688 672.294 68.1411C672.294 69.1938 672.038 70.0312 671.525 70.6533C671.012 71.2754 670.274 71.6479 669.31 71.771ZM665.424 66.2339L665.424 70.4072L666.849 70.4072C667.677 70.4072 668.27 70.2449 668.628 69.9202C668.987 69.5955 669.167 69.0605 669.167 68.3154C669.167 67.5703 668.989 67.0371 668.634 66.7158C668.278 66.3945 667.683 66.2339 666.849 66.2339L665.424 66.2339Z" fill="#000000" fill-rule="nonzero" opacity="1" stroke="none"/>
<path d="M684.937 79L675.401 79L675.401 63.6909L684.937 63.6909L684.937 66.3569L678.426 66.3569L678.426 69.6587L684.322 69.6587L684.322 72.3247L678.426 72.3247L678.426 76.334L684.937 76.334L684.937 79Z" fill="#000000" fill-rule="nonzero" opacity="1" stroke="none"/>
<path d="M695.263 76.2314L695.263 73.3091L693.192 73.3091L693.192 70.7661L697.908 70.7661L697.908 77.7798C697.327 78.2788 696.687 78.6565 695.986 78.9128C695.285 79.1692 694.535 79.2974 693.735 79.2974C691.753 79.2974 690.221 78.6086 689.141 77.2312C688.061 75.8538 687.521 73.897 687.521 71.3608C687.521 68.7837 688.066 66.8149 689.157 65.4546C690.247 64.0942 691.821 63.4141 693.879 63.4141C694.494 63.4141 695.099 63.5012 695.694 63.6755C696.288 63.8499 696.845 64.1011 697.365 64.4292L697.365 67.7822C696.941 67.2354 696.454 66.8235 695.904 66.5466C695.354 66.2698 694.75 66.1313 694.094 66.1313C692.946 66.1313 692.088 66.5637 691.52 67.4285C690.953 68.2932 690.669 69.604 690.669 71.3608C690.669 73.063 690.943 74.3584 691.49 75.2471C692.036 76.1357 692.833 76.5801 693.879 76.5801C694.193 76.5801 694.467 76.551 694.699 76.4929C694.931 76.4348 695.119 76.3477 695.263 76.2314Z" fill="#000000" fill-rule="nonzero" opacity="1" stroke="none"/>
</g>
</g>
</g>
</svg>
