<?xml version="1.0" encoding="UTF-8" standalone="no"?>
<!DOCTYPE svg PUBLIC "-//W3C//DTD SVG 1.1//EN" "http://www.w3.org/Graphics/SVG/1.1/DTD/svg11.dtd">
<!-- Created with Vectornator (http://vectornator.io/) -->
<svg height="100%" stroke-miterlimit="10" style="fill-rule:nonzero;clip-rule:evenodd;stroke-linecap:round;stroke-linejoin:round;" version="1.1" viewBox="0 0 1540 520" width="100%" xml:space="preserve" xmlns="http://www.w3.org/2000/svg" xmlns:xlink="http://www.w3.org/1999/xlink">
<defs>
<filter color-interpolation-filters="sRGB" filterUnits="userSpaceOnUse" height="277.746" id="Filter" width="237.746" x="641.127" y="201.127">
<feGaussianBlur in="SourceGraphic" result="Blur" stdDeviation="3.52914"/>
</filter>
<filter color-interpolation-filters="sRGB" filterUnits="userSpaceOnUse" height="57.7457" id="Filter_2" width="237.746" x="641.127" y="151.127">
<feGaussianBlur in="SourceGraphic" result="Blur" stdDeviation="3.52914"/>
</filter>
<filter color-interpolation-filters="sRGB" filterUnits="userSpaceOnUse" height="57.7457" id="Filter_3" width="157.746" x="521.127" y="91.1271">
<feGaussianBlur in="SourceGraphic" result="Blur" stdDeviation="3.52914"/>
</filter>
<filter color-interpolation-filters="sRGB" filterUnits="userSpaceOnUse" height="57.7457" id="Filter_4" width="77.7457" x="521.127" y="41.1271">
<feGaussianBlur in="SourceGraphic" result="Blur" stdDeviation="3.52914"/>
</filter>
<filter color-interpolation-filters="sRGB" filterUnits="userSpaceOnUse" height="57.7457" id="Filter_5" width="157.746" x="841.127" y="91.1271">
<feGaussianBlur in="SourceGraphic" result="Blur" stdDeviation="3.52914"/>
</filter>
<filter color-interpolation-filters="sRGB" filterUnits="userSpaceOnUse" height="57.7457" id="Filter_6" width="157.746" x="841.127" y="41.1271">
<feGaussianBlur in="SourceGraphic" result="Blur" stdDeviation="3.52914"/>
</filter>
<filter color-interpolation-filters="sRGB" filterUnits="userSpaceOnUse" height="57.7457" id="Filter_7" width="77.7457" x="601.127" y="41.1271">
<feGaussianBlur in="SourceGraphic" result="Blur" stdDeviation="3.52914"/>
</filter>
<filter color-interpolation-filters="sRGB" filterUnits="userSpaceOnUse" height="57.7457" id="Filter_8" width="157.746" x="681.127" y="91.1271">
<feGaussianBlur in="SourceGraphic" result="Blur" stdDeviation="3.52914"/>
</filter>
<filter color-interpolation-filters="sRGB" filterUnits="userSpaceOnUse" height="57.7457" id="Filter_9" width="77.7457" x="681.127" y="41.1271">
<feGaussianBlur in="SourceGraphic" result="Blur" stdDeviation="3.52914"/>
</filter>
<filter color-interpolation-filters="sRGB" filterUnits="userSpaceOnUse" height="57.7457" id="Filter_10" width="77.7457" x="761.127" y="41.1271">
<feGaussianBlur in="SourceGraphic" result="Blur" stdDeviation="3.52914"/>
</filter>
</defs>
<g id="Layer-1">
<g opacity="1">
<path d="M650 210L870 210L870 470L650 470L650 210Z" fill="none" filter="url(#Filter)" opacity="1" stroke="#000000" stroke-linecap="butt" stroke-linejoin="round" stroke-width="0.1"/>
<path d="M650 210L870 210L870 470L650 470L650 210Z" fill="#fbfbfb" fill-rule="nonzero" opacity="1" stroke="#000000" stroke-linecap="butt" stroke-linejoin="round" stroke-opacity="0.99" stroke-width="3"/>
<path d="M670 480L850 480L850 510L670 510L670 480Z" fill="#5b9ef3" fill-rule="nonzero" opacity="1" stroke="#659ef3" stroke-linecap="butt" stroke-linejoin="round" stroke-width="3"/>
<path d="M510 10L1010 10L1010 150L510 150L510 10Z" fill="none" opacity="1" stroke="#659ef3" stroke-linecap="butt" stroke-linejoin="round" stroke-width="3"/>
<g fill="#000000" opacity="1" stroke="none">
<path d="M715.07 502L704.172 502L704.172 484.504L715.07 484.504L715.07 487.551L707.629 487.551L707.629 491.324L714.367 491.324L714.367 494.371L707.629 494.371L707.629 498.953L715.07 498.953L715.07 502Z"/>
<path d="M729.32 501.496C728.773 501.777 728.199 501.988 727.598 502.129C726.996 502.27 726.363 502.34 725.699 502.34C723.34 502.34 721.539 501.563 720.297 500.008C719.055 498.453 718.434 496.207 718.434 493.27C718.434 490.324 719.055 488.074 720.297 486.52C721.539 484.965 723.34 484.188 725.699 484.188C726.363 484.188 727 484.258 727.609 484.398C728.219 484.539 728.789 484.75 729.32 485.031L729.32 488.875C728.727 488.328 728.15 487.928 727.592 487.674C727.033 487.42 726.457 487.293 725.863 487.293C724.598 487.293 723.643 487.795 722.998 488.799C722.354 489.803 722.031 491.293 722.031 493.27C722.031 495.238 722.354 496.725 722.998 497.729C723.643 498.732 724.598 499.234 725.863 499.234C726.457 499.234 727.033 499.107 727.592 498.854C728.15 498.6 728.727 498.199 729.32 497.652L729.32 501.496Z"/>
<path d="M741.32 498.836L741.32 495.496L738.953 495.496L738.953 492.59L744.344 492.59L744.344 500.605C743.68 501.176 742.947 501.607 742.146 501.9C741.346 502.193 740.488 502.34 739.574 502.34C737.309 502.34 735.559 501.553 734.324 499.979C733.09 498.404 732.473 496.168 732.473 493.27C732.473 490.324 733.096 488.074 734.342 486.52C735.588 484.965 737.387 484.188 739.738 484.188C740.441 484.188 741.133 484.287 741.812 484.486C742.492 484.686 743.129 484.973 743.723 485.348L743.723 489.18C743.238 488.555 742.682 488.084 742.053 487.768C741.424 487.451 740.734 487.293 739.984 487.293C738.672 487.293 737.691 487.787 737.043 488.775C736.395 489.764 736.07 491.262 736.07 493.27C736.07 495.215 736.383 496.695 737.008 497.711C737.633 498.727 738.543 499.234 739.738 499.234C740.098 499.234 740.41 499.201 740.676 499.135C740.941 499.068 741.156 498.969 741.32 498.836Z"/>
<path d="M765.062 487.621L765.062 498.883L766 498.883C767.359 498.883 768.328 498.455 768.906 497.6C769.484 496.744 769.773 495.289 769.773 493.234C769.773 491.195 769.484 489.75 768.906 488.898C768.328 488.047 767.359 487.621 766 487.621L765.062 487.621ZM761.605 484.504L765.309 484.504C768.168 484.504 770.227 485.186 771.484 486.549C772.742 487.912 773.371 490.141 773.371 493.234C773.371 496.336 772.742 498.572 771.484 499.943C770.227 501.314 768.168 502 765.309 502L761.605 502L761.605 484.504Z"/>
<path d="M782.652 495.836C781.371 495.836 780.477 496 779.969 496.328C779.461 496.656 779.207 497.219 779.207 498.016C779.207 498.609 779.383 499.082 779.734 499.434C780.086 499.785 780.562 499.961 781.164 499.961C782.07 499.961 782.773 499.619 783.273 498.936C783.773 498.252 784.023 497.297 784.023 496.07L784.023 495.836L782.652 495.836ZM787.434 494.512L787.434 502L784.023 502L784.023 500.535C783.609 501.113 783.078 501.559 782.43 501.871C781.781 502.184 781.066 502.34 780.285 502.34C778.793 502.34 777.631 501.945 776.799 501.156C775.967 500.367 775.551 499.266 775.551 497.852C775.551 496.32 776.047 495.189 777.039 494.459C778.031 493.729 779.566 493.363 781.645 493.363L784.023 493.363L784.023 492.789C784.023 492.234 783.822 491.814 783.42 491.529C783.018 491.244 782.426 491.102 781.645 491.102C780.824 491.102 780.029 491.205 779.26 491.412C778.49 491.619 777.688 491.949 776.852 492.402L776.852 489.473C777.609 489.16 778.379 488.93 779.16 488.781C779.941 488.633 780.77 488.559 781.645 488.559C783.777 488.559 785.275 488.992 786.139 489.859C787.002 490.727 787.434 492.277 787.434 494.512Z"/>
<path d="M796.984 485.148L796.984 488.875L801.473 488.875L801.473 491.512L796.984 491.512L796.984 497.723C796.984 498.309 797.127 498.729 797.412 498.982C797.697 499.236 798.172 499.363 798.836 499.363L801.473 499.363L801.473 502L798.59 502C796.621 502 795.289 501.686 794.594 501.057C793.898 500.428 793.551 499.262 793.551 497.559L793.551 491.512L790.199 491.512L790.199 488.875L793.551 488.875L793.551 485.148L796.984 485.148Z"/>
<path d="M811.551 495.836C810.27 495.836 809.375 496 808.867 496.328C808.359 496.656 808.105 497.219 808.105 498.016C808.105 498.609 808.281 499.082 808.633 499.434C808.984 499.785 809.461 499.961 810.062 499.961C810.969 499.961 811.672 499.619 812.172 498.936C812.672 498.252 812.922 497.297 812.922 496.07L812.922 495.836L811.551 495.836ZM816.332 494.512L816.332 502L812.922 502L812.922 500.535C812.508 501.113 811.977 501.559 811.328 501.871C810.68 502.184 809.965 502.34 809.184 502.34C807.691 502.34 806.529 501.945 805.697 501.156C804.865 500.367 804.449 499.266 804.449 497.852C804.449 496.32 804.945 495.189 805.938 494.459C806.93 493.729 808.465 493.363 810.543 493.363L812.922 493.363L812.922 492.789C812.922 492.234 812.721 491.814 812.318 491.529C811.916 491.244 811.324 491.102 810.543 491.102C809.723 491.102 808.928 491.205 808.158 491.412C807.389 491.619 806.586 491.949 805.75 492.402L805.75 489.473C806.508 489.16 807.277 488.93 808.059 488.781C808.84 488.633 809.668 488.559 810.543 488.559C812.676 488.559 814.174 488.992 815.037 489.859C815.9 490.727 816.332 492.277 816.332 494.512Z"/>
</g>
<g fill="#000000" opacity="1" stroke="none">
<path d="M751.193 312L740.295 312L740.295 294.504L751.193 294.504L751.193 297.551L743.752 297.551L743.752 301.324L750.49 301.324L750.49 304.371L743.752 304.371L743.752 308.953L751.193 308.953L751.193 312Z"/>
<path d="M765.443 311.496C764.896 311.777 764.322 311.988 763.721 312.129C763.119 312.27 762.486 312.34 761.822 312.34C759.463 312.34 757.662 311.563 756.42 310.008C755.178 308.453 754.557 306.207 754.557 303.27C754.557 300.324 755.178 298.074 756.42 296.52C757.662 294.965 759.463 294.188 761.822 294.188C762.486 294.188 763.123 294.258 763.732 294.398C764.342 294.539 764.912 294.75 765.443 295.031L765.443 298.875C764.85 298.328 764.273 297.928 763.715 297.674C763.156 297.42 762.58 297.293 761.986 297.293C760.721 297.293 759.766 297.795 759.121 298.799C758.477 299.803 758.154 301.293 758.154 303.27C758.154 305.238 758.477 306.725 759.121 307.729C759.766 308.732 760.721 309.234 761.986 309.234C762.58 309.234 763.156 309.107 763.715 308.854C764.273 308.6 764.85 308.199 765.443 307.652L765.443 311.496Z"/>
<path d="M777.443 308.836L777.443 305.496L775.076 305.496L775.076 302.59L780.467 302.59L780.467 310.605C779.803 311.176 779.07 311.607 778.27 311.9C777.469 312.193 776.611 312.34 775.697 312.34C773.432 312.34 771.682 311.553 770.447 309.979C769.213 308.404 768.596 306.168 768.596 303.27C768.596 300.324 769.219 298.074 770.465 296.52C771.711 294.965 773.51 294.188 775.861 294.188C776.564 294.188 777.256 294.287 777.936 294.486C778.615 294.686 779.252 294.973 779.846 295.348L779.846 299.18C779.361 298.555 778.805 298.084 778.176 297.768C777.547 297.451 776.857 297.293 776.107 297.293C774.795 297.293 773.814 297.787 773.166 298.775C772.518 299.764 772.193 301.262 772.193 303.27C772.193 305.215 772.506 306.695 773.131 307.711C773.756 308.727 774.666 309.234 775.861 309.234C776.221 309.234 776.533 309.201 776.799 309.135C777.064 309.068 777.279 308.969 777.443 308.836Z"/>
<path d="M679.281 332.324C677.539 331.66 676.359 330.963 675.742 330.232C675.125 329.502 674.816 328.52 674.816 327.285C674.816 325.699 675.324 324.453 676.34 323.547C677.355 322.641 678.75 322.188 680.523 322.188C681.328 322.188 682.133 322.279 682.938 322.463C683.742 322.646 684.539 322.918 685.328 323.277L685.328 326.652C684.586 326.129 683.832 325.73 683.066 325.457C682.301 325.184 681.543 325.047 680.793 325.047C679.957 325.047 679.316 325.215 678.871 325.551C678.426 325.887 678.203 326.367 678.203 326.992C678.203 327.477 678.365 327.877 678.689 328.193C679.014 328.51 679.691 328.859 680.723 329.242L682.211 329.805C683.617 330.32 684.652 331.004 685.316 331.855C685.98 332.707 686.312 333.781 686.312 335.078C686.312 336.844 685.791 338.162 684.748 339.033C683.705 339.904 682.129 340.34 680.02 340.34C679.152 340.34 678.283 340.236 677.412 340.029C676.541 339.822 675.699 339.516 674.887 339.109L674.887 335.535C675.809 336.191 676.701 336.68 677.564 337C678.428 337.32 679.281 337.48 680.125 337.48C680.977 337.48 681.637 337.287 682.105 336.9C682.574 336.514 682.809 335.973 682.809 335.277C682.809 334.754 682.652 334.295 682.34 333.9C682.027 333.506 681.574 333.195 680.98 332.969L679.281 332.324Z"/>
<path d="M700.668 339.355C699.871 339.684 699.059 339.93 698.23 340.094C697.402 340.258 696.527 340.34 695.605 340.34C693.41 340.34 691.732 339.752 690.572 338.576C689.412 337.4 688.832 335.707 688.832 333.496C688.832 331.355 689.391 329.664 690.508 328.422C691.625 327.18 693.148 326.559 695.078 326.559C697.023 326.559 698.533 327.135 699.607 328.287C700.682 329.439 701.219 331.062 701.219 333.156L701.219 334.551L692.324 334.551C692.332 335.582 692.637 336.352 693.238 336.859C693.84 337.367 694.738 337.621 695.934 337.621C696.723 337.621 697.5 337.508 698.266 337.281C699.031 337.055 699.832 336.695 700.668 336.203L700.668 339.355ZM697.762 331.973C697.746 331.066 697.514 330.381 697.064 329.916C696.615 329.451 695.953 329.219 695.078 329.219C694.289 329.219 693.66 329.459 693.191 329.939C692.723 330.42 692.445 331.102 692.359 331.984L697.762 331.973Z"/>
<path d="M711.613 333.227C711.613 332.055 711.391 331.115 710.945 330.408C710.5 329.701 709.914 329.348 709.188 329.348C708.469 329.348 707.889 329.699 707.447 330.402C707.006 331.105 706.785 332.047 706.785 333.227C706.785 334.414 707.006 335.359 707.447 336.062C707.889 336.766 708.469 337.117 709.188 337.117C709.914 337.117 710.5 336.764 710.945 336.057C711.391 335.35 711.613 334.406 711.613 333.227ZM715.047 339.016C715.047 341.117 714.572 342.635 713.623 343.568C712.674 344.502 711.133 344.969 709 344.969C708.281 344.969 707.57 344.916 706.867 344.811C706.164 344.705 705.449 344.543 704.723 344.324L704.723 341.172C705.371 341.531 706.031 341.797 706.703 341.969C707.375 342.141 708.066 342.227 708.777 342.227C709.746 342.227 710.461 341.998 710.922 341.541C711.383 341.084 711.613 340.371 711.613 339.402L711.613 337.984C711.277 338.609 710.832 339.074 710.277 339.379C709.723 339.684 709.047 339.836 708.25 339.836C706.75 339.836 705.559 339.25 704.676 338.078C703.793 336.906 703.352 335.316 703.352 333.309C703.352 331.23 703.793 329.582 704.676 328.363C705.559 327.145 706.742 326.535 708.227 326.535C708.977 326.535 709.645 326.711 710.23 327.062C710.816 327.414 711.277 327.91 711.613 328.551L711.613 326.875L715.047 326.875L715.047 339.016Z"/>
<path d="M724.738 328.188C724.996 327.633 725.324 327.223 725.723 326.957C726.121 326.691 726.609 326.559 727.188 326.559C728.32 326.559 729.104 326.949 729.537 327.73C729.971 328.512 730.188 330.137 730.188 332.605L730.188 340L727.375 340L727.375 331.574C727.375 330.598 727.301 329.945 727.152 329.617C727.004 329.289 726.734 329.125 726.344 329.125C725.953 329.125 725.68 329.293 725.523 329.629C725.367 329.965 725.289 330.613 725.289 331.574L725.289 340L722.512 340L722.512 331.574C722.512 330.613 722.434 329.965 722.277 329.629C722.121 329.293 721.848 329.125 721.457 329.125C721.066 329.125 720.797 329.289 720.648 329.617C720.5 329.945 720.426 330.598 720.426 331.574L720.426 340L717.613 340L717.613 326.875L720.109 326.875L720.109 328.234C720.305 327.719 720.617 327.311 721.047 327.01C721.477 326.709 721.957 326.559 722.488 326.559C723.02 326.559 723.504 326.717 723.941 327.033C724.379 327.35 724.645 327.734 724.738 328.188Z"/>
<path d="M744.016 339.355C743.219 339.684 742.406 339.93 741.578 340.094C740.75 340.258 739.875 340.34 738.953 340.34C736.758 340.34 735.08 339.752 733.92 338.576C732.76 337.4 732.18 335.707 732.18 333.496C732.18 331.355 732.738 329.664 733.855 328.422C734.973 327.18 736.496 326.559 738.426 326.559C740.371 326.559 741.881 327.135 742.955 328.287C744.029 329.439 744.566 331.062 744.566 333.156L744.566 334.551L735.672 334.551C735.68 335.582 735.984 336.352 736.586 336.859C737.188 337.367 738.086 337.621 739.281 337.621C740.07 337.621 740.848 337.508 741.613 337.281C742.379 337.055 743.18 336.695 744.016 336.203L744.016 339.355ZM741.109 331.973C741.094 331.066 740.861 330.381 740.412 329.916C739.963 329.451 739.301 329.219 738.426 329.219C737.637 329.219 737.008 329.459 736.539 329.939C736.07 330.42 735.793 331.102 735.707 331.984L741.109 331.973Z"/>
<path d="M758.102 331.48L758.102 340L754.691 340L754.691 332.008C754.691 331.055 754.557 330.373 754.287 329.963C754.018 329.553 753.578 329.348 752.969 329.348C752.352 329.348 751.865 329.625 751.51 330.18C751.154 330.734 750.977 331.504 750.977 332.488L750.977 340L747.566 340L747.566 326.875L750.977 326.875L750.977 328.844C751.219 328.117 751.633 327.555 752.219 327.156C752.805 326.758 753.512 326.559 754.34 326.559C755.582 326.559 756.52 326.971 757.152 327.795C757.785 328.619 758.102 329.848 758.102 331.48Z"/>
<path d="M768.086 323.148L768.086 326.875L772.574 326.875L772.574 329.512L768.086 329.512L768.086 335.723C768.086 336.309 768.229 336.729 768.514 336.982C768.799 337.236 769.273 337.363 769.938 337.363L772.574 337.363L772.574 340L769.691 340C767.723 340 766.391 339.686 765.695 339.057C765 338.428 764.652 337.262 764.652 335.559L764.652 329.512L761.301 329.512L761.301 326.875L764.652 326.875L764.652 323.148L768.086 323.148Z"/>
<path d="M782.652 333.836C781.371 333.836 780.477 334 779.969 334.328C779.461 334.656 779.207 335.219 779.207 336.016C779.207 336.609 779.383 337.082 779.734 337.434C780.086 337.785 780.562 337.961 781.164 337.961C782.07 337.961 782.773 337.619 783.273 336.936C783.773 336.252 784.023 335.297 784.023 334.07L784.023 333.836L782.652 333.836ZM787.434 332.512L787.434 340L784.023 340L784.023 338.535C783.609 339.113 783.078 339.559 782.43 339.871C781.781 340.184 781.066 340.34 780.285 340.34C778.793 340.34 777.631 339.945 776.799 339.156C775.967 338.367 775.551 337.266 775.551 335.852C775.551 334.32 776.047 333.189 777.039 332.459C778.031 331.729 779.566 331.363 781.645 331.363L784.023 331.363L784.023 330.789C784.023 330.234 783.822 329.814 783.42 329.529C783.018 329.244 782.426 329.102 781.645 329.102C780.824 329.102 780.029 329.205 779.26 329.412C778.49 329.619 777.688 329.949 776.852 330.402L776.852 327.473C777.609 327.16 778.379 326.93 779.16 326.781C779.941 326.633 780.77 326.559 781.645 326.559C783.777 326.559 785.275 326.992 786.139 327.859C787.002 328.727 787.434 330.277 787.434 332.512Z"/>
<path d="M796.984 323.148L796.984 326.875L801.473 326.875L801.473 329.512L796.984 329.512L796.984 335.723C796.984 336.309 797.127 336.729 797.412 336.982C797.697 337.236 798.172 337.363 798.836 337.363L801.473 337.363L801.473 340L798.59 340C796.621 340 795.289 339.686 794.594 339.057C793.898 338.428 793.551 337.262 793.551 335.559L793.551 329.512L790.199 329.512L790.199 326.875L793.551 326.875L793.551 323.148L796.984 323.148Z"/>
<path d="M805.938 326.875L812.734 326.875L812.734 337.363L817 337.363L817 340L805.023 340L805.023 337.363L809.301 337.363L809.301 329.512L805.938 329.512L805.938 326.875ZM809.301 320.488L812.734 320.488L812.734 324.496L809.301 324.496L809.301 320.488Z"/>
<path d="M825.016 329.348C824.195 329.348 823.551 329.709 823.082 330.432C822.613 331.154 822.379 332.16 822.379 333.449C822.379 334.738 822.613 335.744 823.082 336.467C823.551 337.189 824.195 337.551 825.016 337.551C825.844 337.551 826.492 337.189 826.961 336.467C827.43 335.744 827.664 334.738 827.664 333.449C827.664 332.16 827.43 331.154 826.961 330.432C826.492 329.709 825.844 329.348 825.016 329.348ZM818.945 333.449C818.945 331.332 819.494 329.654 820.592 328.416C821.689 327.178 823.164 326.559 825.016 326.559C826.875 326.559 828.354 327.178 829.451 328.416C830.549 329.654 831.098 331.332 831.098 333.449C831.098 335.566 830.549 337.244 829.451 338.482C828.354 339.721 826.875 340.34 825.016 340.34C823.164 340.34 821.689 339.721 820.592 338.482C819.494 337.244 818.945 335.566 818.945 333.449Z"/>
<path d="M844.797 331.48L844.797 340L841.387 340L841.387 332.008C841.387 331.055 841.252 330.373 840.982 329.963C840.713 329.553 840.273 329.348 839.664 329.348C839.047 329.348 838.561 329.625 838.205 330.18C837.85 330.734 837.672 331.504 837.672 332.488L837.672 340L834.262 340L834.262 326.875L837.672 326.875L837.672 328.844C837.914 328.117 838.328 327.555 838.914 327.156C839.5 326.758 840.207 326.559 841.035 326.559C842.277 326.559 843.215 326.971 843.848 327.795C844.48 328.619 844.797 329.848 844.797 331.48Z"/>
<path d="M698.582 349.789C697.551 351.656 696.785 353.465 696.285 355.215C695.785 356.965 695.535 358.715 695.535 360.465C695.535 362.199 695.785 363.947 696.285 365.709C696.785 367.471 697.551 369.289 698.582 371.164L695.91 371.164C694.668 369.359 693.746 367.58 693.145 365.826C692.543 364.072 692.242 362.285 692.242 360.465C692.242 358.652 692.545 356.865 693.15 355.104C693.756 353.342 694.676 351.57 695.91 349.789L698.582 349.789Z"/>
<path d="M707.008 360.055L707.008 365.234L709.305 365.234C710.406 365.234 711.178 365.047 711.619 364.672C712.061 364.297 712.281 363.645 712.281 362.715C712.281 361.77 712.051 361.09 711.59 360.676C711.129 360.262 710.367 360.055 709.305 360.055L707.008 360.055ZM707.008 353.234L707.008 357.301L709.305 357.301C710.18 357.301 710.803 357.145 711.174 356.832C711.545 356.52 711.73 356.004 711.73 355.285C711.73 354.566 711.541 354.045 711.162 353.721C710.783 353.396 710.164 353.234 709.305 353.234L707.008 353.234ZM703.668 350.48L709.305 350.48C711.25 350.48 712.713 350.85 713.693 351.588C714.674 352.326 715.164 353.43 715.164 354.898C715.164 356.023 714.875 356.902 714.297 357.535C713.719 358.168 712.871 358.535 711.754 358.637C713.09 358.77 714.096 359.219 714.771 359.984C715.447 360.75 715.785 361.82 715.785 363.195C715.785 364.883 715.277 366.105 714.262 366.863C713.246 367.621 711.594 368 709.305 368L703.668 368L703.668 350.48Z"/>
<path d="M724.855 361.836C723.574 361.836 722.68 362 722.172 362.328C721.664 362.656 721.41 363.219 721.41 364.016C721.41 364.609 721.586 365.082 721.938 365.434C722.289 365.785 722.766 365.961 723.367 365.961C724.273 365.961 724.977 365.619 725.477 364.936C725.977 364.252 726.227 363.297 726.227 362.07L726.227 361.836L724.855 361.836ZM729.637 360.512L729.637 368L726.227 368L726.227 366.535C725.812 367.113 725.281 367.559 724.633 367.871C723.984 368.184 723.27 368.34 722.488 368.34C720.996 368.34 719.834 367.945 719.002 367.156C718.17 366.367 717.754 365.266 717.754 363.852C717.754 362.32 718.25 361.189 719.242 360.459C720.234 359.729 721.77 359.363 723.848 359.363L726.227 359.363L726.227 358.789C726.227 358.234 726.025 357.814 725.623 357.529C725.221 357.244 724.629 357.102 723.848 357.102C723.027 357.102 722.232 357.205 721.463 357.412C720.693 357.619 719.891 357.949 719.055 358.402L719.055 355.473C719.813 355.16 720.582 354.93 721.363 354.781C722.145 354.633 722.973 354.559 723.848 354.559C725.98 354.559 727.479 354.992 728.342 355.859C729.205 356.727 729.637 358.277 729.637 360.512Z"/>
<path d="M743.535 367.332C742.957 367.668 742.336 367.92 741.672 368.088C741.008 368.256 740.293 368.34 739.527 368.34C737.504 368.34 735.922 367.73 734.781 366.512C733.641 365.293 733.07 363.605 733.07 361.449C733.07 359.285 733.645 357.592 734.793 356.369C735.941 355.146 737.527 354.535 739.551 354.535C740.254 354.535 740.932 354.617 741.584 354.781C742.236 354.945 742.887 355.199 743.535 355.543L743.535 358.684C743.035 358.254 742.486 357.924 741.889 357.693C741.291 357.463 740.672 357.348 740.031 357.348C738.914 357.348 738.055 357.703 737.453 358.414C736.852 359.125 736.551 360.137 736.551 361.449C736.551 362.762 736.852 363.77 737.453 364.473C738.055 365.176 738.914 365.527 740.031 365.527C740.695 365.527 741.316 365.416 741.895 365.193C742.473 364.971 743.02 364.633 743.535 364.18L743.535 367.332Z"/>
<path d="M747.59 349.766L751.023 349.766L751.023 359.34L755.148 354.875L759.309 354.875L754.34 359.773L759.59 368L755.793 368L752.195 361.859L751.023 362.984L751.023 368L747.59 368L747.59 349.766Z"/>
<path d="M769.961 361.473C769.961 360.207 769.75 359.215 769.328 358.496C768.906 357.777 768.324 357.418 767.582 357.418C766.84 357.418 766.254 357.777 765.824 358.496C765.395 359.215 765.18 360.207 765.18 361.473C765.18 362.738 765.395 363.73 765.824 364.449C766.254 365.168 766.84 365.527 767.582 365.527C768.324 365.527 768.906 365.168 769.328 364.449C769.75 363.73 769.961 362.738 769.961 361.473ZM765.18 356.738C765.602 356.012 766.092 355.467 766.65 355.104C767.209 354.74 767.84 354.559 768.543 354.559C770.098 354.559 771.295 355.152 772.135 356.34C772.975 357.527 773.395 359.23 773.395 361.449C773.395 363.637 772.98 365.332 772.152 366.535C771.324 367.738 770.16 368.34 768.66 368.34C767.871 368.34 767.184 368.148 766.598 367.766C766.012 367.383 765.539 366.813 765.18 366.055L765.18 368L761.758 368L761.758 349.766L765.18 349.766L765.18 356.738Z"/>
<path d="M781.668 357.348C780.848 357.348 780.203 357.709 779.734 358.432C779.266 359.154 779.031 360.16 779.031 361.449C779.031 362.738 779.266 363.744 779.734 364.467C780.203 365.189 780.848 365.551 781.668 365.551C782.496 365.551 783.145 365.189 783.613 364.467C784.082 363.744 784.316 362.738 784.316 361.449C784.316 360.16 784.082 359.154 783.613 358.432C783.145 357.709 782.496 357.348 781.668 357.348ZM775.598 361.449C775.598 359.332 776.146 357.654 777.244 356.416C778.342 355.178 779.816 354.559 781.668 354.559C783.527 354.559 785.006 355.178 786.104 356.416C787.201 357.654 787.75 359.332 787.75 361.449C787.75 363.566 787.201 365.244 786.104 366.482C785.006 367.721 783.527 368.34 781.668 368.34C779.816 368.34 778.342 367.721 777.244 366.482C776.146 365.244 775.598 363.566 775.598 361.449Z"/>
<path d="M801.449 359.48L801.449 368L798.039 368L798.039 360.008C798.039 359.055 797.904 358.373 797.635 357.963C797.365 357.553 796.926 357.348 796.316 357.348C795.699 357.348 795.213 357.625 794.857 358.18C794.502 358.734 794.324 359.504 794.324 360.488L794.324 368L790.914 368L790.914 354.875L794.324 354.875L794.324 356.844C794.566 356.117 794.98 355.555 795.566 355.156C796.152 354.758 796.859 354.559 797.688 354.559C798.93 354.559 799.867 354.971 800.5 355.795C801.133 356.619 801.449 357.848 801.449 359.48Z"/>
<path d="M816.262 367.355C815.465 367.684 814.652 367.93 813.824 368.094C812.996 368.258 812.121 368.34 811.199 368.34C809.004 368.34 807.326 367.752 806.166 366.576C805.006 365.4 804.426 363.707 804.426 361.496C804.426 359.355 804.984 357.664 806.102 356.422C807.219 355.18 808.742 354.559 810.672 354.559C812.617 354.559 814.127 355.135 815.201 356.287C816.275 357.439 816.812 359.062 816.812 361.156L816.812 362.551L807.918 362.551C807.926 363.582 808.23 364.352 808.832 364.859C809.434 365.367 810.332 365.621 811.527 365.621C812.316 365.621 813.094 365.508 813.859 365.281C814.625 365.055 815.426 364.695 816.262 364.203L816.262 367.355ZM813.355 359.973C813.34 359.066 813.107 358.381 812.658 357.916C812.209 357.451 811.547 357.219 810.672 357.219C809.883 357.219 809.254 357.459 808.785 357.939C808.316 358.42 808.039 359.102 807.953 359.984L813.355 359.973Z"/>
<path d="M821.418 349.789L824.09 349.789C825.324 351.57 826.244 353.342 826.85 355.104C827.455 356.865 827.758 358.652 827.758 360.465C827.758 362.285 827.457 364.072 826.855 365.826C826.254 367.58 825.332 369.359 824.09 371.164L821.418 371.164C822.449 369.289 823.215 367.471 823.715 365.709C824.215 363.947 824.465 362.199 824.465 360.465C824.465 358.715 824.215 356.965 823.715 355.215C823.215 353.465 822.449 351.656 821.418 349.789Z"/>
</g>
<path d="M650 160L870 160L870 200L650 200L650 160Z" fill="none" filter="url(#Filter_2)" opacity="1" stroke="#000000" stroke-linecap="butt" stroke-linejoin="round" stroke-width="0.1"/>
<path d="M650 160L870 160L870 200L650 200L650 160Z" fill="#fbfbfb" fill-rule="nonzero" opacity="1" stroke="#000000" stroke-linecap="butt" stroke-linejoin="round" stroke-opacity="0.99" stroke-width="3"/>
<g fill="#000000" opacity="1" stroke="none">
<path d="M732.496 174.504L736.211 174.504L741.086 187.219L741.086 174.504L744.133 174.504L744.133 192L740.441 192L735.543 179.285L735.543 192L732.496 192L732.496 174.504Z"/>
<path d="M758.418 192L747.52 192L747.52 174.504L758.418 174.504L758.418 177.551L750.977 177.551L750.977 181.324L757.715 181.324L757.715 184.371L750.977 184.371L750.977 188.953L758.418 188.953L758.418 192Z"/>
<path d="M772.668 191.496C772.121 191.777 771.547 191.988 770.945 192.129C770.344 192.27 769.711 192.34 769.047 192.34C766.687 192.34 764.887 191.563 763.645 190.008C762.402 188.453 761.781 186.207 761.781 183.27C761.781 180.324 762.402 178.074 763.645 176.52C764.887 174.965 766.687 174.188 769.047 174.188C769.711 174.188 770.348 174.258 770.957 174.398C771.566 174.539 772.137 174.75 772.668 175.031L772.668 178.875C772.074 178.328 771.498 177.928 770.939 177.674C770.381 177.42 769.805 177.293 769.211 177.293C767.945 177.293 766.99 177.795 766.346 178.799C765.701 179.803 765.379 181.293 765.379 183.27C765.379 185.238 765.701 186.725 766.346 187.729C766.99 188.732 767.945 189.234 769.211 189.234C769.805 189.234 770.381 189.107 770.939 188.854C771.498 188.6 772.074 188.199 772.668 187.652L772.668 191.496Z"/>
<path d="M775.82 174.504L779.277 174.504L779.277 181.418L784.691 174.504L788.605 174.504L783.086 181.395L788.805 192L784.961 192L780.812 184.125L779.277 186.07L779.277 192L775.82 192L775.82 174.504Z"/>
</g>
<path d="M530 100L670 100L670 140L530 140L530 100Z" fill="none" filter="url(#Filter_3)" opacity="1" stroke="#000000" stroke-linecap="butt" stroke-linejoin="round" stroke-width="0.1"/>
<path d="M530 100L670 100L670 140L530 140L530 100Z" fill="#fbfbfb" fill-rule="nonzero" opacity="1" stroke="#000000" stroke-linecap="butt" stroke-linejoin="round" stroke-opacity="0.99" stroke-width="3"/>
<g fill="#8b8b8b" opacity="1" stroke="none">
<path d="M703.101 26.4595L701.676 32.7246L704.537 32.7246L703.101 26.4595ZM701.255 23.6909L704.957 23.6909L709.089 39L706.064 39L705.121 35.2163L701.071 35.2163L700.148 39L697.123 39L701.255 23.6909Z"/>
<path d="M721.23 30.6841C720.902 30.3833 720.517 30.1577 720.076 30.0073C719.635 29.8569 719.152 29.7817 718.625 29.7817C717.99 29.7817 717.434 29.8928 716.959 30.115C716.484 30.3372 716.117 30.6602 715.857 31.084C715.693 31.3438 715.578 31.6582 715.513 32.0273C715.448 32.3965 715.416 32.957 715.416 33.709L715.416 39L712.412 39L712.412 27.5156L715.416 27.5156L715.416 29.2998C715.71 28.6436 716.161 28.136 716.77 27.7771C717.378 27.4182 718.089 27.2388 718.902 27.2388C719.313 27.2388 719.714 27.2883 720.107 27.3875C720.5 27.4866 720.875 27.6318 721.23 27.8232L721.23 30.6841Z"/>
<path d="M733.873 30.6841C733.545 30.3833 733.16 30.1577 732.719 30.0073C732.279 29.8569 731.795 29.7817 731.269 29.7817C730.633 29.7817 730.077 29.8928 729.602 30.115C729.127 30.3372 728.76 30.6602 728.5 31.084C728.336 31.3438 728.221 31.6582 728.156 32.0273C728.092 32.3965 728.059 32.957 728.059 33.709L728.059 39L725.055 39L725.055 27.5156L728.059 27.5156L728.059 29.2998C728.353 28.6436 728.804 28.136 729.413 27.7771C730.021 27.4182 730.732 27.2388 731.545 27.2388C731.956 27.2388 732.357 27.2883 732.75 27.3875C733.143 27.4866 733.518 27.6318 733.873 27.8232L733.873 30.6841Z"/>
<path d="M745.696 31.5454L745.696 39L742.712 39L742.712 32.0068C742.712 31.1797 742.594 30.5884 742.358 30.2329C742.122 29.8774 741.738 29.6997 741.205 29.6997C740.658 29.6997 740.23 29.9407 739.923 30.4226C739.615 30.9045 739.461 31.5728 739.461 32.4272L739.461 39L736.478 39L736.478 23.0449L739.461 23.0449L739.461 29.2383C739.673 28.6025 740.036 28.1104 740.548 27.7617C741.061 27.4131 741.68 27.2388 742.404 27.2388C743.491 27.2388 744.312 27.5994 744.865 28.3206C745.419 29.0417 745.696 30.1167 745.696 31.5454Z"/>
<path d="M754.647 40.2407C754.244 41.3208 753.76 42.1086 753.197 42.6042C752.633 43.0999 751.947 43.3477 751.141 43.3477L748.659 43.3477L748.659 41.061L749.879 41.061C750.495 41.061 750.946 40.9568 751.233 40.7483C751.52 40.5398 751.811 40.0562 752.104 39.2974L752.33 38.6821L747.962 27.5156L751.12 27.5156L753.745 34.9702L756.257 27.5156L759.416 27.5156L754.647 40.2407Z"/>
<path d="M767.075 24.2549L767.075 27.5156L771.002 27.5156L771.002 29.8228L767.075 29.8228L767.075 35.2573C767.075 35.77 767.2 36.1375 767.449 36.3596C767.699 36.5818 768.114 36.6929 768.695 36.6929L771.002 36.6929L771.002 39L768.48 39C766.757 39 765.592 38.7249 764.983 38.1746C764.375 37.6243 764.071 36.604 764.071 35.1138L764.071 29.8228L761.138 29.8228L761.138 27.5156L764.071 27.5156L764.071 24.2549L767.075 24.2549Z"/>
<path d="M783.625 31.5454L783.625 39L780.641 39L780.641 32.0068C780.641 31.1797 780.523 30.5884 780.287 30.2329C780.052 29.8774 779.667 29.6997 779.134 29.6997C778.587 29.6997 778.16 29.9407 777.852 30.4226C777.544 30.9045 777.391 31.5728 777.391 32.4272L777.391 39L774.407 39L774.407 23.0449L777.391 23.0449L777.391 29.2383C777.603 28.6025 777.965 28.1104 778.478 27.7617C778.99 27.4131 779.609 27.2388 780.333 27.2388C781.42 27.2388 782.241 27.5994 782.794 28.3206C783.348 29.0417 783.625 30.1167 783.625 31.5454Z"/>
<path d="M792.361 28.6641C792.587 28.1787 792.874 27.8198 793.223 27.5874C793.571 27.355 793.999 27.2388 794.504 27.2388C795.496 27.2388 796.181 27.5806 796.56 28.2642C796.94 28.9478 797.129 30.3696 797.129 32.5298L797.129 39L794.668 39L794.668 31.6274C794.668 30.7729 794.604 30.2021 794.474 29.915C794.344 29.6279 794.108 29.4844 793.766 29.4844C793.424 29.4844 793.185 29.6313 793.048 29.9253C792.912 30.2192 792.843 30.7866 792.843 31.6274L792.843 39L790.413 39L790.413 31.6274C790.413 30.7866 790.345 30.2192 790.208 29.9253C790.071 29.6313 789.832 29.4844 789.49 29.4844C789.148 29.4844 788.913 29.6279 788.783 29.915C788.653 30.2021 788.588 30.7729 788.588 31.6274L788.588 39L786.127 39L786.127 27.5156L788.311 27.5156L788.311 28.7051C788.482 28.2539 788.755 27.8967 789.131 27.6335C789.507 27.3704 789.928 27.2388 790.393 27.2388C790.857 27.2388 791.281 27.3772 791.664 27.6541C792.047 27.9309 792.279 28.2676 792.361 28.6641Z"/>
<path d="M800.195 27.5156L806.143 27.5156L806.143 36.6929L809.875 36.6929L809.875 39L799.396 39L799.396 36.6929L803.138 36.6929L803.138 29.8228L800.195 29.8228L800.195 27.5156ZM803.138 21.9272L806.143 21.9272L806.143 25.4341L803.138 25.4341L803.138 21.9272Z"/>
<path d="M817.75 33.6064C816.629 33.6064 815.846 33.75 815.402 34.0371C814.958 34.3242 814.735 34.8164 814.735 35.5137C814.735 36.0332 814.889 36.4468 815.197 36.7544C815.504 37.062 815.921 37.2158 816.448 37.2158C817.241 37.2158 817.856 36.9167 818.293 36.3186C818.731 35.7205 818.95 34.8848 818.95 33.8115L818.95 33.6064L817.75 33.6064ZM821.934 32.4478L821.934 39L818.95 39L818.95 37.7183C818.587 38.2241 818.123 38.6138 817.555 38.8872C816.988 39.1606 816.362 39.2974 815.679 39.2974C814.373 39.2974 813.356 38.9521 812.628 38.2617C811.9 37.5713 811.536 36.6074 811.536 35.3701C811.536 34.0303 811.97 33.0408 812.838 32.4016C813.707 31.7625 815.05 31.4429 816.868 31.4429L818.95 31.4429L818.95 30.9404C818.95 30.4551 818.774 30.0876 818.422 29.8381C818.07 29.5886 817.552 29.4639 816.868 29.4639C816.15 29.4639 815.455 29.5544 814.781 29.7356C814.108 29.9167 813.406 30.2056 812.674 30.6021L812.674 28.0386C813.337 27.7651 814.011 27.5635 814.694 27.4336C815.378 27.3037 816.103 27.2388 816.868 27.2388C818.734 27.2388 820.045 27.6182 820.801 28.377C821.556 29.1357 821.934 30.4927 821.934 32.4478Z"/>
</g>
<g fill="#8b8b8b" opacity="1" stroke="none">
<path d="M582.44 23.6909L585.465 23.6909L585.465 29.5254L589.249 29.5254L589.249 23.6909L592.274 23.6909L592.274 39L589.249 39L589.249 32.1914L585.465 32.1914L585.465 39L582.44 39L582.44 23.6909Z"/>
<path d="M601.953 31.771C602.254 31.8325 602.516 31.9744 602.738 32.1965C602.96 32.4187 603.232 32.8511 603.553 33.4937L606.322 39L602.999 39L601.154 35.1343C601.099 35.0249 601.027 34.8745 600.938 34.6831C600.398 33.5278 599.762 32.9502 599.031 32.9502L598.067 32.9502L598.067 39L595.042 39L595.042 23.6909L599.41 23.6909C601.379 23.6909 602.792 24.0396 603.65 24.7368C604.508 25.4341 604.937 26.5688 604.937 28.1411C604.937 29.1938 604.681 30.0312 604.168 30.6533C603.656 31.2754 602.917 31.6479 601.953 31.771ZM598.067 26.2339L598.067 30.4072L599.492 30.4072C600.32 30.4072 600.913 30.2449 601.271 29.9202C601.63 29.5955 601.81 29.0605 601.81 28.3154C601.81 27.5703 601.632 27.0371 601.277 26.7158C600.921 26.3945 600.326 26.2339 599.492 26.2339L598.067 26.2339Z"/>
<path d="M612.638 36.4775L615.335 23.6909L618.38 23.6909L614.74 39L610.546 39L606.906 23.6909L609.951 23.6909L612.638 36.4775Z"/>
</g>
<g fill="#8b8b8b" opacity="1" stroke="none">
<path d="M898.918 32.0479L898.918 36.5801L900.928 36.5801C901.892 36.5801 902.567 36.416 902.953 36.0879C903.339 35.7598 903.532 35.189 903.532 34.3755C903.532 33.5483 903.331 32.9536 902.927 32.5913C902.524 32.229 901.857 32.0479 900.928 32.0479L898.918 32.0479ZM898.918 26.0801L898.918 29.6382L900.928 29.6382C901.693 29.6382 902.239 29.5015 902.563 29.228C902.888 28.9546 903.05 28.5034 903.05 27.8745C903.05 27.2456 902.885 26.7893 902.553 26.5056C902.221 26.2219 901.68 26.0801 900.928 26.0801L898.918 26.0801ZM895.996 23.6704L900.928 23.6704C902.63 23.6704 903.91 23.9934 904.768 24.6394C905.626 25.2854 906.055 26.251 906.055 27.5361C906.055 28.5205 905.802 29.2896 905.296 29.8433C904.79 30.397 904.048 30.7183 903.071 30.8071C904.24 30.9233 905.12 31.3164 905.711 31.9863C906.302 32.6563 906.598 33.5928 906.598 34.7959C906.598 36.2725 906.154 37.3423 905.265 38.0054C904.376 38.6685 902.931 39 900.928 39L895.996 39L895.996 23.6704Z"/>
<path d="M918.657 38.436C917.959 38.7231 917.249 38.9385 916.524 39.082C915.799 39.2256 915.034 39.2974 914.227 39.2974C912.306 39.2974 910.838 38.783 909.823 37.7542C908.808 36.7253 908.3 35.2437 908.3 33.3091C908.3 31.436 908.789 29.9561 909.767 28.8691C910.744 27.7822 912.077 27.2388 913.766 27.2388C915.468 27.2388 916.789 27.7429 917.729 28.7512C918.669 29.7595 919.139 31.1797 919.139 33.0117L919.139 34.2319L911.356 34.2319C911.363 35.1343 911.629 35.8076 912.156 36.252C912.682 36.6963 913.468 36.9185 914.514 36.9185C915.205 36.9185 915.885 36.8193 916.555 36.6211C917.225 36.4229 917.925 36.1084 918.657 35.6777L918.657 38.436ZM916.114 31.9761C916.1 31.1831 915.897 30.5833 915.504 30.1765C915.111 29.7698 914.531 29.5664 913.766 29.5664C913.075 29.5664 912.525 29.7766 912.115 30.197C911.705 30.6174 911.462 31.2139 911.387 31.9863L916.114 31.9761Z"/>
<path d="M927.178 33.6064C926.057 33.6064 925.274 33.75 924.83 34.0371C924.385 34.3242 924.163 34.8164 924.163 35.5137C924.163 36.0332 924.317 36.4468 924.625 36.7544C924.932 37.062 925.349 37.2158 925.875 37.2158C926.668 37.2158 927.284 36.9167 927.721 36.3186C928.159 35.7205 928.377 34.8848 928.377 33.8115L928.377 33.6064L927.178 33.6064ZM931.361 32.4478L931.361 39L928.377 39L928.377 37.7183C928.015 38.2241 927.55 38.6138 926.983 38.8872C926.416 39.1606 925.79 39.2974 925.106 39.2974C923.801 39.2974 922.784 38.9521 922.056 38.2617C921.328 37.5713 920.964 36.6074 920.964 35.3701C920.964 34.0303 921.398 33.0408 922.266 32.4016C923.134 31.7625 924.478 31.4429 926.296 31.4429L928.377 31.4429L928.377 30.9404C928.377 30.4551 928.201 30.0876 927.849 29.8381C927.497 29.5886 926.979 29.4639 926.296 29.4639C925.578 29.4639 924.883 29.5544 924.209 29.7356C923.536 29.9167 922.833 30.2056 922.102 30.6021L922.102 28.0386C922.765 27.7651 923.438 27.5635 924.122 27.4336C924.806 27.3037 925.53 27.2388 926.296 27.2388C928.162 27.2388 929.473 27.6182 930.228 28.377C930.984 29.1357 931.361 30.4927 931.361 32.4478Z"/>
<path d="M939.718 24.2549L939.718 27.5156L943.646 27.5156L943.646 29.8228L939.718 29.8228L939.718 35.2573C939.718 35.77 939.843 36.1375 940.093 36.3596C940.342 36.5818 940.757 36.6929 941.338 36.6929L943.646 36.6929L943.646 39L941.123 39C939.4 39 938.235 38.7249 937.626 38.1746C937.018 37.6243 936.714 36.604 936.714 35.1138L936.714 29.8228L933.781 29.8228L933.781 27.5156L936.714 27.5156L936.714 24.2549L939.718 24.2549Z"/>
</g>
<g fill="#000000" opacity="1" stroke="none">
<path d="M590.994 131.496C590.447 131.777 589.873 131.988 589.271 132.129C588.67 132.27 588.037 132.34 587.373 132.34C585.014 132.34 583.213 131.563 581.971 130.008C580.729 128.453 580.107 126.207 580.107 123.27C580.107 120.324 580.729 118.074 581.971 116.52C583.213 114.965 585.014 114.188 587.373 114.188C588.037 114.188 588.674 114.258 589.283 114.398C589.893 114.539 590.463 114.75 590.994 115.031L590.994 118.875C590.4 118.328 589.824 117.928 589.266 117.674C588.707 117.42 588.131 117.293 587.537 117.293C586.271 117.293 585.316 117.795 584.672 118.799C584.027 119.803 583.705 121.293 583.705 123.27C583.705 125.238 584.027 126.725 584.672 127.729C585.316 128.732 586.271 129.234 587.537 129.234C588.131 129.234 588.707 129.107 589.266 128.854C589.824 128.6 590.4 128.199 590.994 127.652L590.994 131.496Z"/>
<path d="M594.17 114.504L597.885 114.504L602.76 127.219L602.76 114.504L605.807 114.504L605.807 132L602.115 132L597.217 119.285L597.217 132L594.17 132L594.17 114.504Z"/>
<path d="M608.619 114.504L612.334 114.504L617.209 127.219L617.209 114.504L620.256 114.504L620.256 132L616.564 132L611.666 119.285L611.666 132L608.619 132L608.619 114.504Z"/>
</g>
<path d="M530 50L590 50L590 90L530 90L530 50Z" fill="none" filter="url(#Filter_4)" opacity="1" stroke="#000000" stroke-linecap="butt" stroke-linejoin="round" stroke-width="0.1"/>
<path d="M530 50L590 50L590 90L530 90L530 50Z" fill="#fbfbfb" fill-rule="nonzero" opacity="1" stroke="#000000" stroke-linecap="butt" stroke-linejoin="round" stroke-opacity="0.99" stroke-width="3"/>
<g fill="#000000" opacity="1" stroke="none">
<path d="M552.12 78.5591C551.641 78.8052 551.139 78.9897 550.613 79.1128C550.086 79.2358 549.532 79.2974 548.951 79.2974C546.887 79.2974 545.311 78.6172 544.224 77.2568C543.137 75.8965 542.594 73.9312 542.594 71.3608C542.594 68.7837 543.137 66.8149 544.224 65.4546C545.311 64.0942 546.887 63.4141 548.951 63.4141C549.532 63.4141 550.09 63.4756 550.623 63.5986C551.156 63.7217 551.655 63.9062 552.12 64.1523L552.12 67.5156C551.6 67.0371 551.096 66.6868 550.607 66.4646C550.119 66.2424 549.615 66.1313 549.095 66.1313C547.988 66.1313 547.152 66.5706 546.588 67.449C546.024 68.3274 545.742 69.6313 545.742 71.3608C545.742 73.0835 546.024 74.384 546.588 75.2625C547.152 76.1409 547.988 76.5801 549.095 76.5801C549.615 76.5801 550.119 76.469 550.607 76.2468C551.096 76.0247 551.6 75.6743 552.12 75.1958L552.12 78.5591Z"/>
<path d="M555.986 79L555.986 63.6909L559.01 63.6909L559.01 76.334L565.481 76.334L565.481 79L555.986 79Z"/>
<path d="M571.551 72.2837C570.027 71.7026 568.994 71.0925 568.454 70.4534C567.914 69.8142 567.644 68.9546 567.644 67.8745C567.644 66.4868 568.089 65.3965 568.977 64.6035C569.866 63.8105 571.086 63.4141 572.638 63.4141C573.342 63.4141 574.046 63.4944 574.75 63.655C575.454 63.8157 576.152 64.0532 576.842 64.3677L576.842 67.3208C576.193 66.8628 575.533 66.5142 574.863 66.2749C574.193 66.0356 573.53 65.916 572.874 65.916C572.142 65.916 571.582 66.063 571.192 66.3569C570.802 66.6509 570.608 67.0713 570.608 67.6182C570.608 68.042 570.75 68.3923 571.033 68.6692C571.317 68.946 571.91 69.252 572.812 69.5869L574.115 70.0791C575.345 70.5303 576.251 71.1284 576.832 71.8735C577.413 72.6187 577.703 73.5586 577.703 74.6934C577.703 76.2383 577.247 77.3918 576.334 78.1541C575.422 78.9163 574.043 79.2974 572.197 79.2974C571.438 79.2974 570.678 79.2068 569.916 79.0256C569.153 78.8445 568.417 78.5762 567.706 78.2207L567.706 75.0933C568.512 75.6675 569.293 76.0947 570.049 76.375C570.804 76.6553 571.551 76.7954 572.289 76.7954C573.034 76.7954 573.612 76.6262 574.022 76.2878C574.432 75.9495 574.637 75.4761 574.637 74.8677C574.637 74.4097 574.501 74.0081 574.227 73.6628C573.954 73.3176 573.557 73.0459 573.038 72.8477L571.551 72.2837Z"/>
</g>
<path d="M850 100L990 100L990 140L850 140L850 100Z" fill="none" filter="url(#Filter_5)" opacity="1" stroke="#000000" stroke-linecap="butt" stroke-linejoin="round" stroke-width="0.1"/>
<path d="M850 100L990 100L990 140L850 140L850 100Z" fill="#fbfbfb" fill-rule="nonzero" opacity="1" stroke="#000000" stroke-linecap="butt" stroke-linejoin="round" stroke-width="3"/>
<g fill="#000000" opacity="1" stroke="none">
<path d="M910.994 131.496C910.447 131.777 909.873 131.988 909.271 132.129C908.67 132.27 908.037 132.34 907.373 132.34C905.014 132.34 903.213 131.563 901.971 130.008C900.729 128.453 900.107 126.207 900.107 123.27C900.107 120.324 900.729 118.074 901.971 116.52C903.213 114.965 905.014 114.188 907.373 114.188C908.037 114.188 908.674 114.258 909.283 114.398C909.893 114.539 910.463 114.75 910.994 115.031L910.994 118.875C910.4 118.328 909.824 117.928 909.266 117.674C908.707 117.42 908.131 117.293 907.537 117.293C906.271 117.293 905.316 117.795 904.672 118.799C904.027 119.803 903.705 121.293 903.705 123.27C903.705 125.238 904.027 126.725 904.672 127.729C905.316 128.732 906.271 129.234 907.537 129.234C908.131 129.234 908.707 129.107 909.266 128.854C909.824 128.6 910.4 128.199 910.994 127.652L910.994 131.496Z"/>
<path d="M914.17 114.504L917.885 114.504L922.76 127.219L922.76 114.504L925.807 114.504L925.807 132L922.115 132L917.217 119.285L917.217 132L914.17 132L914.17 114.504Z"/>
<path d="M928.619 114.504L932.334 114.504L937.209 127.219L937.209 114.504L940.256 114.504L940.256 132L936.564 132L931.666 119.285L931.666 132L928.619 132L928.619 114.504Z"/>
</g>
<path d="M850 50L990 50L990 90L850 90L850 50Z" fill="none" filter="url(#Filter_6)" opacity="1" stroke="#000000" stroke-linecap="butt" stroke-linejoin="round" stroke-width="0.1"/>
<path d="M850 50L990 50L990 90L850 90L850 50Z" fill="#fbfbfb" fill-rule="nonzero" opacity="1" stroke="#000000" stroke-linecap="butt" stroke-linejoin="round" stroke-width="3"/>
<g fill="#000000" opacity="1" stroke="none">
<path d="M912.12 78.5591C911.641 78.8052 911.139 78.9897 910.613 79.1128C910.086 79.2358 909.532 79.2974 908.951 79.2974C906.887 79.2974 905.311 78.6172 904.224 77.2568C903.137 75.8965 902.594 73.9312 902.594 71.3608C902.594 68.7837 903.137 66.8149 904.224 65.4546C905.311 64.0942 906.887 63.4141 908.951 63.4141C909.532 63.4141 910.09 63.4756 910.623 63.5986C911.156 63.7217 911.655 63.9062 912.12 64.1523L912.12 67.5156C911.6 67.0371 911.096 66.6868 910.607 66.4646C910.119 66.2424 909.615 66.1313 909.095 66.1313C907.988 66.1313 907.152 66.5706 906.588 67.449C906.024 68.3274 905.742 69.6313 905.742 71.3608C905.742 73.0835 906.024 74.384 906.588 75.2625C907.152 76.1409 907.988 76.5801 909.095 76.5801C909.615 76.5801 910.119 76.469 910.607 76.2468C911.096 76.0247 911.6 75.6743 912.12 75.1958L912.12 78.5591Z"/>
<path d="M915.986 79L915.986 63.6909L919.01 63.6909L919.01 76.334L925.481 76.334L925.481 79L915.986 79Z"/>
<path d="M931.551 72.2837C930.027 71.7026 928.994 71.0925 928.454 70.4534C927.914 69.8142 927.644 68.9546 927.644 67.8745C927.644 66.4868 928.089 65.3965 928.977 64.6035C929.866 63.8105 931.086 63.4141 932.638 63.4141C933.342 63.4141 934.046 63.4944 934.75 63.655C935.454 63.8157 936.152 64.0532 936.842 64.3677L936.842 67.3208C936.193 66.8628 935.533 66.5142 934.863 66.2749C934.193 66.0356 933.53 65.916 932.874 65.916C932.142 65.916 931.582 66.063 931.192 66.3569C930.802 66.6509 930.608 67.0713 930.608 67.6182C930.608 68.042 930.75 68.3923 931.033 68.6692C931.317 68.946 931.91 69.252 932.812 69.5869L934.115 70.0791C935.345 70.5303 936.251 71.1284 936.832 71.8735C937.413 72.6187 937.703 73.5586 937.703 74.6934C937.703 76.2383 937.247 77.3918 936.334 78.1541C935.422 78.9163 934.043 79.2974 932.197 79.2974C931.438 79.2974 930.678 79.2068 929.916 79.0256C929.153 78.8445 928.417 78.5762 927.706 78.2207L927.706 75.0933C928.512 75.6675 929.293 76.0947 930.049 76.375C930.804 76.6553 931.551 76.7954 932.289 76.7954C933.034 76.7954 933.612 76.6262 934.022 76.2878C934.432 75.9495 934.637 75.4761 934.637 74.8677C934.637 74.4097 934.501 74.0081 934.227 73.6628C933.954 73.3176 933.557 73.0459 933.038 72.8477L931.551 72.2837Z"/>
</g>
<path d="M610 50L670 50L670 90L610 90L610 50Z" fill="none" filter="url(#Filter_7)" opacity="1" stroke="#000000" stroke-linecap="butt" stroke-linejoin="round" stroke-width="0.1"/>
<path d="M610 50L670 50L670 90L610 90L610 50Z" fill="#fbfbfb" fill-rule="nonzero" opacity="1" stroke="#000000" stroke-linecap="butt" stroke-linejoin="round" stroke-opacity="0.99" stroke-width="3"/>
<g fill="#000000" opacity="1" stroke="none">
<path d="M621.03 66.4595L619.605 72.7246L622.466 72.7246L621.03 66.4595ZM619.185 63.6909L622.886 63.6909L627.019 79L623.994 79L623.05 75.2163L619 75.2163L618.077 79L615.052 79L619.185 63.6909Z"/>
<path d="M635.191 79L632.166 79L632.166 66.3364L628.28 66.3364L628.28 63.6909L639.077 63.6909L639.077 66.3364L635.191 66.3364L635.191 79Z"/>
<path d="M647.834 79L644.809 79L644.809 66.3364L640.923 66.3364L640.923 63.6909L651.72 63.6909L651.72 66.3364L647.834 66.3364L647.834 79Z"/>
<path d="M660.918 71.771C661.219 71.8325 661.48 71.9744 661.702 72.1965C661.925 72.4187 662.196 72.8511 662.518 73.4937L665.286 79L661.964 79L660.118 75.1343C660.063 75.0249 659.992 74.8745 659.903 74.6831C659.363 73.5278 658.727 72.9502 657.996 72.9502L657.032 72.9502L657.032 79L654.007 79L654.007 63.6909L658.375 63.6909C660.344 63.6909 661.757 64.0396 662.615 64.7368C663.473 65.4341 663.902 66.5688 663.902 68.1411C663.902 69.1938 663.646 70.0312 663.133 70.6533C662.62 71.2754 661.882 71.6479 660.918 71.771ZM657.032 66.2339L657.032 70.4072L658.457 70.4072C659.284 70.4072 659.877 70.2449 660.236 69.9202C660.595 69.5955 660.774 69.0605 660.774 68.3154C660.774 67.5703 660.597 67.0371 660.241 66.7158C659.886 66.3945 659.291 66.2339 658.457 66.2339L657.032 66.2339Z"/>
</g>
<path d="M690 100L830 100L830 140L690 140L690 100Z" fill="none" filter="url(#Filter_8)" opacity="1" stroke="#000000" stroke-linecap="butt" stroke-linejoin="round" stroke-width="0.1"/>
<path d="M690 100L830 100L830 140L690 140L690 100Z" fill="#fbfbfb" fill-rule="nonzero" opacity="1" stroke="#000000" stroke-linecap="butt" stroke-linejoin="round" stroke-opacity="0.99" stroke-width="3"/>
<g fill="#000000" opacity="1" stroke="none">
<path d="M750.994 131.496C750.447 131.777 749.873 131.988 749.271 132.129C748.67 132.27 748.037 132.34 747.373 132.34C745.014 132.34 743.213 131.563 741.971 130.008C740.729 128.453 740.107 126.207 740.107 123.27C740.107 120.324 740.729 118.074 741.971 116.52C743.213 114.965 745.014 114.188 747.373 114.188C748.037 114.188 748.674 114.258 749.283 114.398C749.893 114.539 750.463 114.75 750.994 115.031L750.994 118.875C750.4 118.328 749.824 117.928 749.266 117.674C748.707 117.42 748.131 117.293 747.537 117.293C746.271 117.293 745.316 117.795 744.672 118.799C744.027 119.803 743.705 121.293 743.705 123.27C743.705 125.238 744.027 126.725 744.672 127.729C745.316 128.732 746.271 129.234 747.537 129.234C748.131 129.234 748.707 129.107 749.266 128.854C749.824 128.6 750.4 128.199 750.994 127.652L750.994 131.496Z"/>
<path d="M754.17 114.504L757.885 114.504L762.76 127.219L762.76 114.504L765.807 114.504L765.807 132L762.115 132L757.217 119.285L757.217 132L754.17 132L754.17 114.504Z"/>
<path d="M768.619 114.504L772.334 114.504L777.209 127.219L777.209 114.504L780.256 114.504L780.256 132L776.564 132L771.666 119.285L771.666 132L768.619 132L768.619 114.504Z"/>
</g>
<path d="M690 50L750 50L750 90L690 90L690 50Z" fill="none" filter="url(#Filter_9)" opacity="1" stroke="#000000" stroke-linecap="butt" stroke-linejoin="round" stroke-width="0.1"/>
<path d="M690 50L750 50L750 90L690 90L690 50Z" fill="#fbfbfb" fill-rule="nonzero" opacity="1" stroke="#000000" stroke-linecap="butt" stroke-linejoin="round" stroke-opacity="0.99" stroke-width="3"/>
<g fill="#000000" opacity="1" stroke="none">
<path d="M712.12 78.5591C711.641 78.8052 711.139 78.9897 710.613 79.1128C710.086 79.2358 709.532 79.2974 708.951 79.2974C706.887 79.2974 705.311 78.6172 704.224 77.2568C703.137 75.8965 702.594 73.9312 702.594 71.3608C702.594 68.7837 703.137 66.8149 704.224 65.4546C705.311 64.0942 706.887 63.4141 708.951 63.4141C709.532 63.4141 710.09 63.4756 710.623 63.5986C711.156 63.7217 711.655 63.9062 712.12 64.1523L712.12 67.5156C711.6 67.0371 711.096 66.6868 710.607 66.4646C710.119 66.2424 709.615 66.1313 709.095 66.1313C707.988 66.1313 707.152 66.5706 706.588 67.449C706.024 68.3274 705.742 69.6313 705.742 71.3608C705.742 73.0835 706.024 74.384 706.588 75.2625C707.152 76.1409 707.988 76.5801 709.095 76.5801C709.615 76.5801 710.119 76.469 710.607 76.2468C711.096 76.0247 711.6 75.6743 712.12 75.1958L712.12 78.5591Z"/>
<path d="M715.986 79L715.986 63.6909L719.01 63.6909L719.01 76.334L725.481 76.334L725.481 79L715.986 79Z"/>
<path d="M731.551 72.2837C730.027 71.7026 728.994 71.0925 728.454 70.4534C727.914 69.8142 727.644 68.9546 727.644 67.8745C727.644 66.4868 728.089 65.3965 728.977 64.6035C729.866 63.8105 731.086 63.4141 732.638 63.4141C733.342 63.4141 734.046 63.4944 734.75 63.655C735.454 63.8157 736.152 64.0532 736.842 64.3677L736.842 67.3208C736.193 66.8628 735.533 66.5142 734.863 66.2749C734.193 66.0356 733.53 65.916 732.874 65.916C732.142 65.916 731.582 66.063 731.192 66.3569C730.802 66.6509 730.608 67.0713 730.608 67.6182C730.608 68.042 730.75 68.3923 731.033 68.6692C731.317 68.946 731.91 69.252 732.812 69.5869L734.115 70.0791C735.345 70.5303 736.251 71.1284 736.832 71.8735C737.413 72.6187 737.703 73.5586 737.703 74.6934C737.703 76.2383 737.247 77.3918 736.334 78.1541C735.422 78.9163 734.043 79.2974 732.197 79.2974C731.438 79.2974 730.678 79.2068 729.916 79.0256C729.153 78.8445 728.417 78.5762 727.706 78.2207L727.706 75.0933C728.512 75.6675 729.293 76.0947 730.049 76.375C730.804 76.6553 731.551 76.7954 732.289 76.7954C733.034 76.7954 733.612 76.6262 734.022 76.2878C734.432 75.9495 734.637 75.4761 734.637 74.8677C734.637 74.4097 734.501 74.0081 734.227 73.6628C733.954 73.3176 733.557 73.0459 733.038 72.8477L731.551 72.2837Z"/>
</g>
<path d="M770 50L830 50L830 90L770 90L770 50Z" fill="none" filter="url(#Filter_10)" opacity="1" stroke="#000000" stroke-linecap="butt" stroke-linejoin="round" stroke-width="0.1"/>
<path d="M770 50L830 50L830 90L770 90L770 50Z" fill="#fbfbfb" fill-rule="nonzero" opacity="1" stroke="#000000" stroke-linecap="butt" stroke-linejoin="round" stroke-opacity="0.99" stroke-width="3"/>
<g fill="#000000" opacity="1" stroke="none">
<path d="M789.31 71.771C789.611 71.8325 789.873 71.9744 790.095 72.1965C790.317 72.4187 790.589 72.8511 790.91 73.4937L793.678 79L790.356 79L788.51 75.1343C788.456 75.0249 788.384 74.8745 788.295 74.6831C787.755 73.5278 787.119 72.9502 786.388 72.9502L785.424 72.9502L785.424 79L782.399 79L782.399 63.6909L786.767 63.6909C788.736 63.6909 790.149 64.0396 791.007 64.7368C791.865 65.4341 792.294 66.5688 792.294 68.1411C792.294 69.1938 792.038 70.0312 791.525 70.6533C791.012 71.2754 790.274 71.6479 789.31 71.771ZM785.424 66.2339L785.424 70.4072L786.849 70.4072C787.677 70.4072 788.27 70.2449 788.628 69.9202C788.987 69.5955 789.167 69.0605 789.167 68.3154C789.167 67.5703 788.989 67.0371 788.634 66.7158C788.278 66.3945 787.683 66.2339 786.849 66.2339L785.424 66.2339Z"/>
<path d="M804.937 79L795.401 79L795.401 63.6909L804.937 63.6909L804.937 66.3569L798.426 66.3569L798.426 69.6587L804.322 69.6587L804.322 72.3247L798.426 72.3247L798.426 76.334L804.937 76.334L804.937 79Z"/>
<path d="M815.263 76.2314L815.263 73.3091L813.192 73.3091L813.192 70.7661L817.908 70.7661L817.908 77.7798C817.327 78.2788 816.687 78.6565 815.986 78.9128C815.285 79.1692 814.535 79.2974 813.735 79.2974C811.753 79.2974 810.221 78.6086 809.141 77.2312C808.061 75.8538 807.521 73.897 807.521 71.3608C807.521 68.7837 808.066 66.8149 809.157 65.4546C810.247 64.0942 811.821 63.4141 813.879 63.4141C814.494 63.4141 815.099 63.5012 815.694 63.6755C816.288 63.8499 816.845 64.1011 817.365 64.4292L817.365 67.7822C816.941 67.2354 816.454 66.8235 815.904 66.5466C815.354 66.2698 814.75 66.1313 814.094 66.1313C812.946 66.1313 812.088 66.5637 811.52 67.4285C810.953 68.2932 810.669 69.604 810.669 71.3608C810.669 73.063 810.943 74.3584 811.49 75.2471C812.036 76.1357 812.833 76.5801 813.879 76.5801C814.193 76.5801 814.467 76.551 814.699 76.4929C814.931 76.4348 815.119 76.3477 815.263 76.2314Z"/>
</g>
</g>
</g>
</svg>
